<svg preserveAspectRatio="none" viewBox="0 0 1153 244" fill="none" xmlns="http://www.w3.org/2000/svg">
<path fill-rule="evenodd" clip-rule="evenodd" d="M548.156 3.88443C625.105 1.57081 699.592 -1.34686 776.704 0.683997C887.398 3.59926 1021.62 -0.110081 1095.61 18.3024C1167.13 36.0985 1164.27 65.6956 1128 88.1003C1093.47 109.431 977.147 117.224 908.294 134.016C856.597 146.624 819.215 160.696 773.924 174.453C697.088 197.791 675.204 250.148 548.156 243.406C402.464 235.674 485.641 176.292 377.407 153.41C306.571 138.434 152.83 163.135 89.9086 146.525C31.6854 131.155 141.95 107.965 130.007 88.1003C115.293 63.6289 -47.7077 40.5858 13.8189 19.9749C77.3505 -1.30762 238.548 16.87 352.922 13.4259C420.108 11.4027 480.968 5.90458 548.156 3.88443Z" fill="#DFF9FF"/>
</svg>
