<svg preserveAspectRatio="none"  viewBox="0 0 1294 1156" fill="none" xmlns="http://www.w3.org/2000/svg">
<path d="M1209 603H1106.5C1105.17 603 1101 600.214 1101 596.5C1101 592.786 1105.17 590 1106.5 590H1209C1210.33 590 1215 592.786 1215 596.5C1215 600.214 1210.33 603 1209 603Z" fill="#DFF9FF"/>
<path d="M108 516H5.5C4.1738 516 0 513.214 0 509.5C0 505.786 4.1738 503 5.5 503H108C109.326 503 114 505.786 114 509.5C114 513.214 109.326 516 108 516Z" fill="#DFF9FF"/>
<path d="M183 212H80.5C79.1738 212 75 209.214 75 205.5C75 201.786 79.1738 199 80.5 199H183C184.326 199 189 201.786 189 205.5C189 209.214 184.326 212 183 212Z" fill="#DFF9FF"/>
<path d="M1125.7 106L860.5 106C859.174 106 855 103.214 855 99.5C855 95.7857 859.174 93 860.5 93L1125.7 93C1127.03 93 1131.7 95.7857 1131.7 99.5C1131.7 103.214 1127.03 106 1125.7 106Z" fill="#DFF9FF"/>
<path d="M512.703 13L247.5 13C246.174 13 242 10.2142 242 6.49996C242 2.78568 246.174 0 247.5 0L512.703 4.673e-05C514.029 4.673e-05 518.703 2.78573 518.703 6.50001C518.703 10.2143 514.029 13 512.703 13Z" fill="#DFF9FF"/>
<path d="M462.703 678L197.5 678C196.174 678 192 675.214 192 671.5C192 667.786 196.174 665 197.5 665L462.703 665C464.029 665 468.703 667.786 468.703 671.5C468.703 675.214 464.029 678 462.703 678Z" fill="#DFF9FF"/>
<path fill-rule="evenodd" clip-rule="evenodd" d="M637.016 165.272C700.529 177.07 766.251 174.512 832.169 180.72C932.963 190.213 1064.11 166.473 1128.53 211.56C1189.38 254.151 1124.37 318.952 1106.77 372.907C1091.91 418.469 1081.13 465.461 1033.45 503.042C987.843 538.985 918.591 562.643 845.841 578.558C779.456 593.08 706.369 580.781 637.016 589.765C542.277 602.037 453.125 664.046 364.934 640.854C279.912 618.495 317.156 539.407 270.233 493.31C223.239 447.141 86.1691 426.14 92.1924 372.907C98.3653 318.351 251.951 309.573 296.504 261.128C344.202 209.264 258.874 117.325 351.122 91.3571C446.566 64.4889 535.781 146.465 637.016 165.272Z" fill="#DFF9FF"/>
<path d="M730.5 150H679.5C678.174 150 674 147.214 674 143.5C674 139.786 678.174 137 679.5 137H730.5C731.826 137 736.5 139.786 736.5 143.5C736.5 147.214 731.826 150 730.5 150Z" fill="#DFF9FF"/>
<path d="M911.5 616H860.5C859.174 616 855 613.214 855 609.5C855 605.786 859.174 603 860.5 603H911.5C912.826 603 917.5 605.786 917.5 609.5C917.5 613.214 912.826 616 911.5 616Z" fill="#DFF9FF"/>
<path d="M1262.5 227H1211.5C1210.17 227 1206 224.214 1206 220.5C1206 216.786 1210.17 214 1211.5 214H1262.5C1263.83 214 1268.5 216.786 1268.5 220.5C1268.5 224.214 1263.83 227 1262.5 227Z" fill="#DFF9FF"/>
<path d="M236.5 274H185.5C184.174 274 180 271.214 180 267.5C180 263.786 184.174 261 185.5 261H236.5C237.826 261 242.5 263.786 242.5 267.5C242.5 271.214 237.826 274 236.5 274Z" fill="#DFF9FF"/>
<path d="M968 1143H865.5C864.174 1143 860 1140.21 860 1136.5C860 1132.79 864.174 1130 865.5 1130H968C969.326 1130 974 1132.79 974 1136.5C974 1140.21 969.326 1143 968 1143Z" fill="#DFF9FF"/>
<path d="M1288 1003H1185.5C1184.17 1003 1180 1000.21 1180 996.5C1180 992.786 1184.17 990 1185.5 990H1288C1289.33 990 1294 992.786 1294 996.5C1294 1000.21 1289.33 1003 1288 1003Z" fill="#DFF9FF"/>
<path d="M186 1072H83.5C82.1738 1072 78 1069.21 78 1065.5C78 1061.79 82.1738 1059 83.5 1059H186C187.326 1059 192 1061.79 192 1065.5C192 1069.21 187.326 1072 186 1072Z" fill="#DFF9FF"/>
<path d="M616.703 1156L351.5 1156C350.174 1156 346 1153.21 346 1149.5C346 1145.79 350.174 1143 351.5 1143L616.703 1143C618.029 1143 622.703 1145.79 622.703 1149.5C622.703 1153.21 618.029 1156 616.703 1156Z" fill="#DFF9FF"/>
<path d="M1177.7 796L912.5 796C911.174 796 907 793.214 907 789.5C907 785.786 911.174 783 912.5 783L1177.7 783C1179.03 783 1183.7 785.786 1183.7 789.5C1183.7 793.214 1179.03 796 1177.7 796Z" fill="#DFF9FF"/>
<path fill-rule="evenodd" clip-rule="evenodd" d="M639.546 799.875C722.015 815.041 683.628 880.278 757.967 902.054C838.138 925.537 981.701 882.497 1038.31 916.682C1087.81 946.57 978.543 982.815 948.956 1017.38C921.243 1049.76 936.553 1093.53 870.634 1112.58C804.64 1131.66 718.565 1105.35 639.546 1106.82C554.887 1108.38 470.794 1136.9 393.812 1121.4C314.473 1105.43 254.573 1066.81 251.083 1028.62C247.723 991.845 346.744 970.397 376.874 936.034C404.36 904.686 367.541 865.01 417.035 839.355C469.96 811.92 563.911 785.965 639.546 799.875Z" fill="#DFF9FF"/>
</svg>
