<svg preserveAspectRatio="none" viewBox="0 0 1257 790" fill="none" xmlns="http://www.w3.org/2000/svg">
<path d="M1210 305H1107.5C1106.17 305 1102 302.214 1102 298.5C1102 294.786 1106.17 292 1107.5 292H1210C1211.33 292 1216 294.786 1216 298.5C1216 302.214 1211.33 305 1210 305Z" fill="#DFF9FF"/>
<path d="M709 720H606.5C605.174 720 601 717.214 601 713.5C601 709.786 605.174 707 606.5 707H709C710.326 707 715 709.786 715 713.5C715 717.214 710.326 720 709 720Z" fill="#DFF9FF"/>
<path d="M139 229H36.5C35.1738 229 31 226.214 31 222.5C31 218.786 35.1738 216 36.5 216H139C140.326 216 145 218.786 145 222.5C145 226.214 140.326 229 139 229Z" fill="#DFF9FF"/>
<path d="M954.703 126L689.5 126C688.174 126 684 123.214 684 119.5C684 115.786 688.174 113 689.5 113L954.703 113C956.029 113 960.703 115.786 960.703 119.5C960.703 123.214 956.029 126 954.703 126Z" fill="#DFF9FF"/>
<path d="M449.703 36L184.5 36C183.174 36 179 33.2142 179 29.5C179 25.7857 183.174 23 184.5 23L449.703 23C451.029 23 455.703 25.7857 455.703 29.5C455.703 33.2143 451.029 36 449.703 36Z" fill="#DFF9FF"/>
<path d="M332.703 720L67.5 720C66.1738 720 62 717.214 62 713.5C62 709.786 66.1738 707 67.5 707L332.703 707C334.029 707 338.703 709.786 338.703 713.5C338.703 717.214 334.029 720 332.703 720Z" fill="#DFF9FF"/>
<path d="M954.703 126L689.5 126C688.174 126 684 123.214 684 119.5C684 115.786 688.174 113 689.5 113L954.703 113C956.029 113 960.703 115.786 960.703 119.5C960.703 123.214 956.029 126 954.703 126Z" fill="#DFF9FF"/>
<path fill-rule="evenodd" clip-rule="evenodd" d="M257.013 121.955C301.67 85.3217 367.185 81.1153 423.626 93.405C479.372 105.543 521.618 146.989 561.111 188.171C601.152 229.924 652.996 273.379 651.684 331.213C650.385 388.403 580.958 416.849 554.765 467.699C527.198 521.219 550.192 607.853 495.848 633.749C441.624 659.587 388.75 588.393 330.267 574.674C275.427 561.81 210.673 591.343 166.427 556.475C121.026 520.697 98.8048 455.588 106.442 398.291C113.6 344.589 178.234 321.015 204.154 273.445C230.384 225.305 214.63 156.724 257.013 121.955Z" fill="#DFF9FF"/>
<path fill-rule="evenodd" clip-rule="evenodd" d="M947.247 517.048C1016.8 515.333 1100.38 512.945 1146.68 535.053C1193.09 557.212 1150.18 592.562 1165.9 621.455C1179.45 646.346 1247.91 666.27 1231.47 690.844C1215.05 715.362 1136.83 719.116 1089.9 735.006C1039.64 752.022 1009.91 781.003 947.247 787.075C879.201 793.667 795.454 789.84 747.912 768.14C700.815 746.643 737.52 711.402 719.383 683.068C702.677 656.969 638.171 636.964 646.788 610.167C655.76 582.271 710.396 561.084 763.95 544.486C817.593 527.861 880.95 518.682 947.247 517.048Z" fill="#DFF9FF"/>
<path d="M519.5 790H468.5C467.174 790 463 787.214 463 783.5C463 779.786 467.174 777 468.5 777H519.5C520.826 777 525.5 779.786 525.5 783.5C525.5 787.214 520.826 790 519.5 790Z" fill="#DFF9FF"/>
<path d="M1250.5 418H1199.5C1198.17 418 1194 415.214 1194 411.5C1194 407.786 1198.17 405 1199.5 405H1250.5C1251.83 405 1256.5 407.786 1256.5 411.5C1256.5 415.214 1251.83 418 1250.5 418Z" fill="#DFF9FF"/>
<path d="M87.5 587H36.5C35.1738 587 31 584.214 31 580.5C31 576.786 35.1738 574 36.5 574H87.5C88.8262 574 93.5 576.786 93.5 580.5C93.5 584.214 88.8262 587 87.5 587Z" fill="#DFF9FF"/>
</svg>
