<svg  viewBox="0 0 322 244" fill="none" xmlns="http://www.w3.org/2000/svg">
	<style type="text/css">
		.stfloating1{
		animation: floatAnim 3s ease-in-out infinite;
		}
		@keyframes floatAnim {
		0% {
		transform: translate(0,0px);
		}
		50% {
		transform: translate(0,-15px);
		}
		100% {
		transform: translate(0,0px);
		}
		}
	</style>
<path fill-rule="evenodd" clip-rule="evenodd" d="M162.158 4.28462C193.718 -11.4951 230.372 19.8575 258.751 40.8182C286.94 61.6379 317.07 87.193 321.462 121.943C325.704 155.508 304.199 187.993 280.393 212.051C262.013 230.626 233.193 229.839 207.956 236.65C192.657 240.779 177.998 244.433 162.158 243.958C146.799 243.498 133.581 235.7 118.314 233.963C78.6657 229.453 16.1675 262.927 1.8226 225.719C-12.1436 189.494 57.864 176.083 85.4665 148.765C97.3052 137.048 109.264 126.365 117.071 111.656C135.729 76.5072 126.549 22.0886 162.158 4.28462Z" fill="#DFF9FF"/>
<path d="M199.4 234.7C255.402 234.7 300.8 189.302 300.8 133.3C300.8 77.2984 255.402 31.9 199.4 31.9C143.398 31.9 98 77.2984 98 133.3C98 189.302 143.398 234.7 199.4 234.7Z" fill="#ABCD2D"/>
<path d="M173 140.7C193.5 169.9 214.1 199.2 234.6 228.4C226.4 231.4 200.2 240 169 230.2C133.9 219.2 116.7 192.6 112.5 185.7C132.7 170.7 152.9 155.7 173 140.7Z" fill="#81BBE8"/>
<path d="M276.5 67.4L188.6 128.9L253.4 219.3C258.6 216.2 292.4 195.1 300.3 152C309 105 280 71.4 276.5 67.4Z" fill="#7A797F"/>
<path d="M173 141.8C178.8 137.1 184.6 132.5 190.4 127.8C211.9 157.9 233.3 188.1 254.8 218.2C252 220 248.8 221.9 245.1 223.8C241.3 225.7 237.8 227.2 234.5 228.4C214 199.6 193.5 170.7 173 141.8Z" fill="white"/>
<path d="M102.6 163.7C103.3 166.4 104.3 169.3 105.5 172.3C107.6 177.6 110.1 182.1 112.5 185.7C167.1 146.2 221.8 106.8 276.4 67.3C274.2 64.8 271.7 62.1001 268.8 59.4001C265.6 56.4001 262.6 53.9 259.7 51.8C207.4 89.1 155 126.4 102.6 163.7Z" fill="#FFCE00"/>
<path opacity="0.1" d="M227.7 218.8C230 222 232.3 225.3 234.6 228.5C240.2 226.5 280.8 211.2 296.3 167.5C308.3 133.6 300.6 95.4 276.5 67.4C269.6 72.4 262.6 77.4 255.7 82.4C259 87 281 118.4 271.4 159.4C262.4 197.4 233 215.7 227.7 218.8Z" fill="black"/>
<g opacity="0.15">
<g opacity="0.15">
<g opacity="0.15">
<path opacity="0.15" d="M116.6 105.9C116.5 107 115.6 107.2 115.2 108.3C115.2 108.3 114.9 109.4 115 110.9C115.4 113.7 118.7 117.4 123.3 118C124.4 118.1 128.2 118.4 130.7 116C131.5 115.1 132 114.3 132.3 113.7C132.8 113.6 134.3 113.6 135.6 112.5C136.6 111.8 136.9 110.8 137.2 110.2C137.4 109.4 138.4 107.1 136.9 104.9C135.8 103.3 133.8 102.5 131.8 102.7C129.1 99.3001 125.2 97.6001 121.8 98.2001C121.4 98.3001 117.9 99.2001 116.9 101.5C116.4 102.7 116.5 103.9 116.5 103.9C116.4 104.8 116.8 105.1 116.6 105.9Z" fill="black"/>
<path opacity="0.15" d="M119 116C119.1 115.8 121.2 116.8 124.2 116.2C126.9 115.7 128.5 114.3 128.8 114C130.1 112.8 130.8 111.8 131.2 111C131.4 111 133.6 111.6 135.3 110C136.6 108.8 137 107.1 136.6 105.6C136.1 104.3 135 103.4 134.6 103.3C134.3 103.1 134.1 103 133.9 103C132.8 102.7 132 102.7 131.7 102.7C130.3 102.6 129.6 101.2 128.3 100.1C127.3 99.2 125.7 98.3 122.9 98.1C123.8 98 126.2 97.9001 128.6 99.4001C130.2 100.4 131.2 101.7 131.6 102.4C132.1 102.3 133.2 102.2 134.7 102.9C135.1 103 136.2 103.7 137 105C138.5 107.6 137.2 111.6 134.5 113.1C133.7 113.6 132.8 113.6 132.2 113.7C131.9 114.3 131.5 114.9 130.8 115.8C129.4 117.2 128 117.6 127.3 117.8C123.1 118.8 118.9 116.4 119 116Z" fill="black"/>
</g>
<path opacity="0.15" d="M127.5 106.4C127.6 106.2 126.7 105.1 125.5 104.6C124.7 104.2 124.1 104.2 123.8 104.2C123.9 104 124.1 103.6 124.1 103.1C124 101.9 123 101.2 122.8 101.2C122.8 101.2 123.5 102 123.3 102.9C123.4 103.2 123.2 103.5 123.1 103.7C122.9 103.7 122.5 103.6 122 103.7C121.5 103.8 121.5 103.8 121.5 103.8C121.5 104 121.7 104.1 123.2 104.9C123 104.9 122.3 105.1 121.8 105.5C121.2 106 121.1 106.7 121.2 106.9C121.6 106.8 121.7 106.6 122.1 106.5C122.6 106.2 123.3 105.9 124.2 105.9C125.8 105.3 127.3 106.6 127.5 106.4Z" fill="black"/>
<path opacity="0.15" d="M115.1 110.5C115.2 110.1 115.5 109.5 115.7 108.9C115.8 108.5 116.4 107.9 117 107.2C117.8 106.5 118.6 106 119.5 105.6C120.3 105.1 121.4 104.7 121.4 104.7C121.4 104.5 119.7 105.4 119 104.6C118.8 104.3 118.6 103.8 118.5 103.1C118.5 102.9 118.5 102.2 118.5 101.5C118.9 99.6 120.9 98.5 121 98.5C120.5 98.6 119.1 99.1 118 100.2C117.1 101.1 116.7 102.3 116.6 102.6C116.5 103 116.3 103.9 116.3 105C116.4 105.5 116.5 105.9 116.5 106.2C116.2 106.6 115.6 107.3 115.1 108.3C115 109.1 115 110.2 115.1 110.5Z" fill="black"/>
<path opacity="0.15" d="M115.6 109.3C115.7 108.7 116 107.8 116.9 106.7C118.6 104.9 120.8 104.7 121.3 104.7C120.9 104.8 120.6 105 120.1 105.3C119.9 105.3 118.6 106.1 118.1 106.4C117.6 106.9 116.6 107.7 115.6 109.3Z" fill="black"/>
</g>
<path opacity="0.15" d="M126.5 119C127.2 119.6 127.6 119.9 128.1 120.5C128.6 121.1 128.7 121.8 128.7 122.4C129.4 122.3 130.1 122.1 130.7 122C130.4 121.5 130.2 120.7 130.2 119.6C130.2 117.8 130.9 116.6 131.1 116C131.1 115.3 131.4 114.5 131.4 113.8C130.9 115.2 130.3 116.7 129.8 118.1C129.5 117.6 129.2 117.1 129.1 116.6C128.3 114.6 128.1 112.7 128 111.2C128 111.9 127.7 112.5 127.7 113.2C128 114.8 128.2 116.3 128.3 118.1C128.4 118.6 128.3 119.2 128.4 119.7C128 119.6 127.8 119.3 127.4 119.2C126.1 118.4 125.3 117.3 124.8 116.5C125.5 117.8 126 118.6 126.5 119Z" fill="black"/>
</g>
<g opacity="0.15">
<g opacity="0.15">
<g opacity="0.15">
<path opacity="0.15" d="M133.8 55.3C133.4 57 132.1 57.1 131.4 58.9C131.4 58.9 130.8 60.6 130.7 62.8C130.9 67.1 135.6 73.1 142.5 74.7C144.2 75 150 76 154 72.5C155.3 71.3 156.2 70 156.7 69.2C157.5 69.1 159.8 69.4 161.9 67.8C163.5 66.8 164.1 65.3 164.6 64.5C165 63.4 166.9 59.9 164.7 56.3C163.3 53.7 160.3 52.2 157.2 52.3C153.4 46.8 147.7 43.6 142.4 44.3C141.8 44.4 136.3 45.3 134.5 48.8C133.6 50.5 133.5 52.5 133.5 52.5C133.7 53.7 134.3 54.1 133.8 55.3Z" fill="black"/>
<path opacity="0.15" d="M136.1 71.4C137.8 71.9 140.8 72.5 144.3 72C145.3 71.8 147.8 71.5 150.4 69.9C151 69.6 151.4 69.3 151.5 69.2C153.6 67.6 154.8 66.1 155.5 64.9C155.8 64.9 159 66.1 161.8 63.9C163.9 62.3 164.7 59.7 164.4 57.3C163.9 55.2 162.3 53.7 161.7 53.5C161.3 53.2 161 53 160.7 52.9C159.1 52.3 157.9 52.2 157.3 52.1C155.1 51.9 154.2 49.5 152.3 47.7C150.9 46.3 148.5 44.7 144.3 44C145.6 44 149.4 44.1 153 46.6C155.4 48.3 156.6 50.4 157.3 51.5C158.1 51.4 159.8 51.5 161.9 52.6C162.5 52.8 164 54 165.1 56C167 60.1 164.6 66.1 160.4 68C159.1 68.7 157.7 68.6 156.8 68.7C156.5 69.6 155.9 70.9 154.7 72.1C152.8 74 150.6 74.4 148.7 74.7C147.3 75 144.4 75.4 140.9 74.2C138.6 73.5 137 72.3 136.1 71.4Z" fill="black"/>
</g>
<path opacity="0.15" d="M150.4 57.4C150.6 57.1 149.3 55.4 147.5 54.5C146.3 53.8 145.4 53.7 144.9 53.7C145.1 53.4 145.4 52.8 145.5 52C145.5 50.1 144 48.9 143.7 48.9C143.7 48.9 144.7 50.1 144.3 51.6C144.4 52.1 144.1 52.4 143.9 52.7C143.6 52.7 143 52.5 142.2 52.6C141.4 52.7 141.4 52.7 141.4 52.7C141.4 53 141.7 53.2 143.9 54.6C143.6 54.6 142.5 54.8 141.7 55.4C140.7 56.1 140.5 57.2 140.5 57.4C141.1 57.3 141.3 57 141.9 57C142.7 56.6 143.8 56.2 145.2 56.3C147.9 55.5 150.2 57.7 150.4 57.4Z" fill="black"/>
<path opacity="0.15" d="M131 62.2C131.2 61.6 131.7 60.8 132.1 59.9C132.3 59.3 133.3 58.4 134.3 57.4C135.6 56.4 136.9 55.7 138.3 55.3C139.6 54.6 141.3 54.1 141.3 54.1C141.3 53.8 138.6 55 137.6 53.7C137.3 53.2 137.2 52.4 137 51.3C137 51 137.1 49.9 137.3 48.8C138.1 46 141.3 44.5 141.6 44.5C140.8 44.6 138.6 45.1 136.8 46.7C135.3 48 134.6 49.7 134.4 50.3C134.2 50.9 133.8 52.3 133.7 53.9C133.8 54.7 133.9 55.2 133.9 55.8C133.4 56.4 132.4 57.3 131.5 58.8C131 60 131 61.6 131 62.2Z" fill="black"/>
<path opacity="0.15" d="M131.9 60.3999C132.1 59.5999 132.7 58.0999 134.2 56.5999C137 54.0999 140.3 53.8999 141.2 54.0999C140.6 54.1999 140.1 54.4999 139.3 54.8999C139 54.8999 136.9 55.9999 136.1 56.3999C135.2 56.9999 133.6 57.9999 131.9 60.3999Z" fill="black"/>
</g>
<path opacity="0.15" d="M147.4 76.5C148.4 77.5 149 77.9 149.7 79C150.4 80.1 150.5 81.1 150.3 81.9C151.4 81.8 152.5 81.6 153.3 81.5C152.9 80.7 152.8 79.4 152.8 77.7C153 74.9 154.2 73.2 154.7 72.3C154.8 71.2 155.3 70 155.4 68.9C154.5 70.9 153.4 73.2 152.5 75.2C152.1 74.4 151.8 73.7 151.7 72.8C150.8 69.6 150.7 66.7 150.7 64.5C150.6 65.6 150.1 66.5 149.9 67.6C150.2 70 150.2 72.5 150.3 75.2C150.4 76 150.2 76.8 150.3 77.7C149.7 77.5 149.4 77 148.8 76.8C146.9 75.4 145.9 73.6 145.2 72.3C146 74.5 146.7 75.8 147.4 76.5Z" fill="black"/>
</g>
<path d="M120.3 103.6C119.9 104.7 119 104.7 118.5 105.7C118.5 105.7 118 106.8 117.8 108.2C117.6 111 120.2 115.3 124.5 116.8C125.6 117.2 129.2 118.2 132.1 116.3C133 115.6 133.7 114.9 134.1 114.4C134.6 114.4 136.1 114.8 137.6 113.9C138.7 113.4 139.2 112.5 139.6 112C140 111.3 141.4 109.2 140.3 106.7C139.6 104.9 137.8 103.7 135.8 103.5C133.8 99.6 130.3 97.1 126.9 97.1C126.5 97.1 122.9 97.3 121.4 99.4C120.7 100.5 120.5 101.7 120.5 101.7C120.3 102.5 120.7 102.9 120.3 103.6Z" fill="#ADCE52"/>
<path d="M120.5 114.2C121.6 114.7 123.5 115.3 125.8 115.2C126.5 115.2 128.1 115.1 129.9 114.4C130.3 114.2 130.6 114.1 130.7 114C132.2 113.1 133.1 112.2 133.6 111.5C133.8 111.5 135.8 112.6 137.8 111.3C139.3 110.4 140 108.8 140 107.2C139.8 105.8 138.9 104.7 138.5 104.6C138.3 104.4 138.1 104.2 137.9 104.1C136.9 103.6 136.1 103.4 135.8 103.3C134.4 103 134 101.3 132.9 99.9C132.1 98.9 130.7 97.7 128 97C128.9 97.1 131.3 97.4 133.4 99.4C134.8 100.7 135.5 102.1 135.8 102.9C136.3 102.9 137.4 103.1 138.7 104C139.4 104.5 140.1 105.3 140.5 106.5C141.5 109.5 139.5 113.4 136.6 114.2C135.7 114.4 134.8 114.3 134.1 114.1C133.8 114.6 133.3 115.4 132.5 116.1C130.5 117.7 128.1 117.5 127 117.4C123.6 117.2 121.3 115 120.5 114.2Z" fill="#9AB130"/>
<path d="M130.9 106.2C131.1 106 130.4 104.8 129.3 104.1C128.6 103.6 128 103.4 127.7 103.4C127.9 103.2 128.1 102.9 128.2 102.3C128.4 101.1 127.5 100.2 127.3 100.2C127.3 100.2 127.8 101.1 127.5 102C127.5 102.4 127.3 102.5 127.1 102.7C126.9 102.7 126.6 102.5 126 102.5C125.5 102.5 125.5 102.5 125.5 102.5C125.5 102.7 125.7 102.9 127 103.9C126.8 103.9 126.1 103.9 125.5 104.3C124.8 104.7 124.6 105.4 124.6 105.5C125 105.5 125.1 105.3 125.5 105.3C126 105.1 126.8 104.9 127.7 105.1C129.4 104.8 130.7 106.4 130.9 106.2Z" fill="#C2DC5B"/>
<path d="M118 107.8C118.2 107.4 118.5 106.9 118.9 106.4C119.1 106 119.8 105.5 120.5 105C121.4 104.5 122.3 104.1 123.2 103.9C124.1 103.5 125.2 103.4 125.2 103.4C125.2 103.2 123.4 103.8 122.8 102.9C122.6 102.5 122.6 102 122.6 101.3C122.6 101.1 122.8 100.4 123 99.7C123.7 97.9 125.9 97.2 126.1 97.2C125.6 97.2 124.1 97.4 122.8 98.3C121.7 99 121.2 100.1 121 100.4C120.8 100.7 120.5 101.6 120.3 102.7C120.3 103.2 120.3 103.6 120.3 103.9C119.9 104.3 119.2 104.8 118.5 105.7C118.1 106.4 118 107.5 118 107.8Z" fill="#C2DD4C"/>
<path d="M118.7 106.8C118.9 106.3 119.4 105.4 120.5 104.5C122.5 103.1 124.7 103.3 125.2 103.4C124.8 103.4 124.5 103.6 123.9 103.8C123.7 103.8 122.3 104.3 121.7 104.5C121.1 104.8 120 105.4 118.7 106.8Z" fill="#C2DC5B"/>
<path d="M127.4 118.4C127.9 119.1 128.3 119.5 128.7 120.2C129.1 120.9 129.1 121.6 128.9 122.1C129.6 122.1 130.4 122.1 130.9 122.1C130.7 121.6 130.7 120.7 130.9 119.6C131.3 117.8 132.2 116.8 132.5 116.2C132.7 115.5 133 114.8 133.2 114.1C132.5 115.3 131.6 116.7 130.8 118C130.6 117.5 130.4 116.9 130.4 116.4C130 114.3 130.2 112.3 130.4 110.9C130.2 111.6 129.9 112.1 129.7 112.8C129.7 114.4 129.5 116 129.3 117.7C129.3 118.2 129.1 118.8 129.1 119.3C128.7 119.1 128.6 118.8 128.2 118.6C127.1 117.5 126.6 116.3 126.2 115.4C126.7 117 127.1 117.9 127.4 118.4Z" fill="#A57B66"/>
<path d="M137.3 53.5C136.7 55.1 135.3 55.1 134.5 56.7C134.5 56.7 133.7 58.3 133.4 60.5C133.1 64.8 137 71.3 143.7 73.8C145.4 74.3 151 76 155.4 73C156.8 71.9 157.9 70.8 158.5 70C159.3 70 161.6 70.5 163.8 69.2C165.5 68.4 166.3 67 166.9 66.2C167.5 65.1 169.7 61.9 168 58.1C166.9 55.4 164.1 53.5 161 53.2C157.9 47.2 152.6 43.5 147.3 43.5C146.7 43.5 141.2 43.8 138.9 47C137.8 48.6 137.5 50.5 137.5 50.5C137.3 51.9 137.8 52.4 137.3 53.5Z" fill="#ADCE52"/>
<path d="M137.5 69.8C139.2 70.5 142.1 71.5 145.6 71.4C146.7 71.4 149.2 71.3 151.9 70.1C152.5 69.8 152.9 69.6 153.1 69.5C155.3 68.1 156.7 66.8 157.6 65.7C157.9 65.7 160.9 67.3 164 65.4C166.2 64 167.3 61.6 167.3 59.2C167 57 165.6 55.4 165.1 55.1C164.8 54.8 164.5 54.6 164.2 54.4C162.7 53.6 161.5 53.3 160.9 53.2C158.8 52.7 158.1 50.3 156.5 48.2C155.3 46.6 153.1 44.7 149 43.6C150.3 43.7 154 44.3 157.3 47.2C159.4 49.2 160.5 51.4 160.9 52.6C161.7 52.6 163.4 52.9 165.4 54.2C166 54.5 167.4 55.8 168.2 58C169.6 62.3 166.5 68 162.1 69.4C160.7 69.9 159.3 69.7 158.5 69.7C158.1 70.5 157.4 71.8 156 72.8C153.9 74.4 151.7 74.5 149.7 74.7C148.3 74.8 145.3 74.9 142 73.3C139.8 72.2 138.3 70.7 137.5 69.8Z" fill="#9AB130"/>
<path d="M153.5 57.6C153.8 57.3 152.7 55.4 151 54.4C149.9 53.6 149 53.3 148.5 53.3C148.8 53 149.1 52.5 149.3 51.7C149.6 49.8 148.2 48.5 147.9 48.5C147.9 48.5 148.7 49.9 148.2 51.2C148.2 51.7 147.9 52 147.6 52.3C147.3 52.3 146.8 52 145.9 52C145.1 52 145.1 52 145.1 52C145.1 52.3 145.4 52.5 147.3 54.2C147 54.2 145.9 54.2 145.1 54.7C144 55.2 143.7 56.3 143.7 56.6C144.3 56.6 144.5 56.3 145.1 56.3C145.9 56 147.1 55.8 148.4 56C151.2 55.4 153.2 57.8 153.5 57.6Z" fill="#C2DC5B"/>
<path d="M133.6 60C133.9 59.5 134.4 58.6 135 57.8C135.3 57.3 136.4 56.4001 137.5 55.6C138.9 54.8 140.3 54.2 141.7 54C143.1 53.5 144.8 53.2001 144.8 53.2001C144.8 52.9001 142 53.7 141.2 52.4C140.9 51.9 140.9 51 140.9 50C140.9 49.7 141.2 48.6 141.5 47.6C142.6 44.9 146 43.8 146.2 43.8C145.4 43.8 143.1 44.1 141.2 45.4C139.5 46.5 138.7 48.1 138.4 48.6C138.1 49.1 137.6 50.5001 137.3 52.1C137.3 52.9001 137.3 53.5 137.3 54C136.7 54.5 135.6 55.4001 134.5 56.7001C133.9 57.8001 133.6 59.4 133.6 60Z" fill="#C2DD4C"/>
<path d="M134.8 58.4C135.1 57.6 135.9 56.2 137.6 54.9C140.7 52.7 144 53 144.9 53.3C144.3 53.3 143.8 53.6 142.9 53.8C142.6 53.8 140.4 54.6 139.6 54.9C138.4 55.4 136.7 56.2 134.8 58.4Z" fill="#C2DC5B"/>
<path d="M148.2 76.2C149 77.3 149.6 77.8 150.2 78.9C150.8 80 150.8 81.1 150.5 81.9C151.6 81.9 152.7 81.9 153.6 81.9C153.3 81.1 153.3 79.7 153.6 78.1C154.2 75.4 155.6 73.8 156.1 73C156.4 71.9 156.9 70.8 157.2 69.8C156.1 71.7 154.7 73.9 153.6 75.8C153.3 75 153 74.2 153 73.4C152.4 70.2 152.7 67.2 153 65C152.7 66.1 152.2 66.9 151.9 68C151.9 70.4 151.6 72.9 151.3 75.6C151.3 76.4 151 77.2 151 78C150.4 77.7 150.2 77.2 149.6 76.9C147.9 75.3 147.1 73.4 146.5 72C147 74.1 147.6 75.4 148.2 76.2Z" fill="#A57B66"/>
<g opacity="0.15">
<g opacity="0.15">
<path opacity="0.15" d="M199.6 65.3C199.8 65.7 201.1 67.7 203.5 68.5C205.7 69.1 208.5 68.4 209.9 66.7C212.6 63.6 210.3 57.8 208 52.5C206.8 49.5 204.8 44.8 203.1 45C202.4 45.1 202.1 46 200.2 55.1C198.7 61.2 198.4 63.3 199.6 65.3Z" fill="black"/>
<path opacity="0.15" d="M198.8 63.6C199.1 64.1 200 65.2 201.1 65.2C202.2 65.2 203.3 64.3 204.2 63.5C205 62.7 204.9 62.4 205.6 62.1C206.5 61.4 207.5 61.3 208.2 61.4C208.3 61.2 208.6 60.8 208.8 60.3C209.4 59 208.9 57.6 208.2 55.5C206.6 51.4 205.9 49.3 204 46.9C203.5 46.1 202.9 45.6 202.5 45.1C202.6 45.1 202.9 45.2 203.1 45.3C204.3 45.7 204.8 46.8 205.2 47.2C206.2 48.9 207 50.7 207.2 51.4C208.7 55 209.6 55.6 210.2 58.4C210.3 59 210.4 59.4 210.5 60.1C210.7 61.8 211.1 65.5 208.6 67.6C206.6 69.2 203.4 69.3 201.1 67.8C199.7 66.3 199 64.2 198.8 63.6Z" fill="black"/>
</g>
<path opacity="0.15" d="M204.1 58.3C204.5 60.7 204.7 62.7 204.8 64.1C204.9 64.9 204.9 64.9 204.9 66.1C205 68.1 205.1 69.5 205.3 71.6C205.4 72.9 205.6 74.7 205.9 77.5C206.5 77.4 206.9 77.4 207.5 77.3C207 75.4 206.7 73.2 206.5 70.8C206.3 69 206.3 67.3 206.3 65.7C206.4 65.1 206.5 64.5 206.7 63.8C206.9 63.1 207.1 62.5 207.4 62C207.4 61.7 207.3 61.3 207.3 61C206.9 61.7 206.7 62.5 206.4 63.2C206.2 63.7 206.1 64.2 205.8 64.7C205.5 63.6 205.3 62.5 205.2 61.2C205.1 59.8 204.9 58.4 204.9 57.1C204.5 57.8 204.4 57.9 204.1 58.3Z" fill="black"/>
<path opacity="0.15" d="M206.3 58.2C206 59.2 206.5 60.1999 206.9 60.0999C207.3 60.1999 207.9 59.6999 208.2 58.7999C208.2 58.7999 208.6 59.9 208 60.5C207.6 61 206.8 61.2 206.3 61C206 60.7 206 60.5 205.9 60C205.9 59.6 205.8 59.1999 206 59.0999C205.9 58.5999 206.1 58.3 206.3 58.2Z" fill="black"/>
</g>
<path d="M200.9 64.6C201 65 202.2 67.2 204.4 68.1C206.5 69 209.4 68.5 210.9 67C213.9 64.2001 212.2 58.2001 210.5 52.7001C209.6 49.6001 208.1 44.8 206.4 44.8C205.7 44.8 205.3 45.7001 202.4 54.6C200.4 60.5 199.9 62.5 200.9 64.6Z" fill="#ADCE52"/>
<path d="M200.3 62.9C200.6 63.5 201.3 64.6 202.4 64.7C203.5 64.8 204.7 64 205.7 63.3C206.6 62.6 206.6 62.3 207.3 62C208.3 61.4 209.3 61.4 210 61.6C210.1 61.5 210.4 61 210.7 60.6C211.4 59.3 211.1 57.9 210.6 55.8C209.5 51.5 208.9 49.4 207.3 46.9C206.9 46 206.3 45.5 206 44.9C206.1 44.9 206.4 45 206.6 45.2C207.7 45.8 208.2 46.9 208.4 47.3C209.3 49.1 209.8 51 210 51.7C211.1 55.4 212 56.1 212.3 58.9C212.3 59.5 212.4 59.9 212.4 60.6C212.4 62.3 212.4 66 209.7 67.8C207.6 69.2 204.3 68.9 202.2 67.2C200.9 65.6 200.4 63.5 200.3 62.9Z" fill="#9AB130"/>
<path d="M206.1 58.1001C206.2 60.5001 206.2 62.5001 206.2 63.9001C206.2 64.8001 206.2 64.8001 206.1 65.9001C206 67.9001 206 69.3001 206 71.4001C206 72.7001 206 74.5001 206 77.4001C206.6 77.4001 207 77.4001 207.6 77.4001C207.3 75.4001 207.2 73.3001 207.3 70.9001C207.3 69.1001 207.4 67.4001 207.6 65.8001C207.7 65.2001 207.9 64.7001 208.2 64.0001C208.5 63.3001 208.8 62.7001 209.1 62.3001C209.1 62.0001 209.1 61.6001 209.1 61.3001C208.7 62.0001 208.4 62.7001 208 63.4001C207.7 63.8001 207.6 64.4001 207.3 64.8001C207.2 63.7001 207 62.5001 207 61.3001C207 59.9001 207 58.5001 207.1 57.2001C206.5 57.7001 206.4 57.8001 206.1 58.1001Z" fill="#A57B66"/>
<path d="M208.2 58.2001C207.8 59.2001 208.2 60.2001 208.6 60.2001C209 60.3001 209.6 59.9001 210 59.1001C210 59.1001 210.3 60.2001 209.6 60.8001C209.2 61.2001 208.3 61.4001 207.9 61.1001C207.6 60.8001 207.6 60.5001 207.6 60.1001C207.6 59.7001 207.6 59.2001 207.7 59.2001C207.8 58.6001 208.1 58.4001 208.2 58.2001Z" fill="#9AB130"/>
<g opacity="0.15">
<g opacity="0.15">
<g opacity="0.15">
<path opacity="0.15" d="M166.9 90.7C166.8 91.4 166.2 91.5 166 92.3C166 92.3 165.8 93 165.9 93.9C166.1 95.7 168.3 98 171.2 98.4C171.9 98.5 174.3 98.7 175.9 97.1C176.4 96.5 176.7 96 176.9 95.6C177.2 95.5 178.2 95.6 179 94.8C179.6 94.3 179.8 93.7 180 93.3C180.1 92.8 180.8 91.3 179.8 89.9C179.1 88.9 177.8 88.3 176.6 88.5C174.9 86.3 172.4 85.2 170.2 85.7C170 85.7 167.7 86.3 167.1 87.8C166.8 88.6 166.8 89.3 166.8 89.3C166.8 90 167 90.2 166.9 90.7Z" fill="black"/>
<path opacity="0.15" d="M168.5 97.1C168.6 97 169.9 97.6 171.8 97.2C173.5 96.9 174.5 96 174.7 95.8C175.5 95.1 176 94.4 176.2 93.9C176.3 93.9 177.7 94.3 178.8 93.3C179.6 92.6 179.9 91.5 179.7 90.5C179.4 89.6 178.7 89.1 178.5 89C178.3 88.9 178.2 88.8 178.1 88.8C177.4 88.6 176.9 88.6 176.7 88.6C175.8 88.6 175.3 87.6 174.5 86.9C173.9 86.4 172.8 85.8 171 85.7C171.5 85.6 173.1 85.6 174.7 86.5C175.7 87.1 176.3 87.9 176.6 88.4C176.9 88.3 177.6 88.3 178.6 88.7C178.8 88.8 179.5 89.2 180 90C180.9 91.6 180.1 94.2 178.4 95.1C177.9 95.4 177.3 95.4 176.9 95.5C176.7 95.9 176.5 96.3 176 96.8C175.1 97.7 174.2 98 173.8 98.1C171.1 98.9 168.4 97.4 168.5 97.1Z" fill="black"/>
</g>
<path opacity="0.15" d="M173.8 90.9999C173.9 90.8999 173.3 90.1999 172.5 89.8999C172 89.6999 171.6 89.5999 171.4 89.6999C171.5 89.5999 171.6 89.2999 171.6 88.9999C171.6 88.1999 170.9 87.7999 170.8 87.7999C170.8 87.7999 171.3 88.2999 171.1 88.8999C171.1 89.0999 171.1 89.2999 171 89.3999C170.9 89.3999 170.6 89.3999 170.3 89.3999C170 89.3999 170 89.3999 170 89.3999C170 89.4999 170.2 89.5999 171.1 90.0999C171 90.0999 170.5 90.1999 170.2 90.4999C169.8 90.7999 169.8 91.2999 169.8 91.3999C170 91.3999 170.1 91.1999 170.3 91.1999C170.6 90.9999 171.1 90.7999 171.6 90.7999C172.7 90.2999 173.7 91.0999 173.8 90.9999Z" fill="black"/>
<path opacity="0.15" d="M166 93.6C166.1 93.4 166.2 93 166.4 92.6C166.5 92.4 166.9 91.9 167.2 91.5C167.7 91.1 168.2 90.7 168.8 90.5C169.3 90.2 170 89.9 170 89.9C170 89.8 168.9 90.3 168.5 89.9C168.3 89.7 168.3 89.4 168.2 88.9C168.2 88.8 168.2 88.3 168.2 87.9C168.4 86.7 169.7 86 169.8 86C169.5 86.1 168.6 86.4 167.9 87.1C167.3 87.7 167.1 88.4 167 88.7C166.9 89 166.8 89.5 166.8 90.2C166.9 90.5 166.9 90.8 167 91C166.8 91.3 166.4 91.7 166.1 92.3C165.9 92.7 165.9 93.4 166 93.6Z" fill="black"/>
<path opacity="0.15" d="M166.3 92.9C166.3 92.5 166.6 91.9 167.1 91.2C168.2 90.1 169.6 89.9 169.9 89.9C169.7 89.9 169.5 90.1 169.1 90.3C169 90.3 168.1 90.8 167.8 91C167.5 91.3 166.9 91.8 166.3 92.9Z" fill="black"/>
</g>
<path opacity="0.15" d="M173.2 99C173.6 99.4 173.9 99.5 174.2 99.9C174.5 100.3 174.6 100.7 174.6 101.1C175.1 101 175.5 100.9 175.8 100.8C175.6 100.5 175.5 99.9 175.5 99.3C175.5 98.2 175.9 97.4 176.1 97C176.1 96.5 176.3 96.1 176.3 95.6C176 96.5 175.6 97.5 175.3 98.3C175.1 98 174.9 97.7 174.9 97.4C174.4 96.1 174.3 94.9 174.2 94C174.2 94.5 174 94.8 174 95.3C174.2 96.3 174.3 97.3 174.4 98.4C174.5 98.7 174.4 99.1 174.5 99.4C174.3 99.3 174.1 99.1 173.8 99.1C173 98.6 172.5 97.9 172.2 97.4C172.6 98.2 172.9 98.7 173.2 99Z" fill="black"/>
</g>
<path d="M169.3 89.2C169.1 89.9 168.5 89.9 168.1 90.5C168.1 90.5 167.8 91.1999 167.6 92.0999C167.5 93.8999 169.1 96.5999 171.9 97.5999C172.6 97.7999 174.9 98.5 176.8 97.3C177.4 96.9 177.8 96.3999 178.1 96.0999C178.4 96.0999 179.4 96.3 180.3 95.8C181 95.5 181.3 94.8999 181.6 94.5999C181.8 94.1999 182.8 92.7999 182.1 91.1999C181.6 90.0999 180.5 89.3 179.2 89.2C177.9 86.7 175.7 85.2 173.5 85.2C173.3 85.2 171 85.3 170 86.7C169.5 87.4 169.4 88.2 169.4 88.2C169.3 88.5 169.5 88.8 169.3 89.2Z" fill="#ADCE52"/>
<path d="M169.4 96C170.1 96.3 171.3 96.6999 172.8 96.5999C173.2 96.5999 174.3 96.5999 175.4 96.0999C175.7 95.9999 175.8 95.9 175.9 95.9C176.8 95.3 177.4 94.8 177.8 94.3C177.9 94.3 179.2 94.9999 180.5 94.1999C181.4 93.5999 181.9 92.5999 181.9 91.5999C181.8 90.6999 181.2 90 181 89.9C180.9 89.8 180.7 89.6999 180.6 89.5999C180 89.2999 179.5 89.1999 179.2 89.0999C178.3 88.8999 178.1 87.9 177.4 87C176.9 86.4 176 85.6 174.3 85.2C174.8 85.3 176.4 85.5 177.7 86.7C178.6 87.5 179 88.4 179.2 88.9C179.5 88.9 180.2 88.9999 181.1 89.5999C181.5 89.8999 182 90.3999 182.3 91.1999C182.9 93.0999 181.6 95.5999 179.8 96.0999C179.2 96.2999 178.6 96.2 178.2 96C178 96.3 177.7 96.7999 177.2 97.1999C175.9 98.1999 174.4 98.1 173.7 98C171.4 97.8 169.9 96.5 169.4 96Z" fill="#9AB130"/>
<path d="M176 90.9C176.1 90.8 175.7 89.9999 175 89.5999C174.5 89.2999 174.2 89.2 174 89.2C174.1 89.1 174.2 88.9 174.3 88.5C174.4 87.7 173.8 87.2 173.7 87.2C173.7 87.2 174 87.7999 173.8 88.2999C173.8 88.4999 173.7 88.6 173.6 88.7C173.5 88.7 173.3 88.5999 172.9 88.5999C172.5 88.5999 172.6 88.5999 172.6 88.5999C172.6 88.6999 172.7 88.8 173.5 89.5C173.4 89.5 172.9 89.5 172.6 89.7C172.1 89.9 172 90.4 172 90.5C172.2 90.5 172.3 90.4 172.6 90.4C172.9 90.3 173.4 90.2 174 90.3C175.1 90 175.9 91 176 90.9Z" fill="#C2DC5B"/>
<path d="M167.8 91.9C167.9 91.7 168.1 91.3 168.4 91C168.5 90.8 169 90.3999 169.4 90.0999C170 89.7999 170.6 89.5 171.1 89.4C171.7 89.2 172.4 89.0999 172.4 89.0999C172.4 88.9999 171.2 89.2999 170.9 88.7999C170.8 88.5999 170.8 88.1999 170.8 87.7999C170.8 87.6999 170.9 87.1999 171 86.7999C171.5 85.6999 172.9 85.2 173 85.2C172.7 85.2 171.7 85.3 170.9 85.9C170.2 86.3 169.9 87 169.7 87.2C169.6 87.4 169.4 88 169.2 88.7C169.2 89 169.2 89.3 169.2 89.5C169 89.7 168.5 90.0999 168 90.5999C167.9 90.9999 167.8 91.7 167.8 91.9Z" fill="#C2DD4C"/>
<path d="M168.2 91.2C168.3 90.9 168.7 90.3 169.4 89.7C170.7 88.8 172.1 88.9 172.4 89C172.2 89 171.9 89.1 171.6 89.2C171.5 89.2 170.6 89.5 170.2 89.6C169.7 90 169.1 90.3 168.2 91.2Z" fill="#C2DC5B"/>
<path d="M173.8 98.5999C174.1 98.9999 174.4 99.2999 174.6 99.6999C174.8 100.1 174.8 100.6 174.7 100.9C175.2 100.9 175.6 100.9 176 100.9C175.9 100.6 175.9 99.9999 176 99.2999C176.2 98.1999 176.8 97.4999 177 97.1999C177.1 96.7999 177.3 96.2999 177.5 95.8999C177 96.6999 176.5 97.5999 176 98.3999C175.9 98.0999 175.8 97.6999 175.8 97.3999C175.6 96.0999 175.7 94.7999 175.8 93.8999C175.7 94.2999 175.5 94.6999 175.3 95.0999C175.3 96.0999 175.2 97.0999 175.1 98.1999C175.1 98.4999 175 98.8999 175 99.1999C174.8 99.0999 174.7 98.8999 174.4 98.7999C173.7 98.0999 173.4 97.2999 173.1 96.7999C173.3 97.6999 173.6 98.2999 173.8 98.5999Z" fill="#A57B66"/>
<g class="stfloating1">
	<path d="M290.9 60.1C297.7 81.5 283.1 99 282.3 99.9C272.5 111.5 262.7 123.1 252.8 134.6C242.8 122.2 232.7 109.8 222.7 97.4C222 96.5 208 78.8 215.6 57.9C221.3 42.4 236.5 31.4 253.7 31.8C271.5 32.2 286 44.7 290.9 60.1Z" fill="#CD2900"/>
	<path d="M252.8 85.4C262.686 85.4 270.7 77.3859 270.7 67.5C270.7 57.6141 262.686 49.6 252.8 49.6C242.914 49.6 234.9 57.6141 234.9 67.5C234.9 77.3859 242.914 85.4 252.8 85.4Z" fill="#891D00"/>
</g>
</svg>
