<?xml version="1.0" encoding="utf-8"?>
<!-- Generator: Adobe Illustrator 24.1.2, SVG Export Plug-In . SVG Version: 6.00 Build 0)  -->
<svg version="1.1" id="Слой_1" xmlns="http://www.w3.org/2000/svg" xmlns:xlink="http://www.w3.org/1999/xlink" x="0px" y="0px"
	 viewBox="0 0 349.9 348.8" style="enable-background:new 0 0 349.9 348.8;" xml:space="preserve">
<style type="text/css">
	.st0{fill-rule:evenodd;clip-rule:evenodd;fill:#DFF9FF;}
	.st1{fill:#8C6239;}
	.st2{fill:#A67C52;}
	.st3{fill:#754C24;}
	.st4{fill:#B8E0FF;}
	.st5{fill:#9BAD4F;}
	.st6{fill:#ADCE52;}
	.st7{fill:#9AB130;}
	.st8{fill:#C2DC5B;}
	.st9{fill:#C2DD4C;}
	.st10{fill:#A57B66;}
	.st11{fill:#ABCD2D;}
	.st12{fill:#819F00;}
	.stfloating{
	 animation: floatAnim 5s ease-in-out infinite;
	}
	@keyframes floatAnim { 
     0% {
          transform: translate(0,0px);
        }
        50% {
          transform: translate(0,15px);
        }
        100% {
          transform: translate(0,0px);
        }
	}
} 
</style>
<path class="st0" d="M122.8,36.6c33-4.7,55.7,34,88,42.7c34.3,9.3,75.8-13.3,103.4,9c28.3,22.8,42,66,32.9,101.1
	c-8.8,34.2-55.6,40.7-76.8,68.9c-19.9,26.4-11.1,74.2-41.3,87.5c-29.8,13.1-59.3-20.7-90.7-29.3c-32.9-9-71.7,0.3-97.3-22.3
	c-27.4-24.2-41.8-62.5-40.3-99c1.4-35.6,26.1-64.4,47.8-92.6C69.2,75.6,89.2,41.4,122.8,36.6z"/>
<g class="stfloating">
	<path class="st1" d="M29.9,220.7c-1.3,8.4,9.1,18.6,27,36c5.4,5.2,15,14.7,27.7,22.3c23.4,14,44.8,14.7,85.6,15.4
	c31.5,0.6,47.2,0.9,62.6-4.3c22.3-7.6,60.3-28.1,58.7-47.6c-2.3-27.9-85-42.4-134.8-45C101,194.5,33,200.7,29.9,220.7z"/>
<path class="st2" d="M48.2,225c1.3,8.1,3.7,14.1,5.6,18c4.4,9.1,9.8,15.1,19,24.9c4.2,4.5,7.8,8,10.3,10.3
	c-9.1-5.2-16.2-10.5-21.4-14.6c-8.7-7-17.5-14.2-25.4-26.6c-3.4-5.4-5.7-10.3-7.1-13.7c3.1-1.1,9.4-2.7,15.9,0
	C46.3,223.8,47.3,224.4,48.2,225z"/>
<path class="st3" d="M217.2,225c1.9,14.2,29.3,14.3,31.7,28.3c2.3,13.4-19.9,29.2-40.5,41.2c16.2-1.7,29-6,37.3-9.4
	c16.3-6.8,33.1-13.7,42.9-31.7c6.2-11.5,7.1-23.1,7.1-30c-6.2-17.7-19.7-29.9-34.9-31.7C237.4,188.8,215.2,211.2,217.2,225z"/>
<path class="st4" d="M302.5,213.8c-2.9-0.2-5.7-0.3-8.5-0.6c-89.4-0.5-178.6-1-268-1.5c-2.6-17.2-0.8-31,4.4-35.9
	c1.6-1.5,3.2-2.5,3.2-2.5c3.8-1.9,8.1-0.6,14.9-4.4c10.7-6.2,9.7-13.7,16.8-17.8c14.2-8.2,23,17.8,40.3,13c8.7-2.4,7.7-12.1,23-18.5
	c3.2-1.3,11.2-4.7,19.1-2.1c7.1,2.4,6.9,7.3,12.3,9.6c11.3,4.9,20.8-12.4,37.1-12.2c18.9,0.3,22.8,24,44,24.9
	c13.8,0.5,19.9-9.3,28.4-5.1c9.4,4.7,5.7,19,16.5,24c7,3.3,12.1-0.9,16.5,2.6C306.1,190,308.1,196.7,302.5,213.8z"/>
<path class="st5" d="M259.2,209.9c-70.6,0.3-141.1,0.6-211.7,0.9c2.7-6.9,7.1-14.8,14.3-16.8c7.9-2.2,11.6,4.8,21.4,3.4
	c9.8-1.4,11.4-9.2,22.2-12.9c5.2-1.8,12.7-2.7,23,0.9c4.3-6.2,11.4-9.2,18.3-7.7c9.9,2.1,13.5,12.3,13.6,12.9c1.3,0,2.6,0,3.9,0
	c1.3-1.8,4.5-7,12.3-10.2c11.7-4.9,25.4-0.4,26.7,0c2.9,0.9,3.2,1.5,6.9,3.1c19.5,8.7,29.4,4.4,39.4,12.3
	C252.4,198.3,256.2,202.4,259.2,209.9z"/>
<path class="st6" d="M116,44.2c-1.8,1.3-3.5,2.7-5.3,4.2c-2.3,1.9-4.3,3.7-6,5.6c-1.1,1.9-2.6,4.6-3.8,8.3c0,0-1.8,5.6-1.5,11.8
	c0.3,9.1,12.2,38.2,43.1,48.2c4.4,1.4,29.9,9.7,49.4-3.2c6-4.1,9.6-8.9,11.7-12.4c2.6,0.6,13,2.5,23.6-2.8
	c7.5-3.8,11.4-9.4,12.9-11.9c2.4-4.3,11.8-17.4,4.6-32.5c-4.6-10.9-16.4-18.4-29.3-19.6c-12.9-24.1-35.2-39.3-57.5-39.3
	c-2.4,0-25.8,1-35.2,14.1c-4.6,6.5-5.9,14.1-5.9,14.1c-0.6,4.3-1.1,6.9-1.5,8.7c0,0.1,0,0.2-0.1,0.5C114.9,40.6,115.4,42.7,116,44.2
	z"/>
<path class="st7" d="M116.7,105.8c1.1-1,12.9,7.6,32.8,7.6c17.7,0,29.3-6.5,31.7-7.6c9.4-5.4,15.3-10.9,18.8-15.2
	c1.1,0,14,6.5,27.1-1c9.4-5.4,14-15.2,14-25c-1.1-8.7-7-15.2-9.4-16.3c-5.9-5.4-9.4-3.2-17.7-7.6c-7.9-4.2-10.5-12.4-16.4-20.6
	c-4.6-6.4-13.5-14.1-32.3-18.9c5.9,0.9,20.7,4.1,33.6,15.6c8.9,8,13.3,16.7,15.3,21.7c3.5,0,10.5,1,18.8,6.5
	c3.3,2.2,9.3,7.1,12.5,15.1c5.8,14,0.3,31.7-13.5,40.9c-11.7,7.8-24.8,6.5-28.4,6c-2.1,3.1-5.9,7.9-12,12c0,0-10.4,7.1-24.7,8.3
	C139.8,129.6,118.9,108,116.7,105.8z"/>
<path class="st8" d="M183.7,58.1c1.1-1-3.5-8.7-10.5-13c-4.6-3.2-8.3-4.3-10.5-4.3c1.1-1,2.4-3.2,3.5-6.5c1.1-7.6-4.6-13-5.9-13
	c0,0,3.5,5.4,1.1,10.9c0,2.2-1.1,3.2-2.4,4.3c-1.1,0-3.5-1-7-1c-3.5,0-3.5,0-3.5,0c0,1,1.1,2.2,9.4,8.7c-1.1,0-5.9,0-9.4,2.2
	c-4.6,2.2-5.9,6.5-5.9,7.6c2.4,0,3.5-1,5.9-1c3.5-1,8.3-2.2,14-1C173.1,49.4,181.4,59.1,183.7,58.1z"/>
<path class="st9" d="M99.4,73.9c0.3-2.4,1.1-6,3.4-10.1c1.3-2.3,2.8-3.7,3.4-4.7c1.1-2.2,5.9-5.4,10.5-8.7c2.1-1.4,4.9-2.9,8.1-4.3
	c3.4-1.4,6.4-2.2,9-2.8c8.1-1.7,13.4-2.8,13.4-2.8c-12.8,0-15.3-3.2-15.3-3.2c-2-2.7-1.4-7.6-1.1-9.7c0-0.5,0.1-0.9,0.3-1.6
	c0,0,0.8-4.6,2.1-8.2c1.3-3.6,8-10.3,18.7-16.7C148.3,1.2,139,1.9,130.3,8c-2.6,1.9-7.8,5.8-11.3,12.5c-4.1,8-3.9,15.5-3.8,19.3
	c0.1,1.6,0.3,3,0.4,3.9c-1.3,0.9-3,2.4-5,4.2c-2.3,2-5.8,5.4-6.8,6.6C99.3,60,99.4,71,99.4,73.9z"/>
<path class="st8" d="M105,60.3c1.4-3.2,4.8-9.3,11.8-14.1c13-8.9,28.2-5.9,30.7-5.4c-1.1,0.2-2.4,0.5-3.8,0.7
	c-1.6,0.2-3.3,0.3-4.6,0.3c-1.1,0-10.5,3.2-14,4.3C120.2,48.2,113.2,51.6,105,60.3z"/>
<path class="st7" d="M134.3,196.8c-1.6-0.7-8,3.4-7.4,7.4c0.4,1.5,1.9,3.2,3.5,2.9C133.9,206.3,135.9,197.4,134.3,196.8z"/>
<path class="st7" d="M247.6,199.6c0.8,0.8,8.6,1.3,11-0.8c0.8-0.8,0.8-2.1-0.8-2.4C254.7,195.5,246.8,198.8,247.6,199.6z"/>
<path class="st7" d="M113.2,136.2c-1.1,1.3,1.5,8,6,8.5c1.8,0,3.8-0.9,3.9-2.4C123.1,139,114.2,135,113.2,136.2z"/>
<path class="st7" d="M231.9,19c-0.8-0.7-4.9,0.7-7.3,3c-2.4,2.2-4,5.9-3.3,6.7c0.8,0.7,4.9-0.7,6.4-3C231,23.4,232.7,19.7,231.9,19z
	"/>
<path class="st7" d="M232.7,30.2c4-0.7,8.9,0,8.9,0.7c0,0.7-4,3-8,3c-3.3,0.7-8,0-8-0.7C225.5,33.2,229.5,31,232.7,30.2z"/>
<path class="st10" d="M194,103.7c-6.1,6.1-5.5,10.4-6.1,12.9c-0.2,0.8-6,8.9-6.8,9.8s-5.2,5.9-8.2,7.9c-1.6-4.4-2.8-9.8-2.7-15.9
	c0.3-10.5,4.3-19.1,8.1-25c-3.6,2.8-7.1,5.5-10.8,8.3c-2.3,8.6-4.5,17.2-6.7,25.8c-9.8-12.1-19.6-24-29.4-36.1
	c1.1,3.3,3,8.3,6.5,14.1c4.3,7,8.6,11,12.1,15.2c8.6,10.1,11.3,19,13.5,25.8c3.5,11.5,0.8,17-2.7,39.4c-1.3,8.3-3,20.6-4,35.7
	c5.4-0.2,10.8-0.5,16.2-0.8c-4.9-36-0.6-63.8,7-79.1c1.2-6.2,6.8-14.7,9.8-20.3c1.8-6.8,2.5-12.3,2.5-12.3
	C194,105.5,193.4,107.3,194,103.7z"/>
<path class="st11" d="M306,214.2c0.2,2.8-1.1,5.7-3.1,6.4c-46.1,0-92.2-0.1-138.3-0.2c-30.6-0.1-126.6,7.9-138.3-0.2
	c-1.1-0.8-4.2-2.8-4.2-5.7c0-2.6,2.6-4.6,4.2-5.6c4.9,0,9.8,0,14.8,0c5.1,0,10.2,0,15.3,0.1c0.6-4.3,4-7.4,7.8-7.3
	c3.7,0.1,6.9,3,7.5,7.1c0.5,0,1.2,0,2.1-0.1c43.8-1.2,74-0.3,137.3,0.3c13.8,0.1,25,0.3,31.1,0.3c2.6-4.1,7-6.3,11.3-5.9
	c5.7,0.6,8.6,5.5,9,6.1c1.5-7.1,7.6-11.1,12.4-9.5c3.4,1,6.1,4.8,6.6,9.4c7.1-0.1,14.3-0.1,21.4-0.2C304.7,210,305.8,212,306,214.2z
	"/>
<path class="st12" d="M233,217.7c-1.2-2.7-3.3-4.3-5.7-4.6c-2.7,0-5.4,1.6-6.3,4.6c-0.9-4.3-4.8-7.3-8.7-6.9
	c-3.3,0.3-6.3,3.3-6.9,6.9H98.3c-0.7-0.8-3.4-3.4-7.7-3.9c-5-0.4-8.5,2.6-9.2,3.2c-1.2-2.3-3.9-3.9-6.3-3.6c-2.4,0.3-4.8,2-5.7,4.6
	c-12.9,0-26.1,0-39.1,0c-0.4,0-1.6,0-2.5,0.8c-1.3,1.1-1.2,3.2-0.4,4.5c0.8,1.2,2.1,1.5,2.5,1.7c4.9,0,9.8,0,14.8,0
	c1.4,2.9,4.5,4.6,7.7,4.3c2.6-0.3,4.9-2,5.9-4.3c-0.2,3.6,2.7,6.6,6.1,6.9c3.8,0.3,7.6-2.8,7.4-6.9c17.2,0,34.4,0,51.6,0
	c8,0,16,0,23.9,0c5.5,0,11,0,16.5,0c44.2,0,88.3,0,132.5,0c1.7-0.6,2.7-2.1,2.7-3.6c0-2-1.2-3.3-2.7-3.6L233,217.7L233,217.7z"/>
</g>

</svg>
