<?xml version="1.0" encoding="UTF-8" standalone="no"?>
<svg
   xmlns:dc="http://purl.org/dc/elements/1.1/"
   xmlns:cc="http://creativecommons.org/ns#"
   xmlns:rdf="http://www.w3.org/1999/02/22-rdf-syntax-ns#"
   xmlns:svg="http://www.w3.org/2000/svg"
   xmlns="http://www.w3.org/2000/svg"
   viewBox="0 0 280 144.336"
   preserveAspectRatio="none"
   id="svg2"
   version="1.1"><metadata
     id="metadata8"><rdf:RDF><cc:Work
         rdf:about=""><dc:format>image/svg+xml</dc:format><dc:type
           rdf:resource="http://purl.org/dc/dcmitype/StillImage" /></cc:Work></rdf:RDF></metadata><defs
     id="defs6"><clipPath
       id="clipPath20"
       clipPathUnits="userSpaceOnUse"><path
         id="path18"
         d="M 0,108.252 H 210 V 0 H 0 Z" /></clipPath></defs><g
     transform="matrix(1.3333333,0,0,-1.3333333,0,144.336)"
     id="g10"><path
       id="path12"
       style="fill:#dff9ff;fill-opacity:1;fill-rule:nonzero;stroke:none"
       d="m 0,27.152 h 210 v 81.1 H 0 Z" /><g
       id="g14"><g
         clip-path="url(#clipPath20)"
         id="g16"><g
           transform="translate(31.8379,89.2524)"
           id="g22"><path
             id="path24"
             style="fill:#eefcff;fill-opacity:1;fill-rule:nonzero;stroke:none"
             d="m 0,0 c 0.8,0.3 3.7,1.3 6.899,0.1 3,-1.2 4.399,-3.6 5.1,-4.7 1,-1.7 1.399,-3.3 1.599,-4.3 0.6,0.3 2.8,1.4 5.5,0.8 3.799,-0.9 5.299,-4.4 5.499,-4.8 0.1,0.2 0.799,1.3 2.099,1.6 1.3,0.2 2.7,-0.6 3.3,-2.1 0.4,0.5 2.9,4.2 7.699,4.7 5.899,0.6 9.498,-4.2 9.699,-4.4 1.099,1.5 2.499,2.9 3.599,2.6 3.9,-1.1 7.199,-25.2 -5.699,-38.1 C 34.795,-59.1 15.598,-60.4 0,-50 Z" /></g><g
           transform="translate(0,79.9258)"
           id="g26"><path
             id="path28"
             style="fill:#eefcff;fill-opacity:1;fill-rule:nonzero;stroke:none"
             d="m 0,0 c 0.853,0.371 2.153,0.779 3.726,0.685 4.391,-0.264 6.876,-4.214 7.171,-4.7 0.559,1.5 1.862,2.3 3.073,2.1 1.211,-0.3 1.863,-1.4 1.956,-1.6 0.186,0.4 1.583,3.9 5.122,4.8 2.515,0.6 4.564,-0.5 5.123,-0.8 0.186,1 0.558,2.6 1.49,4.3 0.652,1.1 1.956,3.5 4.75,4.7 2.98,1.2 5.681,0.2 6.426,-0.1 v -50 C 25.892,-41.19 12.946,-41.767 0,-42.342 Z" /></g><g
           transform="translate(209.8916,37.9463)"
           id="g30"><path
             id="path32"
             style="fill:#eefcff;fill-opacity:1;fill-rule:nonzero;stroke:none"
             d="m 0,0 c -9.977,-7.213 -25.627,-7.396 -38.532,1.187 -0.031,15.29 -0.064,30.579 -0.096,45.869 0.589,0.166 1.404,0.341 2.391,0.389 0.263,0.013 1.024,0.039 2.008,-0.091 0.13,-0.017 1.421,-0.193 2.481,-0.609 2.308,-0.906 3.513,-2.946 4.199,-4.107 0.493,-0.834 1.139,-2.158 1.464,-3.926 0.55,0.274 2.564,1.279 5.034,0.731 3.478,-0.822 4.851,-4.018 5.034,-4.383 0.091,0.183 0.732,1.187 1.922,1.461 1.19,0.183 2.471,-0.548 3.021,-1.917 0.366,0.456 2.654,3.834 7.047,4.291 1.555,0.183 2.928,-0.091 4.119,-0.548" /></g><g
           transform="translate(178.1436,84.6914)"
           id="g34"><path
             id="path36"
             style="fill:#eefcff;fill-opacity:1;fill-rule:nonzero;stroke:none"
             d="m 0,0 c -0.691,0.274 -4.445,1.552 -8.199,-0.183 -0.692,-0.365 -3.161,-1.461 -4.149,-4.017 -0.691,-1.735 -0.494,-3.196 -0.395,-3.926 -3.359,2.009 -5.334,2.009 -6.52,1.461 -2.074,-0.913 -2.371,-3.652 -4.148,-3.744 -1.186,0 -1.778,1.187 -3.458,1.005 -0.889,-0.092 -1.58,-0.457 -1.679,-0.548 -1.087,-0.548 -1.087,-1.187 -1.68,-1.278 -0.988,-0.274 -1.679,1.278 -3.457,2.374 -2.371,1.46 -5.136,1.187 -5.532,1.187 -2.964,-0.366 -4.741,-2.192 -5.334,-2.74 -0.889,-13.056 -1.679,-26.112 -2.568,-39.168 15.706,-0.548 31.413,-1.005 47.119,-1.553 z" /></g><g
           transform="translate(75.5317,70.7524)"
           id="g38"><path
             id="path40"
             style="fill:#ccf0ff;fill-opacity:1;fill-rule:nonzero;stroke:none"
             d="m 0,0 c 1.8,1.4 3.6,2.8 5.399,4.2 0.101,3 0.201,6 0.4,9 5.2,0 10.399,0.1 15.698,0.1 V 1 h 2.2 c 0,3.4 0.1,6.8 0.1,10.2 1.099,0 2.2,0.1 3.399,0.1 v 9.4 c 3.2,-0.1 6.399,-0.1 9.599,-0.2 1.1,-2 2.499,-5 2.999,-9 0.401,-2.6 0.3,-4.9 0.101,-6.7 0.899,0 1.899,0.1 2.799,0.1 0.1,-1.4 0.301,-2.7 0.4,-4.1 1,0 2.1,-0.1 3.1,-0.1 v 6.4 c 1.199,0 2.399,0 3.699,-0.1 V 5.9 h 5.1 V 7 h 3.599 V 0.8 h 7.799 c 0,-2.9 -0.1,-5.9 -0.1,-8.8 -0.1,-7.1 -0.1,-14.2 -0.2,-21.3 C 43.794,-29.8 21.497,-30.2 -0.7,-30.7 -0.3,-20.4 -0.1,-10.2 0,0" /></g><path
           id="path42"
           style="fill:#c8e7ff;fill-opacity:1;fill-rule:nonzero;stroke:none"
           d="m 88.33,81.052 h 1.4 v -11.5 h -1.4 z" /><path
           id="path44"
           style="fill:#c8e7ff;fill-opacity:1;fill-rule:nonzero;stroke:none"
           d="m 85.931,81.052 h 1.399 v -11.5 h -1.399 z" /><path
           id="path46"
           style="fill:#c8e7ff;fill-opacity:1;fill-rule:nonzero;stroke:none"
           d="m 90.93,81.052 h 1.4 v -11.5 h -1.4 z" /><path
           id="path48"
           style="fill:#c8e7ff;fill-opacity:1;fill-rule:nonzero;stroke:none"
           d="m 93.33,81.052 h 1.399 v -11.5 H 93.33 Z" /><path
           id="path50"
           style="fill:#c8e7ff;fill-opacity:1;fill-rule:nonzero;stroke:none"
           d="m 83.431,81.052 h 1.4 v -11.5 h -1.4 z" /><g
           transform="translate(81.04,54.2861)"
           id="g52"><path
             id="path54"
             style="fill:#c8e7ff;fill-opacity:1;fill-rule:nonzero;stroke:none"
             d="m 0,0 h -1 c 0,6.6 -0.1,13.2 -0.1,19.9 0.33,0.255 0.661,0.511 0.991,0.767 C -0.113,17.23 -0.106,13.774 -0.087,10.3 -0.069,6.848 -0.04,3.414 0,0" /></g><path
           id="path56"
           style="fill:#c8e7ff;fill-opacity:1;fill-rule:nonzero;stroke:none"
           d="m 105.828,88.552 h 1.9 v -1.1 h -1.9 z" /><path
           id="path58"
           style="fill:#c8e7ff;fill-opacity:1;fill-rule:nonzero;stroke:none"
           d="m 108.627,88.552 h 1.9 v -1.1 h -1.9 z" /><path
           id="path60"
           style="fill:#c8e7ff;fill-opacity:1;fill-rule:nonzero;stroke:none"
           d="m 108.627,86.152 h 1.9 v -1.5 h -1.9 z" /><path
           id="path62"
           style="fill:#c8e7ff;fill-opacity:1;fill-rule:nonzero;stroke:none"
           d="m 102.928,80.652 h 1.899 v -1.3 h -1.899 z" /><path
           id="path64"
           style="fill:#c8e7ff;fill-opacity:1;fill-rule:nonzero;stroke:none"
           d="m 105.828,77.552 h 1.9 v -1.3 h -1.9 z" /><path
           id="path66"
           style="fill:#c8e7ff;fill-opacity:1;fill-rule:nonzero;stroke:none"
           d="m 102.928,77.552 h 1.899 v -1.3 h -1.899 z" /><path
           id="path68"
           style="fill:#c8e7ff;fill-opacity:1;fill-rule:nonzero;stroke:none"
           d="m 123.925,73.453 h 1.9 v -1.3 h -1.9 z" /><path
           id="path70"
           style="fill:#c8e7ff;fill-opacity:1;fill-rule:nonzero;stroke:none"
           d="m 126.925,73.453 h 1.899 v -1.3 h -1.899 z" /><path
           id="path72"
           style="fill:#c8e7ff;fill-opacity:1;fill-rule:nonzero;stroke:none"
           d="m 130.225,73.453 h 1.899 v -1.3 h -1.899 z" /><path
           id="path74"
           style="fill:#c8e7ff;fill-opacity:1;fill-rule:nonzero;stroke:none"
           d="m 130.024,69.252 h 2.5 v -1.3 h -2.5 z" /><path
           id="path76"
           style="fill:#c8e7ff;fill-opacity:1;fill-rule:nonzero;stroke:none"
           d="m 130.225,71.353 h 1.899 v -1.3 h -1.899 z" /><path
           id="path78"
           style="fill:#c8e7ff;fill-opacity:1;fill-rule:nonzero;stroke:none"
           d="m 126.925,71.353 h 1.899 v -1.3 h -1.899 z" /><path
           id="path80"
           style="fill:#c8e7ff;fill-opacity:1;fill-rule:nonzero;stroke:none"
           d="m 139.923,69.853 h 0.7 v -8.2 h -0.7 z" /><path
           id="path82"
           style="fill:#c8e7ff;fill-opacity:1;fill-rule:nonzero;stroke:none"
           d="m 137.923,69.853 h 0.7 v -6.7 h -0.7 z" /><path
           id="path84"
           style="fill:#c8e7ff;fill-opacity:1;fill-rule:nonzero;stroke:none"
           d="m 136.224,69.853 h 0.699 v -4.6 h -0.699 z" /><path
           id="path86"
           style="fill:#c8e7ff;fill-opacity:1;fill-rule:nonzero;stroke:none"
           d="m 134.424,69.853 h 0.7 v -3.4 h -0.7 z" /><g
           transform="translate(121.7168,75.6523)"
           id="g88"><path
             id="path90"
             style="fill:#c9e8fe;fill-opacity:1;fill-rule:nonzero;stroke:none"
             d="M 0,0 C 4.1,0 8.199,-0.1 12.398,-0.1 V 2.2 H 8.799 V 1.1 h -5.1 V 2.2 C 3.103,2.208 2.498,2.212 1.888,2.212 1.254,2.213 0.628,2.208 0.009,2.2 Z" /></g><g
           transform="translate(96.9526,70.1758)"
           id="g92"><path
             id="path94"
             style="fill:#c9e8fe;fill-opacity:1;fill-rule:nonzero;stroke:none"
             d="M 0,0 C 1.3,0 2.5,0 3.799,0.1 V 11 c 1.2,0.1 2.5,0.1 3.7,0.2 v 10 h -1.7 v -9.3 c -1.1,0 -2.2,-0.1 -3.4,-0.1 0,-3.4 -0.1,-6.8 -0.1,-10.2 L 0.1,1.6 C 0,1 0,0.5 0,0" /></g><path
           id="path96"
           style="fill:#c9e8fe;fill-opacity:1;fill-rule:nonzero;stroke:none"
           d="m 141.923,70.953 h -7.799 v 0.6 h 7.799 z" /><g
           transform="translate(209.9834,26.9521)"
           id="g98"><path
             id="path100"
             style="fill:#c4e7ff;fill-opacity:1;fill-rule:nonzero;stroke:none"
             d="m 0,0 h -32.903 v 30.7 h 2.924 v -5.5 h 2.833 v 5.6 l 5.85,0.1 v -8 h 4.112 v 13.7 h 2.56 v 2 h 5.301 v -1.9 l 2.742,0.1 v -7.5 h 4.661 v 5.8 H 0" /></g><path
           id="path102"
           style="fill:#b7e0ff;fill-opacity:1;fill-rule:nonzero;stroke:none"
           d="m 199.289,62.252 h 1.188 v -2.2 h -1.188 z" /><path
           id="path104"
           style="fill:#b7e0ff;fill-opacity:1;fill-rule:nonzero;stroke:none"
           d="m 197.096,62.252 h 1.188 v -2.2 h -1.188 z" /><path
           id="path106"
           style="fill:#b7e0ff;fill-opacity:1;fill-rule:nonzero;stroke:none"
           d="m 195.085,62.252 h 1.188 v -2.2 h -1.188 z" /><path
           id="path108"
           style="fill:#b7e0ff;fill-opacity:1;fill-rule:nonzero;stroke:none"
           d="m 195.085,59.052 h 1.188 v -2.2 h -1.188 z" /><path
           id="path110"
           style="fill:#b7e0ff;fill-opacity:1;fill-rule:nonzero;stroke:none"
           d="m 195.085,55.853 h 1.188 v -2.2 h -1.188 z" /><path
           id="path112"
           style="fill:#b7e0ff;fill-opacity:1;fill-rule:nonzero;stroke:none"
           d="m 197.096,59.052 h 1.188 v -2.2 h -1.188 z" /><path
           id="path114"
           style="fill:#b7e0ff;fill-opacity:1;fill-rule:nonzero;stroke:none"
           d="m 197.096,55.853 h 1.188 v -2.2 h -1.188 z" /><path
           id="path116"
           style="fill:#b7e0ff;fill-opacity:1;fill-rule:nonzero;stroke:none"
           d="m 200.66,63.752 h 2.742 v -0.5 h -2.742 z" /><path
           id="path118"
           style="fill:#b7e0ff;fill-opacity:1;fill-rule:nonzero;stroke:none"
           d="m 195.359,65.618 h 5.301 v -0.5 h -5.301 z" /><path
           id="path120"
           style="fill:#b7e0ff;fill-opacity:1;fill-rule:nonzero;stroke:none"
           d="m 192.8,63.595 h 2.56 v -0.5 h -2.56 z" /><path
           id="path122"
           style="fill:#b7e0ff;fill-opacity:1;fill-rule:nonzero;stroke:none"
           d="m 182.838,57.902 h 5.85 v -0.5 h -5.85 z" /><g
           transform="translate(208.4473,62.1519)"
           id="g124"><path
             id="path126"
             style="fill:#b7e0ff;fill-opacity:1;fill-rule:nonzero;stroke:none"
             d="m 0,0 h 1.536 v -0.8 h -1.92 V 0 Z" /></g><g
           transform="translate(0.0127,63.0522)"
           id="g128"><path
             id="path130"
             style="fill:#c4e7ff;fill-opacity:1;fill-rule:nonzero;stroke:none"
             d="M 0,0 H 1.93 V -5.8 H 6.619 V 1.7 L 9.377,1.6 v 1.9 h 5.332 v -2 h 2.574 v -13.8 h 4.137 v 8 l 5.884,-0.1 V -10 h 2.85 v 5.5 h 2.942 V -35.1 H 0" /></g><path
           id="path132"
           style="fill:#b7e0ff;fill-opacity:1;fill-rule:nonzero;stroke:none"
           d="m 9.574,63.252 h 1.195 v -2.2 H 9.574 Z" /><path
           id="path134"
           style="fill:#b7e0ff;fill-opacity:1;fill-rule:nonzero;stroke:none"
           d="m 11.78,63.252 h 1.195 v -2.2 H 11.78 Z" /><path
           id="path136"
           style="fill:#b7e0ff;fill-opacity:1;fill-rule:nonzero;stroke:none"
           d="m 13.802,63.252 h 1.195 v -2.2 h -1.195 z" /><path
           id="path138"
           style="fill:#b7e0ff;fill-opacity:1;fill-rule:nonzero;stroke:none"
           d="m 13.802,60.052 h 1.195 v -2.2 h -1.195 z" /><path
           id="path140"
           style="fill:#b7e0ff;fill-opacity:1;fill-rule:nonzero;stroke:none"
           d="m 13.802,56.853 h 1.195 v -2.2 h -1.195 z" /><path
           id="path142"
           style="fill:#b7e0ff;fill-opacity:1;fill-rule:nonzero;stroke:none"
           d="m 11.78,60.052 h 1.195 v -2.2 H 11.78 Z" /><path
           id="path144"
           style="fill:#b7e0ff;fill-opacity:1;fill-rule:nonzero;stroke:none"
           d="m 11.78,56.853 h 1.195 v -2.2 H 11.78 Z" /><path
           id="path146"
           style="fill:#b7e0ff;fill-opacity:1;fill-rule:nonzero;stroke:none"
           d="M 6.632,64.752 H 9.39 v -0.5 H 6.632 Z" /><path
           id="path148"
           style="fill:#b7e0ff;fill-opacity:1;fill-rule:nonzero;stroke:none"
           d="m 9.39,66.594 h 5.332 v -0.5 H 9.39 Z" /><path
           id="path150"
           style="fill:#b7e0ff;fill-opacity:1;fill-rule:nonzero;stroke:none"
           d="m 14.722,64.626 h 2.574 v -0.5 h -2.574 z" /><path
           id="path152"
           style="fill:#b7e0ff;fill-opacity:1;fill-rule:nonzero;stroke:none"
           d="m 21.433,58.754 h 5.884 v -0.603 h -5.884 z" /><g
           transform="translate(1.5571,63.0522)"
           id="g154"><path
             id="path156"
             style="fill:#b7e0ff;fill-opacity:1;fill-rule:nonzero;stroke:none"
             d="m 0,0 h 0.386 v -0.8 h -1.93 V 0 Z" /></g><g
           transform="translate(31.7202,58.5522)"
           id="g158"><path
             id="path160"
             style="fill:#c4e7ff;fill-opacity:1;fill-rule:nonzero;stroke:none"
             d="m 0,0 h 3.6 v 4.2 c 0.2,1.4 1.4,2.4 2.699,2.2 1.1,-0.1 2,-1.1 2.1,-2.2 v -4 l 5.699,0.1 v -5.9 h 4.5 c 0,3.5 -0.1,7 -0.1,10.5 l 3.199,4.7 h 4.599 l 0.201,-11.7 4.299,-0.1 v 8.9 h 2.6 V 3.8 h 3.999 v 5.8 l 3,4.1 c 1.199,-1.4 2.399,-2.7 3.599,-4.1 -0.1,-4.6 -0.1,-9.1 -0.2,-13.7 h 9.399 V 6.6 h 6.799 V 3.5 H 70.89 v 3.1 h 5.499 v -3 h 1.8 v -4.3 l 6.8,1.4 v 3.4 c 1.499,1 2.999,1.9 4.598,2.9 h 5 v -9.9 h 7.699 v 6.5 h 10.598 v -5.8 h 5.1 v 7.5 l 2.999,-0.1 v 1.9 h 5.8 v -2 h 2.8 V -8.7 h 4.499 v 8 l 6.399,-0.1 v -5.6 h 3.1 v 5.6 h 3.199 V -31.4 H 0 Z" /></g><path
           id="path162"
           style="fill:#b7e0ff;fill-opacity:1;fill-rule:nonzero;stroke:none"
           d="m 35.02,57.853 h 1.1 v -9.4 h -1.1 z" /><path
           id="path164"
           style="fill:#b7e0ff;fill-opacity:1;fill-rule:nonzero;stroke:none"
           d="m 37.22,57.853 h 1.1 v -9.4 h -1.1 z" /><path
           id="path166"
           style="fill:#b7e0ff;fill-opacity:1;fill-rule:nonzero;stroke:none"
           d="m 39.319,57.853 h 1.1 v -9.4 h -1.1 z" /><g
           transform="translate(35.3198,62.7524)"
           id="g168"><path
             id="path170"
             style="fill:#b7e0ff;fill-opacity:1;fill-rule:nonzero;stroke:none"
             d="M 0,0 H 4.808 C 4.706,1.221 3.683,2.238 2.455,2.238 1.228,2.339 0.103,1.322 0,0" /></g><path
           id="path172"
           style="fill:#b7e0ff;fill-opacity:1;fill-rule:nonzero;stroke:none"
           d="m 53.217,64.652 h 1 v -2.1 h -1 z" /><path
           id="path174"
           style="fill:#b7e0ff;fill-opacity:1;fill-rule:nonzero;stroke:none"
           d="m 55.417,64.652 h 1 v -2.1 h -1 z" /><path
           id="path176"
           style="fill:#b7e0ff;fill-opacity:1;fill-rule:nonzero;stroke:none"
           d="m 53.217,61.353 h 1 v -2.1 h -1 z" /><path
           id="path178"
           style="fill:#b7e0ff;fill-opacity:1;fill-rule:nonzero;stroke:none"
           d="m 53.217,57.652 h 1 v -2.1 h -1 z" /><path
           id="path180"
           style="fill:#b7e0ff;fill-opacity:1;fill-rule:nonzero;stroke:none"
           d="m 67.615,58.052 h 1.7 v -1.2 h -1.7 z" /><path
           id="path182"
           style="fill:#b7e0ff;fill-opacity:1;fill-rule:nonzero;stroke:none"
           d="m 67.615,60.052 h 1.7 v -1.2 h -1.7 z" /><path
           id="path184"
           style="fill:#b7e0ff;fill-opacity:1;fill-rule:nonzero;stroke:none"
           d="m 64.416,60.052 h 1.7 v -1.2 h -1.7 z" /><path
           id="path186"
           style="fill:#b7e0ff;fill-opacity:1;fill-rule:nonzero;stroke:none"
           d="m 119.309,61.953 h 1.699 v -1.2 h -1.699 z" /><path
           id="path188"
           style="fill:#b7e0ff;fill-opacity:1;fill-rule:nonzero;stroke:none"
           d="m 119.309,59.752 h 1.699 v -1.2 h -1.699 z" /><path
           id="path190"
           style="fill:#b7e0ff;fill-opacity:1;fill-rule:nonzero;stroke:none"
           d="m 122.107,59.752 h 1.7 v -1.2 h -1.7 z" /><path
           id="path192"
           style="fill:#b7e0ff;fill-opacity:1;fill-rule:nonzero;stroke:none"
           d="m 122.107,61.953 h 1.7 v -1.2 h -1.7 z" /><path
           id="path194"
           style="fill:#b7e0ff;fill-opacity:1;fill-rule:nonzero;stroke:none"
           d="m 119.309,55.452 h 1.699 v -1.2 h -1.699 z" /><path
           id="path196"
           style="fill:#b7e0ff;fill-opacity:1;fill-rule:nonzero;stroke:none"
           d="m 152.804,62.353 h 1.3 v -2.2 h -1.3 z" /><path
           id="path198"
           style="fill:#b7e0ff;fill-opacity:1;fill-rule:nonzero;stroke:none"
           d="m 155.303,62.353 h 1.3 v -2.2 h -1.3 z" /><path
           id="path200"
           style="fill:#b7e0ff;fill-opacity:1;fill-rule:nonzero;stroke:none"
           d="m 157.402,62.353 h 1.3 v -2.2 h -1.3 z" /><path
           id="path202"
           style="fill:#b7e0ff;fill-opacity:1;fill-rule:nonzero;stroke:none"
           d="m 157.402,59.152 h 1.3 v -2.2 h -1.3 z" /><path
           id="path204"
           style="fill:#b7e0ff;fill-opacity:1;fill-rule:nonzero;stroke:none"
           d="m 157.402,55.952 h 1.3 v -2.2 h -1.3 z" /><path
           id="path206"
           style="fill:#b7e0ff;fill-opacity:1;fill-rule:nonzero;stroke:none"
           d="m 155.303,59.152 h 1.3 v -2.2 h -1.3 z" /><path
           id="path208"
           style="fill:#b7e0ff;fill-opacity:1;fill-rule:nonzero;stroke:none"
           d="m 155.303,55.952 h 1.3 v -2.2 h -1.3 z" /><g
           transform="translate(50.2163,62.7021)"
           id="g210"><path
             id="path212"
             style="fill:#b7e0ff;fill-opacity:1;fill-rule:nonzero;stroke:none"
             d="m 0,0 c 1,1.483 2,2.967 3.001,4.45 h 4.2 v -1 C 7.412,3.452 7.623,3.453 7.834,3.455 7.823,4.12 7.812,4.785 7.8,5.45 H 3.101 C 2.068,3.884 1.035,2.317 0.001,0.75 0.001,0.5 0,0.25 0,0" /></g><g
           transform="translate(69.1143,68.1523)"
           id="g214"><path
             id="path216"
             style="fill:#b7e0ff;fill-opacity:1;fill-rule:nonzero;stroke:none"
             d="M 0,0 H 6.6 L 2.956,4.2 Z" /></g><path
           id="path218"
           style="fill:#b7e0ff;fill-opacity:1;fill-rule:nonzero;stroke:none"
           d="m 149.713,63.853 h 3 v -0.5 h -3 z" /><path
           id="path220"
           style="fill:#b7e0ff;fill-opacity:1;fill-rule:nonzero;stroke:none"
           d="m 152.703,65.652 h 5.799 v -0.5 h -5.799 z" /><path
           id="path222"
           style="fill:#b7e0ff;fill-opacity:1;fill-rule:nonzero;stroke:none"
           d="m 158.5,63.66 h 2.799 v -0.5 H 158.5 Z" /><path
           id="path224"
           style="fill:#b7e0ff;fill-opacity:1;fill-rule:nonzero;stroke:none"
           d="m 165.802,57.869 h 6.399 v -0.5 h -6.399 z" /><path
           id="path226"
           style="fill:#b7e0ff;fill-opacity:1;fill-rule:nonzero;stroke:none"
           d="m 175.301,57.752 h 4.615 v -0.5 h -4.615 z" /><path
           id="path228"
           style="fill:#b7e0ff;fill-opacity:1;fill-rule:nonzero;stroke:none"
           d="m 62.516,65.252 h 2.6 v -0.6 h -2.6 z" /><path
           id="path230"
           style="fill:#b7e0ff;fill-opacity:1;fill-rule:nonzero;stroke:none"
           d="m 65.115,62.353 h 3.999 v -0.5 h -3.999 z" /><path
           id="path232"
           style="fill:#b7e0ff;fill-opacity:1;fill-rule:nonzero;stroke:none"
           d="m 84.813,65.152 h 6.799 v -0.5 h -6.799 z" /><path
           id="path234"
           style="fill:#b7e0ff;fill-opacity:1;fill-rule:nonzero;stroke:none"
           d="m 102.61,65.252 h 5.499 v -0.5 h -5.499 z" /><g
           transform="translate(126.3066,64.8438)"
           id="g236"><path
             id="path238"
             style="fill:#b7e0ff;fill-opacity:1;fill-rule:nonzero;stroke:none"
             d="m 0,0 c -2.038,0.005 -4.076,0.01 -6.115,0.016 0.37,0.234 0.74,0.47 1.109,0.705 C -3.337,0.714 -1.669,0.707 0,0.7 Z" /></g><path
           id="path240"
           style="fill:#b7e0ff;fill-opacity:1;fill-rule:nonzero;stroke:none"
           d="m 134.006,62.152 h 10.599 v -0.8 h -10.599 z" /><g
           transform="translate(210.0127,27.7324)"
           id="g242"><path
             id="path244"
             style="fill:#b8e0ff;fill-opacity:1;fill-rule:nonzero;stroke:none"
             d="m 0,0 c -34.129,0.406 -68.257,0.813 -102.386,1.22 0,2.9 0.873,4.2 1.552,4.8 0.97,0.8 1.939,0.3 3.782,1 2.23,0.9 2.036,2 3.49,2.6 2.91,1.2 4.752,-2.6 8.339,-1.9 2.327,0.5 2.231,2.1 4.752,2.7 2.618,0.6 3.685,-0.7 6.496,-1.1 5.915,-1 7.273,3.5 12.509,2.5 4.363,-0.8 5.819,-4.3 8.339,-3.3 2.425,1 1.843,4.5 4.655,5.6 2.327,0.9 4.073,-1 5.721,0.3 1.163,1 0.679,2.2 1.648,3.1 0.873,0.7 2.231,0.7 8.63,-1.5 4.364,-1.5 5.528,-2.1 7.273,-1.5 1.648,0.5 1.648,1.5 3.2,1.7 0.969,0.2 2.133,0 6.108,-2.7 4.267,-2.8 4.751,-3.7 6.206,-3.6 2.09,0.143 2.96,1.844 4.364,2.5 0.924,0.432 2.508,0.583 5.322,-1.052 z" /></g><g
           transform="translate(23.7593,36.4521)"
           id="g246"><path
             id="path248"
             style="fill:#b8e0ff;fill-opacity:1;fill-rule:nonzero;stroke:none"
             d="m 0,0 c 3.077,0.5 2.978,2.101 6.452,2.7 3.474,0.6 4.963,-0.7 8.834,-1.099 7.941,-1 9.827,3.5 16.974,2.5 C 38.215,3.3 40.101,-0.2 43.576,0.8 c 3.275,1 2.481,4.5 6.352,5.6 3.077,0.9 5.46,-1 7.742,0.3 1.589,1 0.894,2.2 2.284,3.1 1.091,0.7 2.977,0.7 11.713,-1.5 5.856,-1.5 7.444,-2.1 9.826,-1.5 2.283,0.5 2.283,1.5 4.368,1.7 1.389,0.2 2.879,0 8.338,-2.7 5.757,-2.8 6.452,-3.699 8.536,-3.6 2.779,0.1 2.879,1.8 5.956,2.5 3.474,0.8 5.261,-0.9 11.613,-2.3 3.077,-0.7 6.452,-1.1 13.202,-1.799 C 139.759,0 142.836,-0.1 144.624,-2 c 0.992,-1.1 1.587,-2.899 2.581,-2.899 0.496,0 0.594,0.699 1.389,1 1.092,0.5 3.374,0.099 4.367,-1.201 0.596,-0.9 0.497,-2 -0.297,-2.9 C 94,-7.5 35.138,-7 -23.625,-6.5 c 0,2.9 1.092,4.2 2.085,4.8 1.39,0.801 2.581,0.301 5.162,1 2.978,0.9 2.779,2 4.764,2.6 C -7.346,3.101 -4.864,-0.7 0,0" /></g><g
           transform="translate(77.292,32.5527)"
           id="g250"><path
             id="path252"
             style="fill:#9bad4f;fill-opacity:1;fill-rule:nonzero;stroke:none"
             d="m 0,0 c 0.2,1.399 2.601,2.199 4.501,2.199 2.6,0 3.3,-1.5 4.901,-0.899 1.6,0.599 1.2,2.2 3.2,3.2 0.2,0.1 2.3,1.1 4.101,0 1.2,-0.7 1.7,-1.9 1.9,-2.301 h 0.6 c 0,0.101 0.6,1.601 2.101,2 1.4,0.401 2.5,-0.3 2.6,-0.399 0.1,0.3 1.1,1.8 3,2.2 2,0.399 3.501,-0.801 3.801,-1 1.4,-1.101 1.8,-2.7 1.8,-3.101 0.2,0.101 1.1,0.601 2.201,0.401 0.7,-0.101 1.1,-0.5 1.399,-0.601 0.201,0.101 1.101,0.801 2.301,0.7 1.5,-0.2 2.301,-1.5 2.401,-1.599 0.7,-1 1.4,-2 2.1,-2.901 H 1.101 C 0.6,-1.601 -0.1,-0.801 0,0" /></g><g
           transform="translate(156.0039,31.9521)"
           id="g254"><path
             id="path256"
             style="fill:#9bad4f;fill-opacity:1;fill-rule:nonzero;stroke:none"
             d="m 0,0 c 0.291,1.4 3.294,2.2 5.619,2.2 3.294,0 4.166,-1.5 6.104,-0.9 2.034,0.6 1.549,2.2 3.971,3.2 0.29,0.101 2.907,1.101 5.134,0 1.551,-0.7 2.132,-1.899 2.422,-2.3 h 0.775 c 0,0.1 0.776,1.6 2.616,2 1.744,0.401 3.1,-0.3 3.294,-0.4 0.096,0.301 1.356,1.801 3.778,2.2 2.518,0.4 4.359,-0.8 4.747,-1 1.743,-1.1 2.228,-2.7 2.228,-3.1 0.291,0.1 1.356,0.6 2.712,0.4 0.872,-0.1 1.357,-0.5 1.745,-0.6 0.29,0.1 1.355,0.8 2.906,0.7 1.84,-0.2 2.906,-1.5 3.003,-1.6 0.872,-1 1.743,-2 2.615,-2.9 L 1.26,-2.1 C 0.775,-1.6 -0.097,-0.8 0,0" /></g><g
           transform="translate(0,36.5527)"
           id="g258"><path
             id="path260"
             style="fill:#9bad4f;fill-opacity:1;fill-rule:nonzero;stroke:none"
             d="m 0,0 c 0.1,0 0.201,0.1 0.301,0.1 0.3,0.099 3.006,1.099 5.311,0 1.604,-0.701 2.205,-1.901 2.506,-2.3 h 0.801 c 0,0.099 0.802,1.599 2.706,2 1.804,0.399 3.208,-0.3 3.408,-0.401 0.1,0.3 1.403,1.8 3.908,2.201 2.606,0.4 4.51,-0.8 4.911,-1 1.804,-1.1 2.305,-2.701 2.305,-3.1 0.301,0.1 1.403,0.6 2.806,0.399 0.902,-0.099 1.403,-0.5 1.804,-0.599 0.301,0.099 1.403,0.8 3.006,0.7 1.905,-0.2 3.007,-1.5 3.107,-1.601 0.902,-1 1.804,-2 2.706,-2.899 H 0" /></g><g
           transform="translate(33.8354,30.752)"
           id="g262"><path
             id="path264"
             style="fill:#abcd2d;fill-opacity:1;fill-rule:nonzero;stroke:none"
             d="m 0,0 c 7,0 13.903,-0.1 20.904,-0.1 1.07,0.8 2.625,1.8 4.764,2.5 0.972,0.3 2.431,0.701 8.75,0.701 6.32,0 7.779,-0.401 8.946,-0.8 1.847,-0.7 3.208,-1.5 4.083,-2.2 h 37.724 c 0,1.2 0.292,1.7 0.681,1.899 0.681,0.5 1.556,-0.3 2.528,0.101 0.875,0.399 0.875,1.2 1.458,1.799 0.681,0.701 2.042,1.1 5.737,-0.099 1.167,0.599 3.501,1.8 6.611,1.8 4.084,0 7.001,-1.901 7.974,-2.601 1.555,0 3.305,0 5.152,-0.3 3.5,-0.5 6.32,-1.599 8.362,-2.599 C 130.382,0 137.189,-0.1 143.897,-0.1 c 1.459,0.5 2.82,0.8 4.181,0.901 1.945,0.199 2.528,0 4.084,0.3 2.236,0.399 2.722,1.099 4.084,1.399 1.458,0.301 3.596,0 6.611,-2.8 4.473,-0.099 8.848,-0.099 13.32,-0.2 v -3.899 c -34.905,0.299 -69.907,0.5 -104.812,0.599 -35.099,0.101 -70.101,0.101 -105.2,0 v 3.7 h 8.167 c 1.361,0.6 3.694,1.6 6.806,1.6 3.5,0.101 6.125,-0.899 7.486,-1.6 C -7.487,0 -3.792,0 0,0" /></g><g
           transform="translate(47.7876,39.4521)"
           id="g266"><path
             id="path268"
             style="fill:#adce52;fill-opacity:1;fill-rule:nonzero;stroke:none"
             d="m 0,0 c -0.2,-0.6 -0.7,-0.6 -1,-1.2 0,0 -0.3,-0.6 -0.4,-1.4 -0.1,-1.6 1.3,-4 3.7,-4.9 0.6,-0.2 2.601,-0.8 4.201,0.3 0.5,0.4 0.9,0.801 1.1,1.1 0.3,0 1.1,-0.2 1.9,0.3 0.601,0.3 0.9,0.8 1.101,1.1 0.2,0.4 1,1.6 0.399,3 -0.399,1 -1.399,1.7 -2.5,1.801 C 7.401,2.3 5.501,3.7 3.601,3.7 3.4,3.7 1.4,3.601 0.6,2.4 0.2,1.8 0.1,1.101 0.1,1.101 0,0.601 0.2,0.4 0,0" /></g><g
           transform="translate(47.7822,33.5342)"
           id="g270"><path
             id="path272"
             style="fill:#9ab130;fill-opacity:1;fill-rule:nonzero;stroke:none"
             d="m 0,0 c 0.448,-0.271 1.575,-0.873 3.021,-0.833 1.089,0.03 1.979,0.415 2.228,0.524 0.243,0.108 0.42,0.204 0.457,0.227 0.8,0.5 1.3,1 1.601,1.4 C 7.46,1.212 7.709,1.068 8.042,0.991 8.938,0.784 9.666,1.241 9.773,1.312 10.562,1.825 10.949,2.81 10.807,3.718 10.786,3.851 10.611,4.861 9.663,5.425 9.021,5.807 8.387,5.77 8.163,5.745 7.989,6.289 7.512,7.522 6.288,8.514 5.533,9.124 4.776,9.415 4.278,9.561 4.786,9.48 6.078,9.207 7.207,8.118 c 0.759,-0.733 1.126,-1.53 1.3,-2 0.3,0 0.9,-0.099 1.6,-0.599 0.652,-0.531 0.898,-1.089 1,-1.401 C 11.657,2.44 10.523,0.285 8.919,-0.168 8.411,-0.311 7.941,-0.259 7.606,-0.182 7.267,-0.687 6.664,-1.391 5.711,-1.774 3.927,-2.493 1.649,-1.794 0,0" /></g><g
           transform="translate(53.5884,37.9521)"
           id="g274"><path
             id="path276"
             style="fill:#c2dc5b;fill-opacity:1;fill-rule:nonzero;stroke:none"
             d="m 0,0 c -0.086,0.217 -0.339,0.76 -0.935,1.132 -0.331,0.207 -0.649,0.286 -0.859,0.32 0.087,0.128 0.243,0.393 0.265,0.756 C -1.487,2.873 -1.924,3.324 -2,3.4 -1.925,3.293 -1.781,3.052 -1.786,2.727 -1.788,2.612 -1.794,2.191 -2.1,2 -2.296,1.878 -2.519,1.91 -2.592,1.921 -2.795,1.951 -2.937,2.049 -3,2.101 -2.97,1.997 -2.905,1.831 -2.766,1.668 -2.56,1.426 -2.311,1.334 -2.2,1.3 -2.277,1.302 -2.391,1.299 -2.525,1.275 -2.706,1.243 -3.206,1.155 -3.412,0.765 -3.448,0.695 -3.498,0.575 -3.5,0.4 -3.257,0.543 -2.699,0.826 -1.948,0.809 -0.881,0.783 -0.18,0.169 0,0" /></g><g
           transform="translate(46.3848,36.8047)"
           id="g278"><path
             id="path280"
             style="fill:#c2dd4c;fill-opacity:1;fill-rule:nonzero;stroke:none"
             d="M 0,0 C 0.51,0.96 1.112,1.533 1.503,1.848 1.938,2.198 2.249,2.33 2.328,2.362 3.08,2.676 3.784,2.599 4.149,2.528 3.992,2.55 3.561,2.628 3.194,2.985 c 0,0 -0.435,0.426 -0.491,1.063 C 2.629,4.892 3.376,5.833 4.579,6.315 4.209,6.303 3.257,6.22 2.435,5.518 1.975,5.125 1.748,4.703 1.68,4.571 1.234,3.697 1.346,2.856 1.403,2.548 1.172,2.411 0.811,2.154 0.507,1.717 0.018,1.009 -0.006,0.279 0,0" /></g><g
           transform="translate(51.5884,31.0527)"
           id="g282"><path
             id="path284"
             style="fill:#a57b66;fill-opacity:1;fill-rule:nonzero;stroke:none"
             d="m 0,0 c 0.3,-0.4 0.5,-0.601 0.7,-1 0.2,-0.4 0.2,-0.801 0.1,-1.101 h 1.1 c -0.1,0.3 -0.1,0.8 0,1.401 0.2,1 0.7,1.599 0.9,1.899 C 2.9,1.6 3.1,2 3.2,2.399 2.8,1.699 2.3,0.899 1.9,0.199 1.8,0.5 1.7,0.8 1.7,1.1 1.5,2.3 1.6,3.399 1.7,4.199 1.6,3.8 1.4,3.5 1.3,3.1 1.3,2.199 1.2,1.3 1.1,0.3 1.1,0 1,-0.301 1,-0.601 0.8,-0.5 0.7,-0.301 0.5,-0.2 -0.1,0.399 -0.4,1.1 -0.6,1.6 -0.3,0.8 -0.1,0.3 0,0" /></g><g
           transform="translate(166.7715,47.0762)"
           id="g286"><path
             id="path288"
             style="fill:#adce52;fill-opacity:1;fill-rule:nonzero;stroke:none"
             d="m 0,0 c -0.319,-0.744 -0.852,-0.744 -1.277,-1.596 0,0 -0.426,-0.744 -0.533,-1.808 -0.105,-2.021 1.704,-5.319 4.789,-6.383 0.851,-0.318 3.405,-1.064 5.533,0.426 0.744,0.425 1.17,1.063 1.383,1.382 0.319,-0.106 1.489,-0.212 2.553,0.426 0.744,0.426 1.17,1.064 1.383,1.49 0.319,0.532 1.277,2.127 0.532,3.936 -0.532,1.276 -1.808,2.233 -3.299,2.446 C 9.682,3.191 7.128,5 4.575,5 4.362,5 1.702,4.894 0.744,3.298 0.213,2.447 0.106,1.596 0.106,1.596 0,0.745 0,0.532 0,0" /></g><g
           transform="translate(166.7578,39.3486)"
           id="g290"><path
             id="path292"
             style="fill:#9ab130;fill-opacity:1;fill-rule:nonzero;stroke:none"
             d="m 0,0 c 0.665,-0.345 1.992,-0.915 3.737,-0.889 0.614,0.009 2.081,0.035 3.617,0.957 1.065,0.639 1.703,1.383 2.022,1.809 0.106,-0.106 1.597,-0.745 2.979,0.106 0.267,0.161 0.5,0.354 0.699,0.572 0.216,0.238 0.98,1.167 0.791,2.407 -0.186,1.221 -1.161,1.859 -1.486,2.072 -0.716,0.47 -1.429,0.566 -1.794,0.588 -0.185,0.643 -0.57,1.656 -1.402,2.659 -1.268,1.531 -2.823,2.124 -3.511,2.34 0.667,-0.122 2.295,-0.515 3.724,-1.915 1.002,-0.98 1.478,-2.04 1.702,-2.659 0.226,-0.035 0.483,-0.093 0.759,-0.187 0.547,-0.185 0.969,-0.445 1.264,-0.664 0.381,-0.3 1.05,-0.918 1.384,-1.894 C 15.183,3.26 14.105,0.559 12.14,-0.172 11.293,-0.486 10.479,-0.362 9.978,-0.231 9.594,-0.727 8.419,-2.106 6.432,-2.532 4.118,-3.029 1.629,-2.035 0,0" /></g><g
           transform="translate(181.5391,37.0762)"
           id="g294"><path
             id="path296"
             style="fill:#9ab130;fill-opacity:1;fill-rule:nonzero;stroke:none"
             d="M 0,0 C 0.073,0.107 -0.146,0.586 -0.427,0.856 -0.708,1.127 -1.146,1.281 -1.219,1.174 -1.292,1.065 -1.073,0.588 -0.802,0.416 -0.521,0.146 -0.083,-0.009 0,0" /></g><g
           transform="translate(182.5527,42.3057)"
           id="g298"><path
             id="path300"
             style="fill:#9ab130;fill-opacity:1;fill-rule:nonzero;stroke:none"
             d="M 0,0 C 0.347,-0.083 0.646,-0.38 0.594,-0.469 0.542,-0.559 0.091,-0.654 -0.203,-0.481 -0.49,-0.433 -0.791,-0.137 -0.738,-0.047 -0.686,0.042 -0.287,0.048 0,0" /></g><g
           transform="translate(174.2187,45.0557)"
           id="g302"><path
             id="path304"
             style="fill:#c2dc5b;fill-opacity:1;fill-rule:nonzero;stroke:none"
             d="m 0,0 c -0.135,0.322 -0.481,1.021 -1.246,1.55 -0.461,0.319 -0.91,0.463 -1.212,0.531 0.103,0.149 0.288,0.461 0.33,0.898 0.016,0.162 0.04,0.632 -0.239,1.116 -0.132,0.228 -0.289,0.384 -0.4,0.479 C -2.687,4.425 -2.363,3.78 -2.624,3.186 -2.676,3.068 -2.769,2.856 -2.979,2.766 -3.176,2.68 -3.388,2.738 -3.721,2.829 -3.904,2.879 -4.051,2.937 -4.149,2.979 -4.107,2.89 -4.056,2.795 -3.989,2.699 -3.737,2.332 -3.41,2.128 -3.191,2.021 -3.373,2.019 -3.809,1.987 -4.256,1.701 -4.714,1.409 -4.924,1.015 -5,0.851 -4.663,1.06 -3.886,1.473 -2.865,1.417 -2.048,1.373 -1.449,1.048 -1.113,0.86 -0.6,0.575 -0.234,0.244 0,0" /></g><g
           transform="translate(171.5586,36.332)"
           id="g306"><path
             id="path308"
             style="fill:#a57b66;fill-opacity:1;fill-rule:nonzero;stroke:none"
             d="m 0,0 c 0.319,-0.639 0.639,-0.957 0.958,-1.809 0.106,-0.319 0.213,-0.532 0.213,-0.744 0,-1.384 0.106,-2.873 0.106,-4.256 h 0.957 c -0.213,1.49 -0.213,3.085 0.107,4.894 0,0.319 0.106,0.639 0.106,0.852 0.32,0.637 0.532,1.276 0.852,1.914 C 3.405,1.276 3.618,1.702 3.725,2.128 3.299,1.383 2.767,0.532 2.341,-0.213 2.234,0.745 2.234,1.702 2.234,2.766 c 0,1.171 0,2.34 0.107,3.297 C 2.128,5.744 2.021,5.426 1.81,5.106 1.81,3.404 1.703,1.702 1.597,-0.106 1.597,-0.426 1.49,-0.745 1.49,-1.063 0.958,-0.319 0.426,0.532 -0.212,1.276 -0.212,0.745 0,0.319 0,0" /></g><g
           transform="translate(164.9687,43.2236)"
           id="g310"><path
             id="path312"
             style="fill:#c2dd4c;fill-opacity:1;fill-rule:nonzero;stroke:none"
             d="M 0,0 C 0.024,0.272 0.086,0.665 0.256,1.106 0.36,1.376 0.729,2.293 1.659,2.934 2.303,3.376 2.957,3.508 3.611,3.64 4.437,3.807 5.17,3.906 5.048,3.905 4.961,3.904 3.803,3.907 3.263,4.777 2.766,5.577 3.174,6.494 3.346,6.878 3.965,8.268 5.43,8.715 5.729,8.799 5.326,8.797 4.277,8.735 3.292,8.002 2.532,7.437 2.186,6.751 2.016,6.406 1.818,6.006 1.552,5.448 1.59,4.704 1.607,4.356 1.686,4.074 1.751,3.889 1.461,3.72 0.764,3.263 0.312,2.363 -0.219,1.302 -0.062,0.311 0,0" /></g><g
           transform="translate(32.3853,46.0527)"
           id="g314"><path
             id="path316"
             style="fill:#adce52;fill-opacity:1;fill-rule:nonzero;stroke:none"
             d="m 0,0 c -0.3,-0.7 -0.8,-0.7 -1.2,-1.5 0,0 -0.4,-0.7 -0.5,-1.7 -0.1,-1.901 1.6,-5 4.501,-6 0.8,-0.3 3.2,-1 5.2,0.399 0.701,0.401 1.101,1 1.301,1.301 0.3,-0.101 1.4,-0.2 2.4,0.399 0.7,0.401 1.1,1 1.3,1.401 0.3,0.5 1.201,2 0.5,3.7 -0.5,1.199 -1.7,2 -3.1,2.199 C 9.102,2.899 6.701,4.6 4.301,4.6 4.101,4.6 1.601,4.5 0.7,3 0.2,2.199 0.1,1.399 0.1,1.399 0,0.6 0.1,0.5 0,0" /></g><g
           transform="translate(32.4854,38.6523)"
           id="g318"><path
             id="path320"
             style="fill:#9ab130;fill-opacity:1;fill-rule:nonzero;stroke:none"
             d="m 0,0 c 0.64,-0.32 1.881,-0.829 3.5,-0.8 0.599,0.011 1.968,0.04 3.401,0.9 1,0.6 1.6,1.3 1.9,1.7 0.1,-0.1 1.501,-0.7 2.801,0.1 0.251,0.151 0.47,0.332 0.656,0.538 0.869,0.958 0.753,2.179 0.744,2.262 C 12.861,6.003 11.881,6.691 11.716,6.804 10.987,7.297 10.243,7.321 9.959,7.316 9.754,7.919 9.362,8.814 8.602,9.7 7.395,11.104 5.958,11.67 5.276,11.888 5.857,11.797 7.452,11.468 8.801,10.1 9.719,9.17 10.123,8.164 10.302,7.6 c 0.3,0 1.2,-0.2 2,-0.8 0.2,-0.2 0.9,-0.7 1.2,-1.7 0.7,-2 -0.7,-4.5 -2.7,-5.2 -0.6,-0.2 -1.2,-0.2 -1.6,-0.1 L 8.988,-0.549 C 8.616,-0.973 8.253,-1.239 8.001,-1.4 7.39,-1.789 6.805,-1.949 6.213,-2.112 6.075,-2.15 5.722,-2.248 5.401,-2.3 3.28,-2.646 1.325,-1.237 1.156,-1.112 0.859,-0.893 0.433,-0.536 0,0" /></g><g
           transform="translate(39.3867,44.1523)"
           id="g322"><path
             id="path324"
             style="fill:#c2dc5b;fill-opacity:1;fill-rule:nonzero;stroke:none"
             d="M 0,0 C 0.1,0.1 -0.3,1 -1.101,1.5 -1.5,1.8 -2,1.9 -2.301,2 c 0.046,0.079 0.104,0.196 0.152,0.345 0.176,0.554 0.031,1.038 -0.017,1.19 C -2.278,3.89 -2.462,4.144 -2.601,4.3 -2.498,4.039 -2.372,3.589 -2.5,3.1 -2.546,2.927 -2.607,2.706 -2.801,2.6 -2.962,2.512 -3.139,2.543 -3.329,2.577 -3.579,2.623 -3.773,2.721 -3.901,2.8 -3.661,2.491 -3.655,2.483 -3.655,2.483 -3.54,2.337 -3.346,2.136 -3,1.9 -3.171,1.897 -3.58,1.869 -4.001,1.6 c -0.43,-0.275 -0.628,-0.646 -0.7,-0.8 0.071,0.025 0.175,0.061 0.3,0.1 0.604,0.188 1.418,0.36 1.97,0.345 C -1.262,1.214 -0.316,0.323 0,0" /></g><g
           transform="translate(30.7065,43.0303)"
           id="g326"><path
             id="path328"
             style="fill:#c2dd4c;fill-opacity:1;fill-rule:nonzero;stroke:none"
             d="M 0,0 C 0.042,0.119 0.106,0.289 0.204,0.484 0.651,1.381 1.327,1.896 1.635,2.104 2.278,2.537 2.869,2.678 3.479,2.822 3.955,2.935 4.364,2.982 4.662,3.005 4.575,3.001 3.505,2.976 3.021,3.728 2.546,4.467 3.009,5.382 3.198,5.757 3.898,7.143 5.449,7.534 5.805,7.615 5.438,7.636 4.139,7.665 3.03,6.754 1.768,5.717 1.622,4.174 1.579,3.722 1.543,3.35 1.559,3.037 1.579,2.822 1.316,2.657 0.761,2.259 0.379,1.522 0.05,0.89 0.003,0.305 0,0" /></g><g
           transform="translate(36.9863,35.9521)"
           id="g330"><path
             id="path332"
             style="fill:#a57b66;fill-opacity:1;fill-rule:nonzero;stroke:none"
             d="M 0,0 C 0.3,-0.6 0.6,-0.899 0.9,-1.7 1,-2 1.1,-2.2 1.1,-2.399 1.1,-3.7 1.2,-5.1 1.2,-6.399 H 2.1 C 1.9,-5 1.9,-3.5 2.2,-1.8 2.2,-1.5 2.3,-1.2 2.3,-1 2.6,-0.399 2.8,0.2 3.1,0.8 3.2,1.2 3.4,1.601 3.5,2 3.1,1.3 2.6,0.5 2.2,-0.2 2.1,0.8 2.1,1.7 2.1,2.7 2.1,3.8 2.1,4.9 2.2,5.8 2,5.5 1.9,5.2 1.7,4.9 1.7,3.3 1.6,1.7 1.5,0 1.5,-0.3 1.4,-0.6 1.4,-0.899 0.9,-0.2 0.4,0.601 -0.2,1.3 -0.2,0.7 -0.1,0.3 0,0" /></g><g
           transform="translate(93.7949,43.4521)"
           id="g334"><path
             id="path336"
             style="fill:#9ab130;fill-opacity:1;fill-rule:nonzero;stroke:none"
             d="m 0,0 c -0.2,-0.2 0.3,-1.1 0.9,-1.1 0.2,0 0.5,0.201 0.5,0.4 C 1.2,-0.2 0.1,0.3 0,0" /></g><g
           transform="translate(93.8784,47.2031)"
           id="g338"><path
             id="path340"
             style="fill:#9ab130;fill-opacity:1;fill-rule:nonzero;stroke:none"
             d="M 0,0 C 0.175,0.137 -0.065,0.799 -0.56,0.923 -0.741,1.008 -1.097,0.956 -1.272,0.82 -1.399,0.551 -0.983,0.026 -0.489,-0.098 -0.398,-0.141 -0.084,-0.179 0,0" /></g><g
           transform="translate(43.4868,33.752)"
           id="g342"><path
             id="path344"
             style="fill:#9ab130;fill-opacity:1;fill-rule:nonzero;stroke:none"
             d="M 0,0 C 0.1,-0.199 1.1,-0.3 1.4,0.2 1.5,0.4 1.5,0.7 1.3,0.801 0.9,1 -0.1,0.2 0,0" /></g><g
           transform="translate(163.5996,42.1641)"
           id="g346"><path
             id="path348"
             style="fill:#9ab130;fill-opacity:1;fill-rule:nonzero;stroke:none"
             d="M 0,0 C 0.134,0.18 -0.228,1.118 -0.81,1.16 -1.033,1.159 -1.301,1.024 -1.3,0.801 -1.298,0.354 -0.223,-0.224 0,0" /></g><g
           transform="translate(162.9053,36.752)"
           id="g350"><path
             id="path352"
             style="fill:#9ab130;fill-opacity:1;fill-rule:nonzero;stroke:none"
             d="m 0,0 c -0.199,-0.1 0,-1.199 0.5,-1.3 0.2,0 0.501,0 0.601,0.2 C 1.2,-0.699 0.2,0.101 0,0" /></g><g
           transform="translate(127.2002,42.752)"
           id="g354"><path
             id="path356"
             style="fill:#9ab130;fill-opacity:1;fill-rule:nonzero;stroke:none"
             d="M 0,0 C 0.1,0.2 -0.101,1.101 -0.601,1.101 -0.7,1.101 -1,0.9 -1,0.801 c 0,-0.5 0.8,-1 1,-0.801" /></g><g
           transform="translate(125.2002,45.4521)"
           id="g358"><path
             id="path360"
             style="fill:#9ab130;fill-opacity:1;fill-rule:nonzero;stroke:none"
             d="M 0,0 C -0.101,0.2 -1.101,0.3 -1.4,-0.2 -1.501,-0.399 -1.501,-0.7 -1.301,-0.8 -0.9,-1 0,-0.3 0,0" /></g><g
           transform="translate(113.2979,42.5527)"
           id="g362"><path
             id="path364"
             style="fill:#adce52;fill-opacity:1;fill-rule:nonzero;stroke:none"
             d="m 0,0 c -0.2,-0.601 -0.7,-0.601 -1,-1.2 0,0 -0.3,-0.601 -0.4,-1.401 -0.1,-1.599 1.3,-4 3.701,-4.899 0.599,-0.2 2.599,-0.801 4.2,0.3 0.5,0.399 0.9,0.8 1.101,1.099 0.299,0 1.099,-0.2 1.9,0.3 0.6,0.301 0.899,0.801 1.1,1.101 0.2,0.399 1,1.599 0.4,3 -0.4,1 -1.4,1.7 -2.501,1.8 -1.1,2.2 -3,3.599 -4.9,3.599 C 3.4,3.699 1.4,3.6 0.6,2.399 0.2,1.8 0.1,1.1 0.1,1.1 0,0.5 0.1,0.399 0,0" /></g><g
           transform="translate(113.623,36.2969)"
           id="g366"><path
             id="path368"
             style="fill:#9ab130;fill-opacity:1;fill-rule:nonzero;stroke:none"
             d="m 0,0 c 0.578,-0.313 2.066,-1.016 3.876,-0.717 0.465,0.076 1.32,0.229 2.167,0.88 0.584,0.449 0.933,0.958 1.126,1.292 0.106,-0.047 1.272,-0.543 2.3,0.101 1.034,0.647 1.417,2.133 0.783,3.224 C 9.77,5.611 8.779,6.07 7.76,5.938 7.653,6.412 7.365,7.402 6.524,8.332 5.539,9.42 4.378,9.784 3.911,9.903 4.417,9.827 5.895,9.534 7.068,8.256 7.709,7.559 8.021,6.828 8.176,6.355 8.38,6.351 8.673,6.323 9.006,6.214 9.866,5.933 10.532,5.259 10.835,4.587 11.584,2.927 10.412,0.611 8.769,0.056 8.246,-0.121 7.766,-0.09 7.469,-0.045 c -0.178,-0.258 -0.496,-0.66 -1,-1 C 4.614,-2.292 2.243,-1.352 1.898,-1.215 1.452,-1.038 0.737,-0.69 0,0" /></g><g
           transform="translate(119.0986,40.9521)"
           id="g370"><path
             id="path372"
             style="fill:#c2dc5b;fill-opacity:1;fill-rule:nonzero;stroke:none"
             d="M 0,0 C -0.129,0.229 -0.397,0.628 -0.88,0.956 -1.255,1.21 -1.614,1.323 -1.849,1.376 -1.752,1.493 -1.543,1.78 -1.5,2.2 -1.486,2.339 -1.448,2.707 -1.675,3.063 -1.782,3.231 -1.912,3.339 -2,3.4 -1.963,3.332 -1.912,3.226 -1.875,3.088 -1.804,2.819 -1.727,2.182 -2.098,1.958 -2.338,1.813 -2.699,1.882 -3,2.101 -2.96,1.996 -2.894,1.86 -2.781,1.723 -2.576,1.471 -2.332,1.353 -2.2,1.3 -2.278,1.303 -2.392,1.301 -2.525,1.275 -2.64,1.253 -3.166,1.152 -3.4,0.713 -3.436,0.646 -3.48,0.542 -3.5,0.4 c 0.158,0.112 0.428,0.273 0.796,0.354 0.351,0.076 0.63,0.045 0.8,0.024 0.447,-0.053 0.772,-0.205 1.266,-0.44 C -0.361,0.207 -0.143,0.084 0,0" /></g><g
           transform="translate(111.8975,40.0527)"
           id="g374"><path
             id="path376"
             style="fill:#c2dd4c;fill-opacity:1;fill-rule:nonzero;stroke:none"
             d="M 0,0 C 0.092,0.354 0.324,1.012 0.929,1.512 1.381,1.885 1.854,2.017 2.252,2.126 2.802,2.278 3.277,2.303 3.598,2.298 3.457,2.339 2.882,2.521 2.623,3.067 2.492,3.344 2.499,3.592 2.507,3.787 2.545,4.762 3.246,5.419 3.376,5.537 3.807,5.926 4.272,6.092 4.574,6.167 4.261,6.17 3.435,6.134 2.662,5.564 2.01,5.084 1.73,4.472 1.629,4.244 1.399,3.724 1.339,3.22 1.301,2.899 1.268,2.621 1.259,2.387 1.259,2.217 1.135,2.14 0.965,2.021 0.787,1.847 0.508,1.573 0.355,1.305 0.3,1.2 0.047,0.723 0.003,0.267 0,0" /></g><g
           transform="translate(116.8984,33.752)"
           id="g378"><path
             id="path380"
             style="fill:#a57b66;fill-opacity:1;fill-rule:nonzero;stroke:none"
             d="M 0,0 C 0.3,-0.6 0.6,-0.8 0.8,-1.3 1.101,-2.1 1,-2.8 0.9,-3.3 H 2.2 C 2.101,-2.8 2.101,-2 2.301,-1 2.5,0.2 3,1 3.4,1.5 3.501,2 3.7,2.601 3.801,3.101 3.301,2.101 2.801,1.2 2.301,0.2 2.2,0.601 2.101,1 2,1.4 1.7,3 1.9,4.4 2,5.5 1.8,5 1.7,4.5 1.5,4 1.5,2.801 1.4,1.601 1.3,0.301 1.3,-0.1 1.2,-0.5 1.2,-1 1,-0.8 0.8,-0.6 0.7,-0.399 0,0.4 -0.3,1.301 -0.6,2 -0.5,1 -0.2,0.4 0,0" /></g><g
           transform="translate(83.5059,40.8008)"
           id="g382"><path
             id="path384"
             style="fill:#adce52;fill-opacity:1;fill-rule:nonzero;stroke:none"
             d="m 0,0 c 0.15,-0.484 0.82,-2.658 2.723,-3.38 1.528,-0.58 3.461,-0.081 4.601,1 2.627,2.489 0.992,8.138 -0.3,12.624 C 6.096,13.466 4.954,15.961 4.17,17.508 3.556,14.251 2.805,11.702 2.259,10.037 0.586,4.938 -0.884,2.865 0,0" /></g><g
           transform="translate(83.2583,42.9727)"
           id="g386"><path
             id="path388"
             style="fill:#9ab130;fill-opacity:1;fill-rule:nonzero;stroke:none"
             d="m 0,0 c 0.044,-1.796 0.843,-3.167 1.771,-3.328 0.744,-0.13 1.781,0.567 2.3,1 0.6,0.5 0.6,0.7 1.1,0.9 0.156,0.093 0.351,0.186 0.586,0.249 0.775,0.21 1.449,-0.042 1.719,-0.162 0.17,0.576 0.385,1.455 0.472,2.545 C 7.991,1.749 8.084,3.396 7.374,6.233 7.045,7.546 6.809,8.061 6.139,9.983 5.706,11.227 5.093,13.054 4.418,15.336 5.881,12.687 6.796,10.367 7.365,8.711 9.929,1.248 8.755,-2.313 8.418,-3.223 8.043,-4.235 7.6,-4.946 6.874,-5.399 5.125,-6.492 2.091,-5.851 0.689,-3.818 -0.38,-2.269 -0.097,-0.494 0,0" /></g><g
           transform="translate(87.3936,44.4521)"
           id="g390"><path
             id="path392"
             style="fill:#a57b66;fill-opacity:1;fill-rule:nonzero;stroke:none"
             d="m 0,0 c 0.1,-1.7 0.1,-3.1 0.1,-4.1 0,-0.6 0,-0.6 -0.1,-1.4 -0.1,-1.399 -0.1,-2.399 -0.1,-3.899 V -13.6 H 1 c -0.3,1.4 -0.4,2.9 -0.3,4.6 0,1.3 0.1,2.5 0.2,3.601 C 1,-5 1.101,-4.6 1.3,-4.1 c 0.2,0.5 0.401,0.9 0.6,1.201 V -2.2 C 1.601,-2.7 1.4,-3.2 1.101,-3.7 0.9,-4 0.8,-4.399 0.6,-4.7 c -0.1,0.801 -0.2,1.6 -0.2,2.5 0,1 0,2 0.1,2.9 C 0.3,0.3 0.1,0.2 0,0" /></g><g
           transform="translate(88.894,44.3525)"
           id="g394"><path
             id="path396"
             style="fill:#9ab130;fill-opacity:1;fill-rule:nonzero;stroke:none"
             d="M 0,0 C -0.3,-0.7 0,-1.4 0.3,-1.4 0.6,-1.5 1,-1.2 1.3,-0.601 1.3,-0.601 1.5,-1.4 1,-1.8 0.919,-1.874 0.712,-2.043 0.4,-2.088 0.285,-2.104 0.019,-2.143 -0.2,-2 -0.582,-1.752 -0.554,-1.127 -0.482,-0.809 -0.391,-0.401 -0.144,-0.132 0,0" /></g><g
           transform="translate(152.3799,39.168)"
           id="g398"><path
             id="path400"
             style="fill:#adce52;fill-opacity:1;fill-rule:nonzero;stroke:none"
             d="m 0,0 c 0.149,-0.484 0.819,-2.658 2.723,-3.38 1.528,-0.58 3.461,-0.081 4.6,0.999 2.627,2.49 0.992,8.139 -0.3,12.625 C 6.095,13.466 4.953,15.961 4.17,17.508 3.556,14.25 2.805,11.702 2.259,10.037 0.586,4.937 -0.885,2.865 0,0" /></g><g
           transform="translate(152.1299,41.3076)"
           id="g402"><path
             id="path404"
             style="fill:#9ab130;fill-opacity:1;fill-rule:nonzero;stroke:none"
             d="m 0,0 c 0.05,-1.777 0.847,-3.135 1.772,-3.296 0.748,-0.13 1.783,0.567 2.301,1 0.6,0.5 0.6,0.7 1.1,0.9 0.156,0.092 0.351,0.185 0.586,0.25 0.775,0.209 1.449,-0.042 1.719,-0.163 0.169,0.577 0.385,1.455 0.471,2.545 C 7.992,1.781 8.086,3.428 7.376,6.266 7.048,7.578 6.811,8.092 6.141,10.016 5.708,11.259 5.095,13.086 4.42,15.368 5.884,12.719 6.798,10.399 7.367,8.743 9.932,1.279 8.757,-2.281 8.42,-3.19 8.045,-4.203 7.602,-4.914 6.876,-5.367 5.126,-6.461 2.091,-5.819 0.69,-3.786 -0.366,-2.253 -0.096,-0.5 0,0" /></g><g
           transform="translate(156.2676,42.8193)"
           id="g406"><path
             id="path408"
             style="fill:#a57b66;fill-opacity:1;fill-rule:nonzero;stroke:none"
             d="m 0,0 c 0.1,-1.7 0.1,-3.1 0.1,-4.1 0,-0.6 0,-0.6 -0.1,-1.4 -0.101,-1.399 -0.101,-2.399 -0.101,-3.899 V -13.6 H 1 c -0.3,1.4 -0.4,2.9 -0.3,4.6 0,1.3 0.1,2.5 0.199,3.601 C 1,-5 1.1,-4.6 1.3,-4.1 c 0.2,0.5 0.4,0.9 0.6,1.201 V -2.2 C 1.6,-2.7 1.399,-3.2 1.1,-3.7 0.899,-4 0.8,-4.399 0.6,-4.7 c -0.1,0.801 -0.201,1.6 -0.201,2.5 0,1 0,2 0.101,2.9 C 0.3,0.3 0.1,0.2 0,0" /></g><g
           transform="translate(157.7676,42.7197)"
           id="g410"><path
             id="path412"
             style="fill:#9ab130;fill-opacity:1;fill-rule:nonzero;stroke:none"
             d="m 0,0 c -0.3,-0.7 0,-1.4 0.3,-1.4 0.3,-0.1 0.7,0.2 1,0.799 0,0 0.2,-0.799 -0.3,-1.199 -0.3,-0.301 -0.9,-0.4 -1.2,-0.2 -0.035,0.04 -0.081,0.099 -0.127,0.174 -0.05,0.081 -0.167,0.293 -0.191,0.577 -0.03,0.374 0.12,0.655 0.211,0.827 C -0.203,-0.229 -0.085,-0.089 0,0" /></g><g
           transform="translate(1.2856,39.9395)"
           id="g414"><path
             id="path416"
             style="fill:#adce52;fill-opacity:1;fill-rule:nonzero;stroke:none"
             d="m 0,0 c 0.149,-0.484 0.82,-2.657 2.723,-3.38 1.528,-0.58 3.461,-0.081 4.601,1 C 9.95,0.11 8.316,5.758 7.023,10.244 6.095,13.466 4.954,15.961 4.17,17.508 3.556,14.251 2.805,11.703 2.259,10.038 0.586,4.938 -0.884,2.865 0,0" /></g><g
           transform="translate(1.0386,42.123)"
           id="g418"><path
             id="path420"
             style="fill:#9ab130;fill-opacity:1;fill-rule:nonzero;stroke:none"
             d="m 0,0 c 0.042,-1.803 0.842,-3.178 1.77,-3.34 0.743,-0.129 1.781,0.568 2.3,1 0.6,0.5 0.6,0.7 1.1,0.901 0.156,0.092 0.352,0.185 0.586,0.249 0.776,0.211 1.449,-0.042 1.719,-0.163 0.171,0.577 0.386,1.457 0.472,2.545 C 7.99,1.738 8.083,3.384 7.374,6.222 7.045,7.534 6.808,8.049 6.138,9.972 5.705,11.215 5.092,13.043 4.417,15.325 5.881,12.675 6.795,10.356 7.365,8.699 9.929,1.236 8.754,-2.324 8.417,-3.234 8.042,-4.247 7.599,-4.957 6.874,-5.41 5.124,-6.504 2.091,-5.862 0.688,-3.83 -0.386,-2.274 -0.097,-0.492 0,0" /></g><g
           transform="translate(5.1733,43.5908)"
           id="g422"><path
             id="path424"
             style="fill:#a57b66;fill-opacity:1;fill-rule:nonzero;stroke:none"
             d="m 0,0 c 0.1,-1.699 0.1,-3.1 0.1,-4.1 0,-0.599 0,-0.599 -0.1,-1.4 -0.1,-1.399 -0.1,-2.399 -0.1,-3.899 V -13.6 H 1 c -0.3,1.401 -0.4,2.901 -0.3,4.6 0,1.301 0.1,2.5 0.2,3.601 C 1,-5 1.1,-4.6 1.3,-4.1 c 0.2,0.5 0.4,0.901 0.6,1.201 v 0.7 c -0.3,-0.5 -0.5,-1 -0.8,-1.5 -0.2,-0.301 -0.3,-0.7 -0.5,-1 -0.1,0.8 -0.2,1.599 -0.2,2.5 0,1 0,2 0.1,2.899 C 0.3,0.301 0.1,0.2 0,0" /></g><g
           transform="translate(6.6733,43.4912)"
           id="g426"><path
             id="path428"
             style="fill:#9ab130;fill-opacity:1;fill-rule:nonzero;stroke:none"
             d="M 0,0 C -0.3,-0.7 0,-1.4 0.3,-1.4 0.6,-1.5 1,-1.2 1.3,-0.6 1.322,-0.71 1.344,-0.865 1.338,-1.05 1.331,-1.272 1.319,-1.621 1.121,-1.858 0.836,-2.199 0.185,-2.292 -0.2,-2 -0.691,-1.627 -0.499,-0.812 -0.306,-0.422 -0.213,-0.232 -0.095,-0.094 0,0" /></g><g
           transform="translate(99.1284,32.252)"
           id="g430"><path
             id="path432"
             style="fill:#ed9d55;fill-opacity:1;fill-rule:nonzero;stroke:none"
             d="m 0,0 h 11.399 c 0.1,0.301 0.1,0.7 -0.101,1.101 C 10.798,1.9 9.199,1.7 5.799,1.7 2.2,1.7 0.7,2 0.1,1.101 -0.2,0.7 -0.2,0.301 0,0" /></g><g
           transform="translate(91.8296,29.3525)"
           id="g434"><path
             id="path436"
             style="fill:#fdc06c;fill-opacity:1;fill-rule:nonzero;stroke:none"
             d="m 0,0 c -0.2,0.5 -0.3,1.1 0,1.7 0.8,1.6 4,1.6 12.798,1.6 8.499,0 11.599,0.099 12.498,-1.6 0.401,-0.6 0.3,-1.301 0.101,-1.801 C 16.998,0 8.499,0 0,0" /></g><g
           transform="translate(94.5269,32.3682)"
           id="g438"><path
             id="path440"
             style="fill:#d48552;fill-opacity:1;fill-rule:nonzero;stroke:none"
             d="m 0,0 c -0.17,-0.123 -0.367,-0.289 -0.56,-0.51 -0.353,-0.404 -0.539,-0.816 -0.637,-1.1 -0.1,-0.6 0,-1.2 0.099,-1.4 h -1.699 c -0.097,0.228 -0.141,0.425 -0.162,0.563 -0.037,0.226 -0.107,0.711 0.137,1.2 0.076,0.153 0.164,0.267 0.225,0.337 0.4,0.5 1,0.7 1.7,0.801 C -0.598,-0.073 -0.299,-0.037 0,0" /></g><g
           transform="translate(106.2275,35.4521)"
           id="g442"><path
             id="path444"
             style="fill:#fa9742;fill-opacity:1;fill-rule:nonzero;stroke:none"
             d="m 0,0 h -2.899 c 0.1,0.4 0.199,1 0.199,1.7 0,0.8 -0.099,1.401 -0.199,1.901 H 0 C -0.1,3.101 -0.2,2.5 -0.2,1.8 -0.3,1.101 -0.3,0.4 0,0" /></g><g
           transform="translate(103.9277,39.0527)"
           id="g446"><path
             id="path448"
             style="fill:#cd8854;fill-opacity:1;fill-rule:nonzero;stroke:none"
             d="m 0,0 c 0,-1.2 0,-2.4 0.1,-3.601 h -0.8 c 0.1,0.401 0.2,1 0.2,1.601 0,0.8 -0.1,1.5 -0.2,2 z" /></g><g
           transform="translate(101.6284,33.8525)"
           id="g450"><path
             id="path452"
             style="fill:#fdc06c;fill-opacity:1;fill-rule:nonzero;stroke:none"
             d="m 0,0 c 0,0.399 0,1.1 0.5,1.5 0.4,0.399 0.9,0.3 2.799,0.3 2,0 2.5,0.099 3,-0.3 0.4,-0.4 0.4,-1.101 0.4,-1.5 C 4.299,0.1 2.1,0 0,0" /></g><g
           transform="translate(102.8501,35.6436)"
           id="g454"><path
             id="path456"
             style="fill:#d5864a;fill-opacity:1;fill-rule:nonzero;stroke:none"
             d="m 0,0 c -0.265,-0.32 -0.373,-0.611 -0.422,-0.791 -0.034,-0.125 -0.052,-0.243 -0.062,-0.312 -0.038,-0.254 -0.038,-0.471 -0.038,-0.688 h -0.7 c -0.01,0.122 -0.016,0.301 0.013,0.513 0.027,0.204 0.061,0.452 0.229,0.712 0.052,0.081 0.162,0.248 0.374,0.381 C -0.359,-0.026 -0.116,-0.003 0,0" /></g><g
           transform="translate(106.4277,40.9521)"
           id="g458"><path
             id="path460"
             style="fill:#fa9742;fill-opacity:1;fill-rule:nonzero;stroke:none"
             d="m 0,0 h -3.7 c 0.301,0.8 0.7,1.9 0.8,3.2 0.1,1.1 0.1,2.1 0,2.901 h 2 C -1,5.4 -1.2,4.3 -1,3.101 -0.6,1.8 -0.2,0.7 0,0" /></g><g
           transform="translate(103.9443,47.0527)"
           id="g462"><path
             id="path464"
             style="fill:#cd8854;fill-opacity:1;fill-rule:nonzero;stroke:none"
             d="m 0,0 c 0,-2 -0.143,-4 -0.143,-6.101 h -1.573 c 0.429,0.701 0.858,1.701 1.144,2.8 C -0.286,-2 -0.286,-0.9 -0.429,0 Z" /></g><g
           transform="translate(98.9287,41.0527)"
           id="g466"><path
             id="path468"
             style="fill:#fdc06c;fill-opacity:1;fill-rule:nonzero;stroke:none"
             d="m 0,0 h 11.599 c 0,-0.101 0.299,-1.101 -0.3,-1.9 -0.401,-0.5 -0.901,-0.6 -1.101,-0.701 H 1.7 C 1.5,-2.601 0.9,-2.5 0.4,-2 0,-1.5 -0.1,-0.7 0,0" /></g><g
           transform="translate(99.915,41.0527)"
           id="g470"><path
             id="path472"
             style="fill:#d48552;fill-opacity:1;fill-rule:nonzero;stroke:none"
             d="M 0,0 C 0,-0.2 -0.1,-0.801 0.2,-1.301 0.6,-2.2 1.5,-2.5 1.7,-2.601 H 0.6 c -0.1,0 -0.9,0.101 -1.4,0.701 -0.4,0.5 -0.5,1.299 -0.2,1.9 z" /></g><g
           transform="translate(102.1289,49.8525)"
           id="g474"><path
             id="path476"
             style="fill:#7ebbe8;fill-opacity:1;fill-rule:nonzero;stroke:none"
             d="M 0,0 V 0.6 C 0.217,0.611 0.532,0.622 0.913,0.612 1.523,0.598 1.751,0.546 1.9,0.7 2.048,0.854 2.013,1.104 1.962,1.437 1.91,1.78 1.855,2.301 1.5,2.7 0.7,3.6 -0.5,3.5 -0.7,3.399 -1.5,3.3 -2.2,2.8 -2.6,2.1 -2.799,1.7 -2.799,1.2 -2.799,0.3 c 0,-0.7 0.1,-1.3 0.199,-1.7 0,-0.201 -0.199,-0.3 -0.299,-0.3 0,0 -0.106,-0.013 -0.226,0.075 -0.405,0.3 -0.59,2.622 -0.074,3.825 0.283,0.66 0.736,1.135 0.736,1.135 0.027,0.028 0.048,0.05 0.064,0.064 0.199,0.201 1,0.901 2.099,1 C 1.4,4.5 2.4,3 2.5,2.899 2.5,3 3.6,4.5 5.199,4.399 6.699,4.3 8.199,2.6 7.999,0.6 c 0,-0.201 -0.1,-0.4 -0.3,-0.5 -0.2,0 -0.4,0.2 -0.4,0.5 0.1,1.6 -0.8,2.9 -1.8,3.1 C 4.6,3.899 3.7,3.1 3.6,3 3.4,2.899 3,2.399 2.9,1.7 2.88,1.56 2.867,1.397 2.869,1.217 2.87,1.008 2.892,0.822 2.919,0.666 3.612,0.677 4.306,0.688 4.999,0.7 V 0.1 Z" /></g><g
           transform="translate(99.1299,47.6523)"
           id="g478"><path
             id="path480"
             style="fill:#7ebbe8;fill-opacity:1;fill-rule:nonzero;stroke:none"
             d="M 0,0 C -0.3,0 -0.6,-1 -0.3,-1.3 -0.1,-1.5 0.3,-1.4 0.5,-1.2 0.8,-0.8 0.3,0 0,0" /></g><g
           transform="translate(101.2285,50.0527)"
           id="g482"><path
             id="path484"
             style="fill:#fdc06c;fill-opacity:1;fill-rule:nonzero;stroke:none"
             d="M 0,0 C -0.1,-0.2 -0.5,-0.801 -0.3,-1.7 -0.1,-2.801 0.9,-3.2 1,-3.301 h 4.799 c 0.2,0.101 0.7,0.5 1.099,1.101 0.5,1 0.101,1.899 0,2.099 C 4.499,-0.101 2.2,0 0,0" /></g><g
           transform="translate(101.9282,50.0527)"
           id="g486"><path
             id="path488"
             style="fill:#d48552;fill-opacity:1;fill-rule:nonzero;stroke:none"
             d="m 0,0 c -0.1,-0.301 -0.3,-0.801 -0.2,-1.4 0.1,-1 0.7,-1.701 0.9,-1.901 H 0.2 c -0.131,0.061 -1.005,0.48 -1.3,1.5 -0.264,0.916 0.126,1.661 0.205,1.806 C -0.596,0.003 -0.298,0.001 0,0" /></g><g
           transform="translate(109.8438,49.5527)"
           id="g490"><path
             id="path492"
             style="fill:#7ebbe8;fill-opacity:1;fill-rule:nonzero;stroke:none"
             d="M 0,0 C -0.3,0 -0.6,-0.7 -0.399,-1 -0.199,-1.2 0.2,-1.2 0.3,-1 0.5,-0.7 0.3,0 0,0" /></g><g
           transform="translate(147.9219,30.9521)"
           id="g494"><path
             id="path496"
             style="fill:#64656e;fill-opacity:1;fill-rule:nonzero;stroke:none"
             d="m 0,0 v 1.9 c 0.2,0.201 0.6,0.4 1.2,0.5 0.199,0 0.6,0.1 1.199,0 0.6,-0.1 1,-0.299 1.201,-0.5 V 0 Z" /></g><g
           transform="translate(146.7217,31.0527)"
           id="g498"><path
             id="path500"
             style="fill:#848484;fill-opacity:1;fill-rule:nonzero;stroke:none"
             d="M 0,0 V -1.5 H 6.199 V 0 H 3.6 V 1.199 C 3.6,1.199 3.399,1.5 3,1.5 2.6,1.5 2.4,1.199 2.4,1.199 V 0 H 1.2 Z" /></g><g
           transform="translate(149.2217,34.5527)"
           id="g502"><path
             id="path504"
             style="fill:#848484;fill-opacity:1;fill-rule:nonzero;stroke:none"
             d="M 0,0 H 1 C 1.075,-0.047 1.421,-0.269 1.524,-0.709 1.587,-0.973 1.533,-1.193 1.5,-1.301 H -0.4 C -0.444,-1.2 -0.508,-1.016 -0.485,-0.786 -0.438,-0.311 -0.062,-0.043 0,0" /></g><path
           id="path506"
           style="fill:#736d6f;fill-opacity:1;fill-rule:nonzero;stroke:none"
           d="m 149.222,47.952 h 1 V 34.553 h -1 z" /><path
           id="path508"
           style="fill:#7b7c7a;fill-opacity:1;fill-rule:nonzero;stroke:none"
           d="m 148.422,42.053 h 2.6 v -0.7 h -2.6 z" /><path
           id="path510"
           style="fill:#7b7c7a;fill-opacity:1;fill-rule:nonzero;stroke:none"
           d="m 148.422,40.752 h 2.6 v -0.699 h -2.6 z" /><g
           transform="translate(149.6699,52.8916)"
           id="g512"><path
             id="path514"
             style="fill:#6c737c;fill-opacity:1;fill-rule:nonzero;stroke:none"
             d="M 0,0 C 0.27,0.013 0.466,-0.146 0.543,-0.207 1.002,-0.576 0.959,-1.248 0.951,-1.339 0.933,-1.317 0.777,-1.144 0.548,-1.162 0.532,-1.164 0.376,-1.179 0.266,-1.295 0.124,-1.444 0.131,-1.685 0.201,-2.039 c 0.064,-0.316 0.188,-0.769 0.45,-1.3 v -1.1 h -1.299 v 1.1 c 0.309,0.517 0.412,0.969 0.45,1.262 0.028,0.223 0.092,0.713 -0.134,0.846 -0.086,0.05 -0.205,0.044 -0.249,0.041 -0.19,-0.01 -0.319,-0.109 -0.367,-0.149 0,0.15 0.019,0.736 0.446,1.107 C -0.413,-0.155 -0.246,-0.011 0,0" /></g><path
           id="path516"
           style="fill:#7b7c7a;fill-opacity:1;fill-rule:nonzero;stroke:none"
           d="m 148.722,48.553 h 1.899 v -0.7 h -1.899 z" /><g
           transform="translate(144.2227,54.752)"
           id="g518"><path
             id="path520"
             style="fill:#6c737c;fill-opacity:1;fill-rule:nonzero;stroke:none"
             d="M 0,0 H 2.899 C 2.902,-0.263 2.904,-0.525 2.907,-0.788 2.505,-0.792 2.102,-0.796 1.699,-0.8 c -0.099,-0.3 -0.2,-0.899 0,-1.599 0.3,-1.201 1.1,-1.8 1.3,-2.101 0.7,-0.5 1.4,-0.699 1.8,-0.8 v -0.5 c -0.4,0.101 -1.4,0.2 -2.3,1.101 -0.199,0.199 -1,0.899 -1.3,2.3 C 1.1,-1.699 1.1,-1.1 1.1,-0.8 H 0 Z" /></g><g
           transform="translate(144.7227,58.3525)"
           id="g522"><path
             id="path524"
             style="fill:#f6d04c;fill-opacity:1;fill-rule:nonzero;stroke:none"
             d="M 0,0 C 0,-0.1 -1.101,-1.8 -1.101,-1.8 -0.9,-2.4 -0.7,-3 -0.5,-3.7 h 2.899 l 0.6,1.8 c -0.167,0.286 -0.334,0.586 -0.5,0.9 -0.181,0.342 -0.347,0.676 -0.5,1 H 0.997 Z" /></g><g
           transform="translate(146.7217,58.8525)"
           id="g526"><path
             id="path528"
             style="fill:#6c737c;fill-opacity:1;fill-rule:nonzero;stroke:none"
             d="m 0,0 v -0.5 h -1.999 v 0.477 C -1.333,-0.015 -0.666,-0.008 0,0" /></g><g
           transform="translate(155.0205,54.752)"
           id="g530"><path
             id="path532"
             style="fill:#6c737c;fill-opacity:1;fill-rule:nonzero;stroke:none"
             d="m 0,0 h -2.899 c 0,-0.265 0,-0.529 10e-4,-0.794 0.399,-0.002 0.798,-0.004 1.199,-0.006 0.099,-0.3 0.2,-0.899 0,-1.599 -0.3,-1.201 -1.101,-1.8 -1.3,-2.101 -0.7,-0.5 -1.4,-0.699 -1.8,-0.8 v -0.5 c 0.4,0.101 1.4,0.2 2.3,1.101 0.199,0.199 1,0.899 1.3,2.3 C -1.1,-1.699 -1.1,-1.1 -1.1,-0.8 H 0 Z" /></g><g
           transform="translate(154.5205,58.3525)"
           id="g534"><path
             id="path536"
             style="fill:#f6d04c;fill-opacity:1;fill-rule:nonzero;stroke:none"
             d="M 0,0 C 0,-0.1 1.101,-1.8 1.101,-1.8 0.9,-2.4 0.7,-3 0.5,-3.7 h -2.899 l -0.6,1.8 c 0.167,0.296 0.333,0.595 0.5,0.9 0.185,0.338 0.365,0.674 0.54,1.006 0.324,0.007 0.655,0.01 0.994,0.009 C -0.637,0.014 -0.314,0.008 0,0" /></g><g
           transform="translate(152.5703,58.8574)"
           id="g538"><path
             id="path540"
             style="fill:#6c737c;fill-opacity:1;fill-rule:nonzero;stroke:none"
             d="M 0,0 C -0.003,-0.166 -0.006,-0.333 -0.009,-0.499 0.645,-0.5 1.298,-0.503 1.95,-0.505 c 0,0.167 -10e-4,0.334 -0.002,0.5 C 1.299,-0.003 0.649,-0.001 0,0" /></g><g
           transform="translate(59.0879,30.9932)"
           id="g542"><path
             id="path544"
             style="fill:#64656e;fill-opacity:1;fill-rule:nonzero;stroke:none"
             d="m 0,0 v 1.9 c 0.2,0.201 0.6,0.401 1.2,0.5 0.2,0 0.6,0.1 1.2,0 C 3,2.301 3.4,2.101 3.6,1.9 V 0 Z" /></g><g
           transform="translate(57.8882,31.0938)"
           id="g546"><path
             id="path548"
             style="fill:#848484;fill-opacity:1;fill-rule:nonzero;stroke:none"
             d="M 0,0 V -1.5 H 6.199 V 0 H 3.6 V 1.2 C 3.6,1.2 3.399,1.5 3,1.5 2.6,1.5 2.4,1.2 2.4,1.2 V 0 H 1.2 Z" /></g><g
           transform="translate(60.3877,34.5938)"
           id="g550"><path
             id="path552"
             style="fill:#848484;fill-opacity:1;fill-rule:nonzero;stroke:none"
             d="M 0,0 H 1 C 1.073,-0.047 1.347,-0.231 1.46,-0.601 1.562,-0.934 1.471,-1.213 1.438,-1.3 H -0.4 c -0.044,0.101 -0.107,0.284 -0.085,0.514 C -0.438,-0.311 -0.062,-0.043 0,0" /></g><path
           id="path554"
           style="fill:#736d6f;fill-opacity:1;fill-rule:nonzero;stroke:none"
           d="m 60.388,47.993 h 1 V 34.594 h -1 z" /><path
           id="path556"
           style="fill:#7b7c7a;fill-opacity:1;fill-rule:nonzero;stroke:none"
           d="m 59.588,42.094 h 2.6 v -0.7 h -2.6 z" /><path
           id="path558"
           style="fill:#7b7c7a;fill-opacity:1;fill-rule:nonzero;stroke:none"
           d="m 59.588,40.794 h 2.6 v -0.7 h -2.6 z" /><g
           transform="translate(60.8359,52.9326)"
           id="g560"><path
             id="path562"
             style="fill:#6c737c;fill-opacity:1;fill-rule:nonzero;stroke:none"
             d="M 0,0 C 0.27,0.013 0.466,-0.145 0.543,-0.207 1.002,-0.576 0.959,-1.248 0.952,-1.339 0.933,-1.317 0.778,-1.144 0.548,-1.162 0.533,-1.163 0.376,-1.179 0.266,-1.295 0.125,-1.444 0.131,-1.685 0.202,-2.039 c 0.063,-0.316 0.187,-0.769 0.45,-1.3 v -1.1 h -1.3 v 1.1 c 0.31,0.517 0.412,0.969 0.45,1.263 0.029,0.222 0.092,0.712 -0.134,0.845 -0.086,0.05 -0.205,0.044 -0.249,0.042 -0.189,-0.011 -0.319,-0.11 -0.367,-0.15 0,0.15 0.019,0.736 0.447,1.107 C -0.413,-0.155 -0.246,-0.011 0,0" /></g><path
           id="path564"
           style="fill:#7b7c7a;fill-opacity:1;fill-rule:nonzero;stroke:none"
           d="m 59.888,48.594 h 1.9 v -0.7 h -1.9 z" /><g
           transform="translate(55.3887,54.7939)"
           id="g566"><path
             id="path568"
             style="fill:#6c737c;fill-opacity:1;fill-rule:nonzero;stroke:none"
             d="M 0,0 H 2.899 C 2.902,-0.264 2.905,-0.526 2.908,-0.789 2.505,-0.793 2.102,-0.797 1.7,-0.801 1.6,-1.101 1.5,-1.7 1.7,-2.4 2,-3.601 2.799,-4.2 3,-4.5 3.699,-5 4.399,-5.2 4.799,-5.301 v -0.5 c -0.4,0.101 -1.4,0.2 -2.299,1.101 -0.2,0.2 -1,0.899 -1.3,2.3 -0.1,0.7 -0.1,1.299 -0.1,1.599 l -1.1,0 z" /></g><g
           transform="translate(55.8887,58.3936)"
           id="g570"><path
             id="path572"
             style="fill:#f6d04c;fill-opacity:1;fill-rule:nonzero;stroke:none"
             d="m 0,0 c 0,-0.1 -1.1,-1.8 -1.1,-1.8 0.2,-0.6 0.4,-1.2 0.6,-1.9 H 2.399 L 3,-1.9 C 2.833,-1.614 2.666,-1.314 2.5,-1 2.319,-0.658 2.152,-0.324 2,0 H 0.997 Z" /></g><g
           transform="translate(57.8882,58.8936)"
           id="g574"><path
             id="path576"
             style="fill:#6c737c;fill-opacity:1;fill-rule:nonzero;stroke:none"
             d="m 0,0 v -0.5 h -2 v 0.477 c 0.667,0.008 1.333,0.015 2,0.023" /></g><g
           transform="translate(66.187,54.7939)"
           id="g578"><path
             id="path580"
             style="fill:#6c737c;fill-opacity:1;fill-rule:nonzero;stroke:none"
             d="m 0,0 h -2.899 c 0,-0.266 0,-0.53 0,-0.795 C -2.5,-0.797 -2.1,-0.799 -1.7,-0.801 -1.6,-1.101 -1.5,-1.7 -1.7,-2.4 -2,-3.601 -2.8,-4.2 -3,-4.5 -3.699,-5 -4.399,-5.2 -4.799,-5.301 v -0.5 c 0.4,0.101 1.4,0.2 2.299,1.101 0.2,0.2 1,0.899 1.3,2.3 0.1,0.7 0.1,1.299 0.1,1.599 H 0 Z" /></g><g
           transform="translate(65.687,58.3936)"
           id="g582"><path
             id="path584"
             style="fill:#f6d04c;fill-opacity:1;fill-rule:nonzero;stroke:none"
             d="M 0,0 C 0,-0.1 1.1,-1.8 1.1,-1.8 0.9,-2.4 0.7,-3 0.5,-3.7 H -2.399 L -3,-1.9 c 0.167,0.296 0.334,0.595 0.5,0.9 0.186,0.338 0.366,0.674 0.541,1.007 0.324,0.006 0.655,0.009 0.994,0.008 C -0.637,0.014 -0.315,0.009 0,0" /></g><g
           transform="translate(63.7363,58.8984)"
           id="g586"><path
             id="path588"
             style="fill:#6c737c;fill-opacity:1;fill-rule:nonzero;stroke:none"
             d="M 0,0 C -0.003,-0.166 -0.006,-0.332 -0.008,-0.498 0.645,-0.5 1.298,-0.502 1.951,-0.505 1.95,-0.338 1.949,-0.171 1.948,-0.004 Z" /></g><path
           id="path590"
           style="fill:#c68549;fill-opacity:1;fill-rule:nonzero;stroke:none"
           d="m 65.434,32.252 h 1.399 v -2.899 h -1.399 z" /><path
           id="path592"
           style="fill:#c68549;fill-opacity:1;fill-rule:nonzero;stroke:none"
           d="m 68.533,32.252 h 1.4 v -2.899 h -1.4 z" /><path
           id="path594"
           style="fill:#c68549;fill-opacity:1;fill-rule:nonzero;stroke:none"
           d="m 79.431,32.252 h 1.4 v -2.899 h -1.4 z" /><path
           id="path596"
           style="fill:#c68549;fill-opacity:1;fill-rule:nonzero;stroke:none"
           d="m 83.431,32.252 h 1.4 v -2.899 h -1.4 z" /><path
           id="path598"
           style="fill:#ffbe94;fill-opacity:1;fill-rule:nonzero;stroke:none"
           d="m 65.434,33.252 h 19.397 v -1.1 H 65.434 Z" /><path
           id="path600"
           style="fill:#c97c37;fill-opacity:1;fill-rule:nonzero;stroke:none"
           d="m 67.933,39.652 h 0.7 v -5.6 h -0.7 z" /><path
           id="path602"
           style="fill:#c97c37;fill-opacity:1;fill-rule:nonzero;stroke:none"
           d="m 69.933,39.952 h 0.7 v -5.899 h -0.7 z" /><path
           id="path604"
           style="fill:#c97c37;fill-opacity:1;fill-rule:nonzero;stroke:none"
           d="m 71.933,40.553 h 0.7 v -6.5 h -0.7 z" /><path
           id="path606"
           style="fill:#c97c37;fill-opacity:1;fill-rule:nonzero;stroke:none"
           d="m 73.832,40.553 h 0.7 v -6.5 h -0.7 z" /><path
           id="path608"
           style="fill:#c97c37;fill-opacity:1;fill-rule:nonzero;stroke:none"
           d="m 75.532,40.452 h 0.7 v -6.399 h -0.7 z" /><path
           id="path610"
           style="fill:#c97c37;fill-opacity:1;fill-rule:nonzero;stroke:none"
           d="m 77.532,39.952 h 0.7 v -6.1 h -0.7 z" /><path
           id="path612"
           style="fill:#c97c37;fill-opacity:1;fill-rule:nonzero;stroke:none"
           d="m 79.431,39.452 h 0.7 v -5.6 h -0.7 z" /><g
           transform="translate(84.8306,33.252)"
           id="g614"><path
             id="path616"
             style="fill:#ef8c39;fill-opacity:1;fill-rule:nonzero;stroke:none"
             d="m 0,0 h -19.397 v 0.9 h 9.798 8.799 c 0.2,0 0.6,0 0.7,-0.299 C 0,0.4 0,0.101 0,0" /></g><g
           transform="translate(66.833,34.0527)"
           id="g618"><path
             id="path620"
             style="fill:#ef8c39;fill-opacity:1;fill-rule:nonzero;stroke:none"
             d="M 0,0 H -1.4 V 5.899 C -1.3,6.199 -1,6.5 -0.7,6.5 -0.4,6.5 -0.1,6.3 0,6 Z" /></g><g
           transform="translate(82.3311,34.0527)"
           id="g622"><path
             id="path624"
             style="fill:#ef8c39;fill-opacity:1;fill-rule:nonzero;stroke:none"
             d="m 0,0 h -1.5 v 5.8 c 0.1,0.3 0.4,0.5 0.7,0.5 0.4,0 0.7,-0.2 0.9,-0.5 C 0,3.8 0,1.899 0,0" /></g><path
           id="path626"
           style="fill:#ffbe94;fill-opacity:1;fill-rule:nonzero;stroke:none"
           d="m 66.033,36.553 h 2.899 v -0.801 h -2.899 z" /><path
           id="path628"
           style="fill:#ffbe94;fill-opacity:1;fill-rule:nonzero;stroke:none"
           d="M 81.931,36.553 H 84.83 V 35.752 H 81.931 Z" /><g
           transform="translate(66.833,38.5527)"
           id="g630"><path
             id="path632"
             style="fill:#dd834a;fill-opacity:1;fill-rule:nonzero;stroke:none"
             d="m 0,0 c 1.2,0.6 3.7,1.8 6.999,1.8 3.4,0 6,-1.2 7.099,-1.901 V 0.8 C 12.898,1.399 10.399,2.6 6.899,2.6 3.6,2.6 1.1,1.5 -0.1,0.8 V 0 Z" /></g><path
           id="path634"
           style="fill:#c68549;fill-opacity:1;fill-rule:nonzero;stroke:none"
           d="m 142.022,32.152 h 1.4 v -2.9 h -1.4 z" /><path
           id="path636"
           style="fill:#c68549;fill-opacity:1;fill-rule:nonzero;stroke:none"
           d="m 138.923,32.152 h 1.4 v -2.9 h -1.4 z" /><path
           id="path638"
           style="fill:#c68549;fill-opacity:1;fill-rule:nonzero;stroke:none"
           d="m 128.024,32.152 h 1.4 v -2.9 h -1.4 z" /><path
           id="path640"
           style="fill:#c68549;fill-opacity:1;fill-rule:nonzero;stroke:none"
           d="m 124.025,32.152 h 1.399 v -2.9 h -1.399 z" /><path
           id="path642"
           style="fill:#ffbe94;fill-opacity:1;fill-rule:nonzero;stroke:none"
           d="m 124.025,33.152 h 19.397 v -1.1 h -19.397 z" /><path
           id="path644"
           style="fill:#c97c37;fill-opacity:1;fill-rule:nonzero;stroke:none"
           d="m 140.223,39.652 h 0.7 v -5.6 h -0.7 z" /><path
           id="path646"
           style="fill:#c97c37;fill-opacity:1;fill-rule:nonzero;stroke:none"
           d="m 138.224,39.952 h 0.699 v -5.899 h -0.699 z" /><path
           id="path648"
           style="fill:#c97c37;fill-opacity:1;fill-rule:nonzero;stroke:none"
           d="m 136.224,40.553 h 0.699 v -6.5 h -0.699 z" /><path
           id="path650"
           style="fill:#c97c37;fill-opacity:1;fill-rule:nonzero;stroke:none"
           d="m 134.424,40.553 h 0.7 v -6.5 h -0.7 z" /><path
           id="path652"
           style="fill:#c97c37;fill-opacity:1;fill-rule:nonzero;stroke:none"
           d="m 132.524,40.452 h 0.699 v -6.399 h -0.699 z" /><path
           id="path654"
           style="fill:#c97c37;fill-opacity:1;fill-rule:nonzero;stroke:none"
           d="m 130.524,40.053 h 0.7 v -6.101 h -0.7 z" /><path
           id="path656"
           style="fill:#c97c37;fill-opacity:1;fill-rule:nonzero;stroke:none"
           d="m 128.725,39.452 h 0.7 v -5.6 h -0.7 z" /><g
           transform="translate(124.0254,33.1523)"
           id="g658"><path
             id="path660"
             style="fill:#ef8c39;fill-opacity:1;fill-rule:nonzero;stroke:none"
             d="M 0,0 H 19.397 V 0.9 H 9.599 0.8 C 0.323,0.951 -0.052,0.715 -0.112,0.429 -0.15,0.246 -0.054,0.078 0,0" /></g><g
           transform="translate(142.0225,33.9521)"
           id="g662"><path
             id="path664"
             style="fill:#ef8c39;fill-opacity:1;fill-rule:nonzero;stroke:none"
             d="M 0,0 H 1.4 V 5.9 C 1.3,6.2 1,6.5 0.7,6.5 0.4,6.5 0.101,6.3 0,6 Z" /></g><g
           transform="translate(126.4248,33.9521)"
           id="g666"><path
             id="path668"
             style="fill:#ef8c39;fill-opacity:1;fill-rule:nonzero;stroke:none"
             d="M 0,0 H 1.5 V 5.8 C 1.399,6.101 1.1,6.3 0.8,6.3 0.4,6.3 0.1,6.101 -0.1,5.8 0,3.9 0,2 0,0" /></g><path
           id="path670"
           style="fill:#ffbe94;fill-opacity:1;fill-rule:nonzero;stroke:none"
           d="m 139.723,36.553 h 2.899 v -0.801 h -2.899 z" /><path
           id="path672"
           style="fill:#ffbe94;fill-opacity:1;fill-rule:nonzero;stroke:none"
           d="m 123.925,36.553 h 2.9 v -0.801 h -2.9 z" /><g
           transform="translate(142.0225,38.5527)"
           id="g674"><path
             id="path676"
             style="fill:#dd834a;fill-opacity:1;fill-rule:nonzero;stroke:none"
             d="m 0,0 c -1.199,0.6 -3.699,1.8 -6.999,1.8 -3.399,0 -5.999,-1.2 -7.099,-1.901 V 0.8 c 1.2,0.599 3.7,1.8 7.2,1.8 3.298,0 5.798,-1.1 6.999,-1.8 z" /></g><g
           transform="translate(37.1372,27.9512)"
           id="g678"><path
             id="path680"
             style="fill:#819f00;fill-opacity:1;fill-rule:nonzero;stroke:none"
             d="m 0,0 c -0.5,-0.088 -0.9,-0.442 -0.9,-1.149 0,-0.531 0.4,-1.061 0.9,-1.15 h 131.282 c 0.599,0 1.2,0.443 1.099,1.15 -0.099,0.353 -0.299,0.619 -0.399,0.795 -0.3,0.266 -0.601,0.354 -0.8,0.354 -4.399,0 -29.696,-0.088 -34.096,-0.088 -0.299,0.795 -1,1.237 -1.899,1.237 -0.9,0.089 -1.7,-0.353 -2.1,-1.149 -1.7,1.769 -2.799,1.945 -3.399,1.769 -1.101,-0.266 -2.2,-1.946 -2.2,-1.946 H 51.793 c -0.2,1.239 -1.2,2.122 -2.3,2.299 -1.3,0.089 -2.599,-0.884 -2.899,-2.033 -0.301,0.973 -1.2,1.414 -2.1,1.414 -0.8,-0.088 -1.5,-0.53 -1.9,-1.414 z" /></g><g
           transform="translate(54.335,20.8525)"
           id="g682"><path
             id="path684"
             style="fill:#dff9ff;fill-opacity:1;fill-rule:nonzero;stroke:none"
             d="m 0,0 h -3.2 c -0.4,0 -0.699,0.3 -0.699,0.7 0,0.4 0.299,0.699 0.699,0.699 h 3.1 C 0.3,1.399 0.6,1.1 0.6,0.7 0.7,0.3 0.3,0 0,0" /></g><g
           transform="translate(74.832,19.1523)"
           id="g686"><path
             id="path688"
             style="fill:#dff9ff;fill-opacity:1;fill-rule:nonzero;stroke:none"
             d="m 0,0 h -17.297 c -0.401,0 -0.701,0.3 -0.701,0.7 0,0.4 0.3,0.7 0.701,0.7 H 0 C 0.4,1.4 0.7,1.1 0.7,0.7 0.6,0.3 0.4,0 0,0" /></g><g
           transform="translate(71.5327,10.5527)"
           id="g690"><path
             id="path692"
             style="fill:#dff9ff;fill-opacity:1;fill-rule:nonzero;stroke:none"
             d="m 0,0 h -3.1 c -0.4,0 -0.7,0.3 -0.7,0.699 0,0.401 0.3,0.7 0.7,0.7 H 0 C 0.4,1.399 0.7,1.1 0.7,0.699 0.8,0.3 0.4,0 0,0" /></g><g
           transform="translate(158.4199,20.8525)"
           id="g694"><path
             id="path696"
             style="fill:#dff9ff;fill-opacity:1;fill-rule:nonzero;stroke:none"
             d="M 0,0 H 1.5 C 1.9,0 2.2,0.3 2.2,0.7 2.2,1.1 1.9,1.399 1.5,1.399 H 0 C -0.399,1.399 -0.699,1.1 -0.699,0.7 -0.699,0.3 -0.399,0 0,0" /></g><g
           transform="translate(138.5234,10.5527)"
           id="g698"><path
             id="path700"
             style="fill:#dff9ff;fill-opacity:1;fill-rule:nonzero;stroke:none"
             d="m 0,0 h 3.1 c 0.399,0 0.699,0.3 0.699,0.699 0,0.401 -0.3,0.7 -0.699,0.7 H 0 C -0.4,1.399 -0.7,1.1 -0.7,0.699 -0.601,0.3 -0.3,0 0,0" /></g><g
           transform="translate(135.4238,19.8525)"
           id="g702"><path
             id="path704"
             style="fill:#dff9ff;fill-opacity:1;fill-rule:nonzero;stroke:none"
             d="m 0,0 h 17.297 c 0.4,0 0.7,0.3 0.7,0.7 0,0.4 -0.3,0.699 -0.7,0.699 H 0 C -0.4,1.399 -0.7,1.1 -0.7,0.7 -0.7,0.3 -0.4,0 0,0" /></g><g
           transform="translate(187.5332,39.708)"
           id="g706"><path
             id="path708"
             style="fill:#adce52;fill-opacity:1;fill-rule:nonzero;stroke:none"
             d="m 0,0 c -0.2,-0.6 -0.7,-0.6 -1,-1.199 0,0 -0.3,-0.601 -0.4,-1.401 -0.1,-1.599 1.299,-4 3.7,-4.9 0.599,-0.199 2.599,-0.8 4.2,0.301 0.5,0.399 0.899,0.8 1.1,1.099 0.299,0 1.1,-0.2 1.9,0.3 0.6,0.3 0.899,0.8 1.1,1.101 0.2,0.399 1,1.599 0.4,3 -0.4,1 -1.4,1.699 -2.5,1.8 C 7.399,2.301 5.5,3.7 3.6,3.7 3.399,3.7 1.399,3.601 0.6,2.4 0.2,1.801 0.1,1.101 0.1,1.101 0,0.601 0.2,0.4 0,0" /></g><g
           transform="translate(187.6484,33.6611)"
           id="g710"><path
             id="path712"
             style="fill:#9ab130;fill-opacity:1;fill-rule:nonzero;stroke:none"
             d="m 0,0 c 0.482,-0.278 1.536,-0.796 2.87,-0.746 1.057,0.04 1.938,0.424 2.257,0.566 0.102,0.046 0.265,0.107 0.458,0.227 0.8,0.5 1.3,1 1.6,1.4 C 8.232,0.994 9.404,1.19 10.072,1.912 11.08,3.002 10.644,4.967 9.546,5.606 9.026,5.91 8.453,5.86 8.142,5.806 7.954,6.33 7.538,7.277 6.642,8.166 5.689,9.111 4.669,9.521 4.132,9.693 4.64,9.616 5.946,9.346 7.085,8.247 7.844,7.514 8.211,6.718 8.385,6.247 8.55,6.237 8.776,6.211 9.034,6.135 9.972,5.857 10.768,5.089 11.087,4.239 11.738,2.508 10.474,0.281 8.859,-0.117 8.301,-0.255 7.798,-0.15 7.484,-0.053 7.235,-0.396 6.326,-1.562 4.723,-1.893 3.007,-2.247 1.175,-1.505 0,0" /></g><g
           transform="translate(193.333,38.208)"
           id="g714"><path
             id="path716"
             style="fill:#c2dc5b;fill-opacity:1;fill-rule:nonzero;stroke:none"
             d="M 0,0 C -0.084,0.233 -0.32,0.786 -0.9,1.2 -1.243,1.445 -1.579,1.551 -1.8,1.601 -1.707,1.702 -1.549,1.906 -1.5,2.2 -1.388,2.877 -1.964,3.37 -2,3.4 -1.543,2.923 -1.631,2.242 -1.985,1.995 -2.244,1.814 -2.665,1.851 -3,2.101 -2.981,2.02 -2.937,1.873 -2.816,1.737 -2.593,1.486 -2.284,1.466 -2.218,1.463 -2.355,1.448 -2.674,1.396 -2.982,1.156 -3.336,0.881 -3.461,0.529 -3.5,0.4 -3.338,0.52 -2.674,0.981 -1.736,0.898 -0.716,0.809 -0.118,0.138 0,0" /></g><g
           transform="translate(186.1611,37.3008)"
           id="g718"><path
             id="path720"
             style="fill:#c2dd4c;fill-opacity:1;fill-rule:nonzero;stroke:none"
             d="M 0,0 C 0.11,0.31 0.343,0.821 0.832,1.28 1.348,1.764 1.889,1.944 2.145,2.027 2.645,2.188 3.119,2.22 3.517,2.246 3.739,2.261 3.925,2.263 4.057,2.263 4.014,2.267 2.982,2.367 2.653,3.143 2.417,3.701 2.693,4.253 2.872,4.607 3.331,5.521 4.179,5.928 4.536,6.073 4.264,6.084 3.454,6.08 2.67,5.532 2.437,5.368 1.945,4.976 1.641,4.275 1.31,3.516 1.391,2.835 1.436,2.571 1.195,2.416 0.712,2.056 0.367,1.407 0.057,0.823 0.007,0.282 0,0" /></g><g
           transform="translate(191.4326,31.3086)"
           id="g722"><path
             id="path724"
             style="fill:#a57b66;fill-opacity:1;fill-rule:nonzero;stroke:none"
             d="M 0,0 C 0.301,-0.4 0.5,-0.601 0.7,-1 0.9,-1.4 0.9,-1.801 0.801,-2.101 H 1.9 C 1.801,-1.8 1.801,-1.3 1.9,-0.7 2.101,0.3 2.601,0.899 2.801,1.2 2.9,1.6 3.101,2 3.2,2.399 2.801,1.7 2.301,0.899 1.9,0.2 1.801,0.5 1.7,0.8 1.7,1.1 1.5,2.3 1.601,3.399 1.7,4.2 1.601,3.8 1.4,3.5 1.301,3.1 1.301,2.2 1.2,1.3 1.101,0.3 1.101,0 1,-0.3 1,-0.601 0.801,-0.5 0.7,-0.3 0.5,-0.2 -0.1,0.399 -0.399,1.1 -0.6,1.6 -0.399,0.8 -0.199,0.3 0,0" /></g><g
           transform="translate(15.2427,41.25)"
           id="g726"><path
             id="path728"
             style="fill:#adce52;fill-opacity:1;fill-rule:nonzero;stroke:none"
             d="m 0,0 c -0.2,-0.6 -0.7,-0.6 -1,-1.2 0,0 -0.3,-0.6 -0.4,-1.4 -0.1,-1.6 1.3,-4 3.7,-4.9 0.6,-0.2 2.6,-0.8 4.2,0.3 0.5,0.4 0.9,0.8 1.1,1.1 0.3,0 1.1,-0.2 1.9,0.3 0.6,0.3 0.9,0.8 1.1,1.1 0.2,0.4 1,1.6 0.4,3 C 10.6,-0.7 9.6,0 8.5,0.1 7.4,2.3 5.5,3.7 3.6,3.7 3.4,3.7 1.4,3.6 0.6,2.4 0.2,1.8 0.1,1.1 0.1,1.1 0,0.5 0.2,0.4 0,0" /></g><g
           transform="translate(15.3286,35.2334)"
           id="g730"><path
             id="path732"
             style="fill:#9ab130;fill-opacity:1;fill-rule:nonzero;stroke:none"
             d="m 0,0 c 0.497,-0.258 1.505,-0.698 2.814,-0.684 0.401,0.005 1.291,0.051 2.242,0.474 0.101,0.045 0.26,0.113 0.458,0.227 C 6.29,0.459 6.757,1.045 7.018,1.44 7.096,1.4 8.274,0.835 9.414,1.517 10.207,1.99 10.67,2.88 10.614,3.816 10.587,4.078 10.505,4.459 10.251,4.829 9.531,5.881 8.111,5.831 7.989,5.825 7.862,6.312 7.58,7.125 6.914,7.917 5.859,9.172 4.52,9.564 4.02,9.684 4.195,9.662 4.445,9.622 4.736,9.542 4.949,9.484 6.015,9.176 7.014,8.217 7.797,7.465 8.186,6.652 8.374,6.165 8.534,6.17 8.737,6.159 8.964,6.104 9.42,5.994 9.74,5.765 9.914,5.616 10.616,5.103 10.879,4.54 10.987,4.238 11.596,2.528 10.35,0.26 8.72,-0.121 8.246,-0.232 7.816,-0.165 7.514,-0.083 7.21,-0.506 6.446,-1.437 5.149,-1.815 3.386,-2.33 1.366,-1.613 0,0" /></g><g
           transform="translate(21.043,39.6504)"
           id="g734"><path
             id="path736"
             style="fill:#c2dc5b;fill-opacity:1;fill-rule:nonzero;stroke:none"
             d="M 0,0 C 0.1,0.1 -0.3,0.8 -0.9,1.199 -1.3,1.5 -1.6,1.6 -1.8,1.6 c 0.1,0.099 0.2,0.299 0.3,0.599 0.1,0.7 -0.4,1.2 -0.5,1.2 0,0 0.3,-0.5 0.1,-1 C -1.9,2.199 -2,2.1 -2.1,2 -2.2,2 -2.4,2.1 -2.7,2.1 H -3 C -3,2 -2.9,1.899 -2.2,1.3 -2.3,1.3 -2.7,1.3 -3,1.1 -3.4,0.899 -3.5,0.5 -3.5,0.399 -3.3,0.399 -3.2,0.5 -3,0.5 -2.7,0.6 -2.3,0.699 -1.8,0.6 -0.9,0.8 -0.2,-0.101 0,0" /></g><g
           transform="translate(13.8755,38.8682)"
           id="g738"><path
             id="path740"
             style="fill:#c2dd4c;fill-opacity:1;fill-rule:nonzero;stroke:none"
             d="M 0,0 C 0.385,0.883 0.885,1.392 1.189,1.653 1.503,1.923 1.714,2.019 1.815,2.06 2.439,2.314 3.037,2.173 3.305,2.09 3.175,2.175 2.581,2.581 2.475,3.303 2.393,3.858 2.647,4.286 2.84,4.609 3.366,5.493 4.204,5.896 4.622,6.059 4.358,6.048 2.833,5.967 2.028,4.867 1.521,4.175 1.38,3.188 1.34,2.909 1.302,2.646 1.291,2.423 1.287,2.265 1.013,2.075 0.581,1.723 0.34,1.209 0.218,0.949 0.124,0.604 0.115,0.571 0.053,0.345 0.02,0.147 0,0" /></g><g
           transform="translate(18.9429,32.4502)"
           id="g742"><path
             id="path744"
             style="fill:#a57b66;fill-opacity:1;fill-rule:nonzero;stroke:none"
             d="M 0,0 C 0.3,-0.601 0.6,-0.8 0.8,-1.3 1.1,-2.101 1,-2.8 0.9,-3.3 H 2.2 C 2.1,-2.8 2.1,-2 2.3,-1 2.5,0.2 3,1 3.4,1.5 3.5,2 3.7,2.6 3.8,3.1 3.3,2.1 2.8,1.2 2.3,0.2 2.2,0.6 2.1,1 2,1.399 1.7,3 1.9,4.399 2,5.5 1.8,5 1.7,4.5 1.5,4 1.5,2.8 1.4,1.6 1.3,0.3 1.3,-0.101 1.2,-0.5 1.2,-1 1,-0.8 0.8,-0.601 0.7,-0.4 0,0.399 -0.3,1.3 -0.6,2 -0.5,1 -0.3,0.399 0,0" /></g><g
           transform="translate(12.5435,41.5225)"
           id="g746"><path
             id="path748"
             style="fill:#9ab130;fill-opacity:1;fill-rule:nonzero;stroke:none"
             d="M 0,0 C 0.1,0.199 -0.1,1.1 -0.6,1.1 -0.7,1.1 -1,0.899 -1,0.8 -1,0.3 -0.2,-0.2 0,0" /></g><g
           transform="translate(12.7852,46.958)"
           id="g750"><path
             id="path752"
             style="fill:#9ab130;fill-opacity:1;fill-rule:nonzero;stroke:none"
             d="M 0,0 C -0.1,0.2 -1.1,0.3 -1.4,-0.2 -1.5,-0.4 -1.5,-0.7 -1.3,-0.8 -0.9,-1 0.1,-0.3 0,0" /></g><g
           transform="translate(202.584,37.4619)"
           id="g754"><path
             id="path756"
             style="fill:#9ab130;fill-opacity:1;fill-rule:nonzero;stroke:none"
             d="M 0,0 C 0.1,0.2 -0.1,1.1 -0.6,1.1 -0.7,1.1 -1,0.9 -1,0.8 -0.9,0.3 -0.1,-0.2 0,0" /></g><g
           transform="translate(199.7607,43.3506)"
           id="g758"><path
             id="path760"
             style="fill:#9ab130;fill-opacity:1;fill-rule:nonzero;stroke:none"
             d="M 0,0 C -0.101,0.2 -1.101,0.3 -1.4,-0.2 -1.5,-0.4 -1.5,-0.7 -1.3,-0.8 -0.9,-1 0.1,-0.3 0,0" /></g><g
           transform="translate(185.4014,40.2109)"
           id="g762"><path
             id="path764"
             style="fill:#9ab130;fill-opacity:1;fill-rule:nonzero;stroke:none"
             d="M 0,0 C -0.1,0.2 -1.1,0.3 -1.399,-0.2 -1.5,-0.4 -1.5,-0.7 -1.3,-0.8 -0.899,-1 0.101,-0.3 0,0" /></g><g
           transform="translate(29.1216,36.3643)"
           id="g766"><path
             id="path768"
             style="fill:#9ab130;fill-opacity:1;fill-rule:nonzero;stroke:none"
             d="M 0,0 C 0.095,0.202 -0.446,1.049 -1.024,0.975 -1.244,0.93 -1.479,0.743 -1.434,0.524 -1.343,0.087 -0.174,-0.265 0,0" /></g></g></g><text
       id="text772"
       style="font-variant:normal;font-weight:normal;font-stretch:normal;font-size:6.51440001px;font-family:Georgia;-inkscape-font-specification:Georgia;writing-mode:lr-tb;fill:#ef8c39;fill-opacity:1;fill-rule:nonzero;stroke:none"
       transform="matrix(1,0,0,-1,83.4307,19.1523)"><tspan
         id="tspan770"
         y="0"
         x="0 5.2636352 8.7748966 11.732434 15.015692 18.663755 22.650568 24.220539 27.868603 31.015059 34.734779 37.881237 41.255695"> </tspan></text>
<text
       id="text778"
       style="font-variant:normal;font-weight:normal;font-stretch:normal;font-size:2.57310009px;font-family:Georgia;-inkscape-font-specification:Georgia;writing-mode:lr-tb;fill:#bcbcbc;fill-opacity:1;fill-rule:nonzero;stroke:none"
       transform="matrix(1,0,0,-1,78.641068,11.9521)"><tspan
         id="tspan774"
         y="0"
         x="0 1.6828074 3.2575445 3.8776617 5.097311 6.9370775 8.3239784 10.349009 11.591816 13.812401 14.432518 15.981524 17.368425 18.536612 19.833454 21.274391 22.849129 24.061058 25.635796 26.255913 27.695305 28.939655 30.408895 31.651703 32.98457 34.371471 34.991589 36.324451 36.944569 38.112759 39.445621 40.832523 42.08305 43.922817 45.188782 45.808899 47.648666 48.402584 49.57077 50.782703 51.536621 52.156738 53.368668 54.665508">        </tspan><tspan
         id="tspan776"
         y="3.0877199"
         x="5.2002349 6.7479548 8.2171946 9.7919321 11.042459 12.483395 14.050412 15.347255 16.559185 18.133923 19.412752 20.58094 21.859772 22.479889 23.920824 25.307726 25.927843 27.397081 28.663048 29.962463 31.228428 31.848545 33.068195 34.365036 35.664452 37.239189 38.407375 39.619308 40.885273 41.50539 42.945038 44.187847 45.657085 46.899895">    </tspan></text>
</g></svg>