<?xml version="1.0" encoding="utf-8"?>
<!-- Generator: Adobe Illustrator 24.1.2, SVG Export Plug-In . SVG Version: 6.00 Build 0)  -->
<svg version="1.1" id="Слой_1" xmlns="http://www.w3.org/2000/svg" xmlns:xlink="http://www.w3.org/1999/xlink" x="0px" y="0px"
	 viewBox="0 0 210 115" preserveAspectRatio="none" style="enable-background:new 0 0 216 104.5;" xml:space="preserve">
<style type="text/css">
	.st0{fill:#DFF9FF;}
	.st1{fill:#EEFCFF;}
	.st2{fill:#CCF0FF;}
	.st3{fill:#C8E7FF;}
	.st4{fill:#C9E8FE;}
	.st5{fill:#C4E7FF;}
	.st6{fill:#B7E0FF;}
	.st7{fill:#B8E0FF;}
	.st8{fill:#9BAD4F;}
	.st9{fill:#ABCD2D;}
	.st10{fill:#ADCE52;}
	.st11{fill:#9AB130;}
	.st12{fill:#C2DC5B;}
	.st13{fill:#C2DD4C;}
	.st14{fill:#A57B66;}
	.st15{fill:#ED9D55;}
	.st16{fill:#FDC06C;}
	.st17{fill:#D48552;}
	.st18{fill:#FA9742;}
	.st19{fill:#CD8854;}
	.st20{fill:#D5864A;}
	.st21{fill:#7EBBE8;}
	.st22{fill:#64656E;}
	.st23{fill:#848484;}
	.st24{fill:#736D6F;}
	.st25{fill:#7B7C7A;}
	.st26{fill:#6C737C;}
	.st27{fill:#F6D04C;}
	.st28{fill:#C68549;}
	.st29{fill:#FFBE94;}
	.st30{fill:#C97C37;}
	.st31{fill:#EF8C39;}
	.st32{fill:#DD834A;}
	.st33{fill:#819F00;}
</style>
<g id="Слой_2_1_">
	<rect y="0.5" class="st0" width="216" height="81.1"/>
	<g>
		<path class="st1" d="M34.7,19.5c0.8-0.3,3.7-1.3,6.9-0.1c3,1.2,4.4,3.6,5.1,4.7c1,1.7,1.4,3.3,1.6,4.3c0.6-0.3,2.8-1.4,5.5-0.8
			c3.8,0.9,5.3,4.4,5.5,4.8c0.1-0.2,0.8-1.3,2.1-1.6c1.3-0.2,2.7,0.6,3.3,2.1c0.4-0.5,2.9-4.2,7.7-4.7c5.9-0.6,9.5,4.2,9.7,4.4
			c1.1-1.5,2.5-2.9,3.6-2.6c3.9,1.1,7.2,25.2-5.7,38.1c-10.5,10.5-29.7,11.8-45.3,1.4C34.7,52.9,34.7,36.2,34.7,19.5z"/>
		<path class="st1" d="M0,28.5c1.2-0.4,2.5-0.5,4-0.4c4.8,0.5,7.3,4.2,7.7,4.7c0.6-1.5,2-2.3,3.3-2.1c1.3,0.3,2,1.4,2.1,1.6
			c0.2-0.4,1.7-3.9,5.5-4.8c2.7-0.6,4.9,0.5,5.5,0.8c0.2-1,0.6-2.6,1.6-4.3c0.7-1.1,2.1-3.5,5.1-4.7c3.2-1.2,6.1-0.2,6.9,0.1
			c0,16.7,0,33.4,0,50C27.7,78.7,11,78.7,0.1,71.1"/>
	</g>
	<g>
		<path class="st1" d="M215.9,70.1c-10.9,7.9-28,8.1-42.1-1.3c0-16.6,0-33.3,0-50c0.8-0.3,3.7-1.3,6.9-0.1c3,1.2,4.4,3.6,5.1,4.7
			c1,1.7,1.4,3.3,1.6,4.3c0.6-0.3,2.8-1.4,5.5-0.8c3.8,0.9,5.3,4.4,5.5,4.8c0.1-0.2,0.8-1.3,2.1-1.6c1.3-0.2,2.7,0.6,3.3,2.1
			c0.4-0.5,2.9-4.2,7.7-4.7c1.7-0.2,3.2,0.1,4.5,0.6"/>
		<path class="st1" d="M181.6,19.1c-0.7-0.3-4.5-1.7-8.3,0.2c-0.7,0.4-3.2,1.6-4.2,4.4c-0.7,1.9-0.5,3.5-0.4,4.3
			c-3.4-2.2-5.4-2.2-6.6-1.6c-2.1,1-2.4,4-4.2,4.1c-1.2,0-1.8-1.3-3.5-1.1c-0.9,0.1-1.6,0.5-1.7,0.6c-1.1,0.6-1.1,1.3-1.7,1.4
			c-1,0.3-1.7-1.4-3.5-2.6c-2.4-1.6-5.2-1.3-5.6-1.3c-3,0.4-4.8,2.4-5.4,3c-0.9,14.3-1.7,28.6-2.6,42.9c15.9,0.6,31.8,1.1,47.7,1.7
			C181.6,56.4,181.6,37.7,181.6,19.1z"/>
	</g>
	<g>
		<path class="st2" d="M78.4,38c1.8-1.4,3.6-2.8,5.4-4.2c0.1-3,0.2-6,0.4-9c5.2,0,10.4-0.1,15.7-0.1c0,4.1,0,8.2,0,12.3
			c0.7,0,1.5,0,2.2,0c0-3.4,0.1-6.8,0.1-10.2c1.1,0,2.2-0.1,3.4-0.1c0-3.1,0-6.2,0-9.4c3.2,0.1,6.4,0.1,9.6,0.2c1.1,2,2.5,5,3,9
			c0.4,2.6,0.3,4.9,0.1,6.7c0.9,0,1.9-0.1,2.8-0.1c0.1,1.4,0.3,2.7,0.4,4.1c1,0,2.1,0.1,3.1,0.1c0-2.1,0-4.3,0-6.4
			c1.2,0,2.4,0,3.7,0.1c0,0.4,0,0.8,0,1.1c1.7,0,3.4,0,5.1,0c0-0.4,0-0.7,0-1.1c1.2,0,2.4,0,3.6,0c0,2.1,0,4.2,0,6.2
			c2.6,0,5.2,0,7.8,0c0,2.9-0.1,5.9-0.1,8.8c-0.1,7.1-0.1,14.2-0.2,21.3c-22.3,0.5-44.6,0.9-66.8,1.4C78.1,58.4,78.3,48.2,78.4,38z"
			/>
		<rect x="91.2" y="27.7" class="st3" width="1.4" height="11.5"/>
		<rect x="88.8" y="27.7" class="st3" width="1.4" height="11.5"/>
		<rect x="93.8" y="27.7" class="st3" width="1.4" height="11.5"/>
		<rect x="96.2" y="27.7" class="st3" width="1.4" height="11.5"/>
		<rect x="86.3" y="27.7" class="st3" width="1.4" height="11.5"/>
		<path class="st3" d="M84.1,54.4h-1c0-6.6-0.1-13.2-0.1-19.9l0.4-0.3l0.6-0.4C83.9,40.7,84.1,47.5,84.1,54.4z"/>
		<rect x="108.7" y="20.2" class="st3" width="1.9" height="1.1"/>
		<rect x="111.5" y="20.2" class="st3" width="1.9" height="1.1"/>
		<rect x="111.5" y="22.6" class="st3" width="1.9" height="1.5"/>
		<rect x="105.8" y="28.1" class="st3" width="1.9" height="1.3"/>
		<rect x="108.7" y="31.2" class="st3" width="1.9" height="1.3"/>
		<rect x="105.8" y="31.2" class="st3" width="1.9" height="1.3"/>
		<rect x="126.8" y="35.3" class="st3" width="1.9" height="1.3"/>
		<rect x="129.8" y="35.3" class="st3" width="1.9" height="1.3"/>
		<rect x="133.1" y="35.3" class="st3" width="1.9" height="1.3"/>
		<rect x="132.9" y="39.5" class="st3" width="2.5" height="1.3"/>
		<rect x="133.1" y="37.4" class="st3" width="1.9" height="1.3"/>
		<rect x="129.8" y="37.4" class="st3" width="1.9" height="1.3"/>
		<rect x="142.8" y="38.9" class="st3" width="0.7" height="8.2"/>
		<rect x="140.8" y="38.9" class="st3" width="0.7" height="6.7"/>
		<rect x="139.1" y="38.9" class="st3" width="0.7" height="4.6"/>
		<rect x="137.3" y="38.9" class="st3" width="0.7" height="3.4"/>
		<path class="st4" d="M124.8,33.1c4.1,0,8.2,0.1,12.4,0.1c0-0.8,0-1.5,0-2.3c-1.2,0-2.4,0-3.6,0c0,0.4,0,0.7,0,1.1
			c-1.7,0-3.4,0-5.1,0c0-0.4,0-0.8,0-1.1c-1.2,0-2.4,0-3.7-0.1C124.8,31.5,124.8,32.3,124.8,33.1z"/>
		<path class="st4" d="M100,38.4c1.3,0,2.5,0,3.8-0.1c0-3.6,0-7.2,0-10.9c1.2-0.1,2.5-0.1,3.7-0.2c0-3.3,0-6.7,0-10
			c-0.6,0-1.1,0-1.7,0c0,3.1,0,6.2,0,9.3c-1.1,0-2.2,0.1-3.4,0.1c0,3.4-0.1,6.8-0.1,10.2c-0.7,0-1.5,0-2.2,0
			C100,37.4,100,37.9,100,38.4z"/>
		<path class="st4" d="M144.9,37.8h-7.8v-0.6c2.6,0,5.2,0,7.8,0C144.9,37.3,144.9,37.6,144.9,37.8z"/>
	</g>
	<g>
		<g>
			<path class="st5" d="M216,81.8h-36V51.1h3.2v5.5h3.1V51l6.4-0.1v8h4.5V45.2h2.8v-2h5.8v1.9l3-0.1v7.5h5.1c0-1.9,0-3.9,0-5.8
				c0.7,0,1.4,0,2.1,0"/>
			<rect x="204.3" y="46.5" class="st6" width="1.3" height="2.2"/>
			<rect x="201.9" y="46.5" class="st6" width="1.3" height="2.2"/>
			<rect x="199.7" y="46.5" class="st6" width="1.3" height="2.2"/>
			<rect x="199.7" y="49.7" class="st6" width="1.3" height="2.2"/>
			<rect x="199.7" y="52.9" class="st6" width="1.3" height="2.2"/>
			<rect x="201.9" y="49.7" class="st6" width="1.3" height="2.2"/>
			<rect x="201.9" y="52.9" class="st6" width="1.3" height="2.2"/>
			<rect x="205.9" y="45" class="st6" width="3" height="0.5"/>
			<rect x="200" y="43.2" class="st6" width="5.8" height="0.5"/>
			<rect x="197.2" y="45.3" class="st6" width="2.8" height="0.5"/>
			<rect x="186.3" y="51.1" class="st6" width="6.4" height="0.5"/>
			<rect x="179.9" y="51.1" class="st6" width="3.2" height="0.5"/>
			<polyline class="st6" points="214.4,46.6 216,46.6 216,47.4 214,47.4 214,46.6 214.4,46.6 			"/>
		</g>
		<g>
			<path class="st5" d="M0,45.7c0.7,0,1.4,0,2.1,0c0,1.9,0,3.9,0,5.8h5.1V44l3,0.1v-1.9H16v2h2.8V58h4.5v-8l6.4,0.1v5.6h3.1v-5.5H36
				v30.6H0"/>
			<rect x="10.4" y="45.5" class="st6" width="1.3" height="2.2"/>
			<rect x="12.8" y="45.5" class="st6" width="1.3" height="2.2"/>
			<rect x="15" y="45.5" class="st6" width="1.3" height="2.2"/>
			<rect x="15" y="48.7" class="st6" width="1.3" height="2.2"/>
			<rect x="15" y="51.9" class="st6" width="1.3" height="2.2"/>
			<rect x="12.8" y="48.7" class="st6" width="1.3" height="2.2"/>
			<rect x="12.8" y="51.9" class="st6" width="1.3" height="2.2"/>
			<rect x="7.1" y="44" class="st6" width="3" height="0.5"/>
			<rect x="10.2" y="42.2" class="st6" width="5.8" height="0.5"/>
			<rect x="16" y="44.3" class="st6" width="2.8" height="0.5"/>
			<rect x="23.3" y="50.1" class="st6" width="6.4" height="0.5"/>
			<polyline class="st6" points="1.6,45.7 2,45.7 2,46.5 0,46.5 0,45.7 1.6,45.7 			"/>
		</g>
	</g>
	<g>
		<path class="st5" d="M34.7,50.2h3.6V46c0.2-1.4,1.4-2.4,2.7-2.2c1.1,0.1,2,1.1,2.1,2.2c0,1.3,0,2.7,0,4l5.7-0.1v5.9
			c1.5,0,3,0,4.5,0c0-3.5-0.1-7-0.1-10.5l3.2-4.7H61l0.2,11.7l4.3,0.1v-8.9c0.9,0,1.7,0,2.6,0c0,1,0,1.9,0,2.9c1.3,0,2.7,0,4,0
			c0-1.9,0-3.9,0-5.8l3-4.1c1.2,1.4,2.4,2.7,3.6,4.1c-0.1,4.6-0.1,9.1-0.2,13.7h9.4V43.6c2.3,0,4.6,0,6.8,0c0,1,0,2.1,0,3.1h10.9
			c0-1,0-2.1,0-3.1c1.8,0,3.7,0,5.5,0c0,1,0,2,0,3h1.8v4.3l6.8-1.4v-3.4c1.5-1,3-1.9,4.6-2.9c1.7,0,3.3,0,5,0v9.9h7.7v-6.5
			c3.5,0,7.1,0,10.6,0c0,1.9,0,3.9,0,5.8h5.1v-7.5l3,0.1v-1.9h5.8v2h2.8v13.8h4.5v-8l6.4,0.1v5.6h3.1V51h3.2v30.6H34.7V50.2z"/>
		<rect x="38" y="50.9" class="st6" width="1.1" height="9.4"/>
		<rect x="40.2" y="50.9" class="st6" width="1.1" height="9.4"/>
		<rect x="42.3" y="50.9" class="st6" width="1.1" height="9.4"/>
		<path class="st6" d="M38.3,46c1.6,0,3.2,0,4.7,0c-0.1-1.2-1.1-2.2-2.3-2.2C39.5,43.7,38.4,44.7,38.3,46z"/>
		<rect x="56.2" y="44.1" class="st6" width="1" height="2.1"/>
		<rect x="58.4" y="44.1" class="st6" width="1" height="2.1"/>
		<rect x="56.2" y="47.4" class="st6" width="1" height="2.1"/>
		<rect x="56.2" y="51.1" class="st6" width="1" height="2.1"/>
		<rect x="70.6" y="50.7" class="st6" width="1.7" height="1.2"/>
		<rect x="70.6" y="48.7" class="st6" width="1.7" height="1.2"/>
		<rect x="67.4" y="48.7" class="st6" width="1.7" height="1.2"/>
		<rect x="122.3" y="46.8" class="st6" width="1.7" height="1.2"/>
		<rect x="122.3" y="49" class="st6" width="1.7" height="1.2"/>
		<rect x="125.1" y="49" class="st6" width="1.7" height="1.2"/>
		<rect x="125.1" y="46.8" class="st6" width="1.7" height="1.2"/>
		<rect x="122.3" y="53.3" class="st6" width="1.7" height="1.2"/>
		<rect x="155.8" y="46.4" class="st6" width="1.3" height="2.2"/>
		<rect x="158.3" y="46.4" class="st6" width="1.3" height="2.2"/>
		<rect x="160.4" y="46.4" class="st6" width="1.3" height="2.2"/>
		<rect x="160.4" y="49.6" class="st6" width="1.3" height="2.2"/>
		<rect x="160.4" y="52.8" class="st6" width="1.3" height="2.2"/>
		<rect x="158.3" y="49.6" class="st6" width="1.3" height="2.2"/>
		<rect x="158.3" y="52.8" class="st6" width="1.3" height="2.2"/>
		<polygon class="st6" points="53,45.7 56.2,41.6 60.4,41.6 60.4,42.6 61,42.6 60.9,40.6 56.3,40.6 53,45.3 		"/>
		<polygon class="st6" points="71.9,40.6 78.6,40.6 74.9,36.4 		"/>
		<rect x="152.6" y="44.9" class="st6" width="3" height="0.5"/>
		<rect x="155.6" y="43.1" class="st6" width="5.8" height="0.5"/>
		<rect x="161.4" y="45.2" class="st6" width="2.8" height="0.5"/>
		<rect x="168.8" y="51" class="st6" width="6.4" height="0.5"/>
		<rect x="178.3" y="51" class="st6" width="3.2" height="0.5"/>
		<rect x="65.3" y="43.5" class="st6" width="2.6" height="0.6"/>
		<rect x="67.9" y="46.4" class="st6" width="4" height="0.5"/>
		<rect x="87.8" y="43.6" class="st6" width="6.8" height="0.5"/>
		<rect x="105.6" y="43.5" class="st6" width="5.5" height="0.5"/>
		<path class="st6" d="M129.1,44c-2,0-4.1,0-6.1,0c0.4-0.2,0.7-0.5,1.1-0.7c1.7,0,3.3,0,5,0C129.1,43.5,129.1,43.7,129.1,44z"/>
		<rect x="136.8" y="46.6" class="st6" width="10.6" height="0.8"/>
	</g>
	<path class="st7" d="M216,81c-35.1-0.4-70.3-0.8-105.5-1.2c0-2.9,0.9-4.2,1.6-4.8c1-0.8,2-0.3,3.9-1c2.3-0.9,2.1-2,3.6-2.6
		c3-1.2,4.9,2.6,8.6,1.9c2.4-0.5,2.3-2.1,4.9-2.7c2.7-0.6,3.8,0.7,6.7,1.1c6.1,1,7.5-3.5,12.9-2.5c4.5,0.8,6,4.3,8.6,3.3
		c2.5-1,1.9-4.5,4.8-5.6c2.4-0.9,4.2,1,5.9-0.3c1.2-1,0.7-2.2,1.7-3.1c0.9-0.7,2.3-0.7,8.9,1.5c4.5,1.5,5.7,2.1,7.5,1.5
		c1.7-0.5,1.7-1.5,3.3-1.7c1-0.2,2.2,0,6.3,2.7c4.4,2.8,4.9,3.7,6.4,3.6c2.1-0.1,2.2-1.8,4.5-2.5c1.8-0.6,3,0.1,5.2,1"/>
	<path class="st7" d="M25.5,72.3c3.1-0.5,3-2.1,6.5-2.7s5,0.7,8.9,1.1c8,1,9.9-3.5,17.1-2.5c6,0.8,7.9,4.3,11.4,3.3
		c3.3-1,2.5-4.5,6.4-5.6c3.1-0.9,5.5,1,7.8-0.3c1.6-1,0.9-2.2,2.3-3.1c1.1-0.7,3-0.7,11.8,1.5c5.9,1.5,7.5,2.1,9.9,1.5
		c2.3-0.5,2.3-1.5,4.4-1.7c1.4-0.2,2.9,0,8.4,2.7c5.8,2.8,6.5,3.7,8.6,3.6c2.8-0.1,2.9-1.8,6-2.5c3.5-0.8,5.3,0.9,11.7,2.3
		c3.1,0.7,6.5,1.1,13.3,1.8c6.3,0.6,9.4,0.7,11.2,2.6c1,1.1,1.6,2.9,2.6,2.9c0.5,0,0.6-0.7,1.4-1c1.1-0.5,3.4-0.1,4.4,1.2
		c0.6,0.9,0.5,2-0.3,2.9c-59.1-0.5-118.4-1-177.6-1.5c0-2.9,1.1-4.2,2.1-4.8c1.4-0.8,2.6-0.3,5.2-1c3-0.9,2.8-2,4.8-2.6
		C18.1,69.2,20.6,73,25.5,72.3z"/>
	<g>
		<path class="st8" d="M80.2,76.2c0.2-1.4,2.6-2.2,4.5-2.2c2.6,0,3.3,1.5,4.9,0.9c1.6-0.6,1.2-2.2,3.2-3.2c0.2-0.1,2.3-1.1,4.1,0
			c1.2,0.7,1.7,1.9,1.9,2.3c0.2,0,0.4,0,0.6,0c0-0.1,0.6-1.6,2.1-2c1.4-0.4,2.5,0.3,2.6,0.4c0.1-0.3,1.1-1.8,3-2.2
			c2-0.4,3.5,0.8,3.8,1c1.4,1.1,1.8,2.7,1.8,3.1c0.2-0.1,1.1-0.6,2.2-0.4c0.7,0.1,1.1,0.5,1.4,0.6c0.2-0.1,1.1-0.8,2.3-0.7
			c1.5,0.2,2.3,1.5,2.4,1.6c0.7,1,1.4,2,2.1,2.9c-13.9,0-27.9,0-41.8,0C80.8,77.8,80.1,77,80.2,76.2z"/>
		<path class="st8" d="M158.9,76.8c0.3-1.4,3.4-2.2,5.8-2.2c3.4,0,4.3,1.5,6.3,0.9c2.1-0.6,1.6-2.2,4.1-3.2c0.3-0.1,3-1.1,5.3,0
			c1.6,0.7,2.2,1.9,2.5,2.3c0.3,0,0.5,0,0.8,0c0-0.1,0.8-1.6,2.7-2c1.8-0.4,3.2,0.3,3.4,0.4c0.1-0.3,1.4-1.8,3.9-2.2
			c2.6-0.4,4.5,0.8,4.9,1c1.8,1.1,2.3,2.7,2.3,3.1c0.3-0.1,1.4-0.6,2.8-0.4c0.9,0.1,1.4,0.5,1.8,0.6c0.3-0.1,1.4-0.8,3-0.7
			c1.9,0.2,3,1.5,3.1,1.6c0.9,1,1.8,2,2.7,2.9c-18,0-36.1,0-54.1,0C159.7,78.4,158.8,77.6,158.9,76.8z"/>
		<path class="st8" d="M0,72.2c0.1,0,0.2-0.1,0.3-0.1c0.3-0.1,3-1.1,5.3,0c1.6,0.7,2.2,1.9,2.5,2.3c0.3,0,0.5,0,0.8,0
			c0-0.1,0.8-1.6,2.7-2c1.8-0.4,3.2,0.3,3.4,0.4c0.1-0.3,1.4-1.8,3.9-2.2c2.6-0.4,4.5,0.8,4.9,1c1.8,1.1,2.3,2.7,2.3,3.1
			c0.3-0.1,1.4-0.6,2.8-0.4c0.9,0.1,1.4,0.5,1.8,0.6c0.3-0.1,1.4-0.8,3-0.7c1.9,0.2,3,1.5,3.1,1.6c0.9,1,1.8,2,2.7,2.9
			c-13.1,0-26.3,0-39.5,0"/>
		<path class="st9" d="M34.7,78c7.2,0,14.3,0.1,21.5,0.1c1.1-0.8,2.7-1.8,4.9-2.5c1-0.3,2.5-0.7,9-0.7s8,0.4,9.2,0.8
			c1.9,0.7,3.3,1.5,4.2,2.2c12.9,0,25.9,0,38.8,0c0-1.2,0.3-1.7,0.7-1.9c0.7-0.5,1.6,0.3,2.6-0.1c0.9-0.4,0.9-1.2,1.5-1.8
			c0.7-0.7,2.1-1.1,5.9,0.1c1.2-0.6,3.6-1.8,6.8-1.8c4.2,0,7.2,1.9,8.2,2.6c1.6,0,3.4,0,5.3,0.3c3.6,0.5,6.5,1.6,8.6,2.6
			c6.9,0.1,13.9,0.2,20.8,0.2c1.5-0.5,2.9-0.8,4.3-0.9c2-0.2,2.6,0,4.2-0.3c2.3-0.4,2.8-1.1,4.2-1.4c1.5-0.3,3.7,0,6.8,2.8
			c4.6,0.1,9.1,0.1,13.7,0.2c0,1.3,0,2.6,0,3.9c-35.9-0.3-71.9-0.5-107.8-0.6c-36.1-0.1-72.1-0.1-108.2,0c0-1.2,0-2.5,0-3.7
			c2.8,0,5.6,0,8.4,0c1.4-0.6,3.8-1.6,7-1.6c3.6-0.1,6.3,0.9,7.7,1.6C27,78,30.8,78,34.7,78z"/>
		<g>
			<g>
				<g>
					<path class="st10" d="M50.7,70.3c-0.2,0.6-0.7,0.6-1,1.2c0,0-0.3,0.6-0.4,1.4c-0.1,1.6,1.3,4,3.7,4.9c0.6,0.2,2.6,0.8,4.2-0.3
						c0.5-0.4,0.9-0.8,1.1-1.1c0.3,0,1.1,0.2,1.9-0.3c0.6-0.3,0.9-0.8,1.1-1.1c0.2-0.4,1-1.6,0.4-3c-0.4-1-1.4-1.7-2.5-1.8
						c-1.1-2.2-3-3.6-4.9-3.6c-0.2,0-2.2,0.1-3,1.3c-0.4,0.6-0.5,1.3-0.5,1.3C50.7,69.7,50.9,69.9,50.7,70.3z"/>
					<path class="st11" d="M50.9,76.3C51,76.2,52,77,53.7,77c1.5,0,2.5-0.6,2.7-0.7c0.8-0.5,1.3-1,1.6-1.4c0.1,0,1.2,0.6,2.3-0.1
						c0.8-0.5,1.2-1.4,1.2-2.3c-0.1-0.8-0.6-1.4-0.8-1.5c-0.5-0.5-0.8-0.3-1.5-0.7c-0.8-0.5-0.9-1.1-1.4-1.9
						c-0.4-0.6-1.2-1.3-2.7-1.8c0.5,0.1,1.8,0.4,2.8,1.5c0.7,0.7,1.1,1.6,1.3,2c0.3,0,0.9,0.1,1.6,0.6c0.2,0.1,0.7,0.6,1,1.4
						c0.5,1.6-0.6,3.7-2.2,4.2c-0.5,0.2-1,0.1-1.3,0.1c-0.2,0.3-0.5,0.6-1,1c-0.9,0.6-1.7,0.7-2.1,0.7
						C52.8,78.3,50.8,76.5,50.9,76.3z"/>
				</g>
				<path class="st12" d="M56.5,71.8c0.1-0.1-0.3-0.8-0.9-1.2c-0.4-0.3-0.7-0.4-0.9-0.4c0.1-0.1,0.2-0.3,0.3-0.6
					c0.1-0.7-0.4-1.2-0.5-1.2c0,0,0.3,0.5,0.1,1c0,0.2-0.1,0.3-0.2,0.4c-0.1,0-0.3-0.1-0.6-0.1s-0.3,0-0.3,0c0,0.1,0.1,0.2,0.8,0.8
					c-0.1,0-0.5,0-0.8,0.2C53,70.9,53,71.3,53,71.4c0.2,0,0.3-0.1,0.5-0.1c0.3-0.1,0.7-0.2,1.2-0.1C55.7,71,56.4,71.9,56.5,71.8z"/>
				<path class="st13" d="M49.4,72.7c0.1-0.2,0.3-0.5,0.5-0.8c0.1-0.2,0.5-0.5,0.9-0.8c0.5-0.3,1-0.5,1.5-0.6
					c0.5-0.2,1.1-0.3,1.1-0.3c0-0.1-1,0.2-1.3-0.3C52,69.6,52,69.3,52,68.9c0-0.1,0.1-0.5,0.2-0.9c0.4-1,1.6-1.4,1.7-1.4
					c-0.3,0-1.1,0.1-1.8,0.6c-0.6,0.4-0.9,1-1,1.2c-0.1,0.2-0.3,0.7-0.4,1.3c0,0.3,0,0.5,0,0.7c-0.2,0.2-0.6,0.5-1,1
					C49.5,71.9,49.4,72.5,49.4,72.7z"/>
				<path class="st12" d="M49.8,72.1c0.1-0.3,0.4-0.8,1-1.3c1.1-0.8,2.3-0.7,2.6-0.6c-0.2,0-0.4,0.1-0.7,0.2c-0.1,0-0.9,0.3-1.2,0.4
					C51,71,50.5,71.3,49.8,72.1z"/>
			</g>
			<path class="st14" d="M54.5,78.7c0.3,0.4,0.5,0.6,0.7,1s0.2,0.8,0.1,1.1c0.4,0,0.8,0,1.1,0c-0.1-0.3-0.1-0.8,0-1.4
				c0.2-1,0.7-1.6,0.9-1.9c0.1-0.4,0.3-0.8,0.4-1.2c-0.4,0.7-0.9,1.5-1.3,2.2c-0.1-0.3-0.2-0.6-0.2-0.9c-0.2-1.2-0.1-2.3,0-3.1
				c-0.1,0.4-0.3,0.7-0.4,1.1c0,0.9-0.1,1.8-0.2,2.8c0,0.3-0.1,0.6-0.1,0.9c-0.2-0.1-0.3-0.3-0.5-0.4c-0.6-0.6-0.9-1.3-1.1-1.8
				C54.2,77.9,54.4,78.4,54.5,78.7z"/>
		</g>
		<g>
			<g>
				<g>
					<path class="st10" d="M166.8,62.6c-0.3,0.7-0.8,0.7-1.2,1.5c0,0-0.4,0.7-0.5,1.7c-0.1,1.9,1.6,5,4.5,6c0.8,0.3,3.2,1,5.2-0.4
						c0.7-0.4,1.1-1,1.3-1.3c0.3,0.1,1.4,0.2,2.4-0.4c0.7-0.4,1.1-1,1.3-1.4c0.3-0.5,1.2-2,0.5-3.7c-0.5-1.2-1.7-2.1-3.1-2.3
						c-1.3-2.7-3.7-4.4-6.1-4.4c-0.2,0-2.7,0.1-3.6,1.6c-0.5,0.8-0.6,1.6-0.6,1.6C166.8,61.9,166.8,62.1,166.8,62.6z"/>
					<path class="st11" d="M166.8,69.9c0.1-0.1,1.4,0.8,3.5,0.8c1.8,0,3.1-0.7,3.4-0.9c1-0.6,1.6-1.3,1.9-1.7
						c0.1,0.1,1.5,0.7,2.8-0.1c1-0.6,1.5-1.7,1.4-2.8c-0.1-1-0.8-1.7-0.9-1.8c-0.6-0.6-1-0.4-1.8-0.9c-1-0.6-1.1-1.4-1.7-2.3
						c-0.5-0.7-1.4-1.6-3.3-2.2c0.6,0.1,2.2,0.5,3.5,1.8c0.9,0.9,1.3,1.9,1.5,2.5c0.3,0,1.2,0.2,2,0.8c0.2,0.2,0.9,0.7,1.2,1.7
						c0.7,2-0.7,4.5-2.7,5.2c-0.6,0.2-1.2,0.2-1.6,0.1c-0.2,0.3-0.6,0.8-1.2,1.2c-1.1,0.7-2.1,0.8-2.6,0.9
						C169.3,72.3,166.8,70.1,166.8,69.9z"/>
				</g>
				<path class="st11" d="M178.3,59.9c-0.1-0.1-0.6,0.1-0.9,0.4c-0.3,0.3-0.5,0.8-0.4,0.9s0.6-0.1,0.8-0.4
					C178.1,60.5,178.3,60,178.3,59.9z"/>
				<path class="st11" d="M178.3,61.4c0.5-0.1,1.1,0,1.1,0.1s-0.5,0.4-1,0.4c-0.4,0.1-1,0-1-0.1S177.9,61.5,178.3,61.4z"/>
			</g>
			<path class="st12" d="M173.8,64.5c0.1-0.1-0.3-1-1.1-1.5c-0.4-0.3-0.9-0.4-1.2-0.5c0.1-0.2,0.3-0.4,0.3-0.8
				c0.1-0.8-0.5-1.5-0.6-1.5s0.3,0.6,0.1,1.2c-0.1,0.2-0.2,0.3-0.3,0.5c-0.2,0-0.4-0.1-0.7-0.2s-0.4,0-0.4,0c0,0.1,0.1,0.3,0.9,0.9
				c-0.1,0-0.6,0-1,0.3c-0.4,0.3-0.6,0.7-0.7,0.8c0.2-0.1,0.4-0.1,0.6-0.2c0.4-0.1,0.9-0.2,1.4-0.2
				C172.8,63.5,173.6,64.6,173.8,64.5z"/>
			<path class="st14" d="M171.3,72.7c0.3,0.6,0.6,0.9,0.9,1.7c0.1,0.3,0.2,0.5,0.2,0.7c0,1.3,0.1,2.7,0.1,4c0.3,0,0.6,0,0.9,0
				c-0.2-1.4-0.2-2.9,0.1-4.6c0-0.3,0.1-0.6,0.1-0.8c0.3-0.6,0.5-1.2,0.8-1.8c0.1-0.4,0.3-0.8,0.4-1.2c-0.4,0.7-0.9,1.5-1.3,2.2
				c-0.1-0.9-0.1-1.8-0.1-2.8c0-1.1,0-2.2,0.1-3.1c-0.2,0.3-0.3,0.6-0.5,0.9c0,1.6-0.1,3.2-0.2,4.9c0,0.3-0.1,0.6-0.1,0.9
				c-0.5-0.7-1-1.5-1.6-2.2C171.1,72,171.3,72.4,171.3,72.7z"/>
			<path class="st13" d="M165,65.6c0.1-0.3,0.3-0.6,0.6-1c0.2-0.2,0.6-0.6,1.1-1c0.6-0.4,1.2-0.6,1.8-0.8c0.7-0.2,1.3-0.3,1.3-0.4
				s-1.2,0.2-1.6-0.4c-0.2-0.2-0.1-0.6-0.1-1.1c0-0.1,0.1-0.7,0.3-1.1c0.5-1.2,1.9-1.7,2.1-1.8c-0.4,0-1.4,0.1-2.3,0.7
				c-0.7,0.5-1.1,1.2-1.2,1.5c-0.1,0.3-0.4,0.8-0.4,1.6c0,0.3,0,0.6,0,0.9c-0.3,0.2-0.8,0.6-1.2,1.3C165.1,64.6,165,65.3,165,65.6z"
				/>
			<path class="st12" d="M165.5,64.8c0.2-0.4,0.5-1,1.2-1.6c1.3-1,2.8-0.8,3.1-0.8c-0.2,0.1-0.5,0.2-0.8,0.3c-0.1,0-1.1,0.4-1.5,0.5
				C167.1,63.4,166.3,63.8,165.5,64.8z"/>
		</g>
		<g>
			<g>
				<g>
					<path class="st10" d="M37.3,62.7c-0.3,0.7-0.8,0.7-1.2,1.5c0,0-0.4,0.7-0.5,1.7c-0.1,1.9,1.6,5,4.5,6c0.8,0.3,3.2,1,5.2-0.4
						c0.7-0.4,1.1-1,1.3-1.3c0.3,0.1,1.4,0.2,2.4-0.4c0.7-0.4,1.1-1,1.3-1.4c0.3-0.5,1.2-2,0.5-3.7c-0.5-1.2-1.7-2-3.1-2.2
						c-1.3-2.7-3.7-4.4-6.1-4.4c-0.2,0-2.7,0.1-3.6,1.6c-0.5,0.8-0.6,1.6-0.6,1.6C37.3,62.1,37.4,62.2,37.3,62.7z"/>
					<path class="st11" d="M37.4,70.1c0.1-0.1,1.4,0.8,3.5,0.8c1.8,0,3.1-0.7,3.4-0.9c1-0.6,1.6-1.3,1.9-1.7
						c0.1,0.1,1.5,0.7,2.8-0.1c1-0.6,1.5-1.7,1.4-2.8c-0.1-1-0.8-1.7-0.9-1.8c-0.6-0.6-1-0.4-1.8-0.9c-1-0.6-1.1-1.4-1.7-2.3
						c-0.5-0.7-1.4-1.6-3.3-2.2c0.6,0.1,2.2,0.5,3.5,1.8c0.9,0.9,1.3,1.9,1.5,2.5c0.3,0,1.2,0.2,2,0.8c0.2,0.2,0.9,0.7,1.2,1.7
						c0.7,2-0.7,4.5-2.7,5.2c-0.6,0.2-1.2,0.2-1.6,0.1c-0.1,0.2-0.2,0.4-0.5,0.6c-0.3,0.3-0.6,0.5-0.7,0.6c-1.3,0.7-2.6,0.9-2.6,0.9
						C39.8,72.5,37.3,70.2,37.4,70.1z"/>
				</g>
				<path class="st11" d="M48.8,60c-0.1-0.1-0.6,0.1-0.9,0.4s-0.5,0.8-0.4,0.9c0.1,0.1,0.6-0.1,0.8-0.4C48.7,60.6,48.9,60.1,48.8,60
					z"/>
				<path class="st11" d="M48.9,61.5c0.5-0.1,1.1,0,1.1,0.1S49.5,62,49,62c-0.4,0.1-1,0-1-0.1C48,61.9,48.5,61.6,48.9,61.5z"/>
				<path class="st12" d="M44.3,64.6c0.1-0.1-0.3-1-1.1-1.5c-0.4-0.3-0.9-0.4-1.2-0.5c0.1-0.2,0.3-0.4,0.3-0.8
					c0.1-0.8-0.5-1.5-0.6-1.5s0.3,0.6,0.1,1.2c-0.1,0.2-0.2,0.3-0.3,0.5c-0.2,0-0.4-0.1-0.7-0.2c-0.3-0.1-0.4,0-0.4,0
					c0,0.1,0.1,0.3,0.9,0.9c-0.1,0-0.6,0-1,0.3c-0.4,0.3-0.6,0.7-0.7,0.8c0.2-0.1,0.4-0.1,0.6-0.2c0.5,0,1-0.1,1.6-0.1
					C43.3,63.7,44.2,64.8,44.3,64.6z"/>
				<path class="st13" d="M35.6,65.7c0.1-0.3,0.3-0.6,0.6-1c0.2-0.2,0.6-0.6,1.1-1c0.6-0.4,1.2-0.6,1.8-0.8c0.7-0.2,1.3-0.3,1.3-0.4
					s-1.2,0.2-1.6-0.4c-0.2-0.2-0.1-0.5-0.1-1c0-0.1,0.1-0.7,0.3-1.1c0.5-1.2,1.9-1.7,2.1-1.8c-0.4,0-1.4,0.1-2.3,0.7
					c-0.7,0.5-1.1,1.2-1.2,1.5c-0.1,0.3-0.4,0.8-0.4,1.6c0,0.3,0,0.6,0,0.9c-0.3,0.2-0.8,0.6-1.2,1.3C35.7,64.8,35.6,65.4,35.6,65.7
					z"/>
				<path class="st12" d="M36.1,64.9c0.2-0.4,0.5-1,1.2-1.6c1.3-1,2.8-0.8,3.1-0.8c-0.2,0.1-0.5,0.2-0.8,0.3c-0.1,0-1.1,0.4-1.5,0.5
					C37.7,63.5,36.9,64,36.1,64.9z"/>
			</g>
			<path class="st14" d="M41.9,72.8c0.3,0.6,0.6,0.9,0.9,1.7c0.1,0.3,0.2,0.5,0.2,0.7c0,1.3,0.1,2.7,0.1,4c0.3,0,0.6,0,0.9,0
				c-0.2-1.4-0.2-2.9,0.1-4.6c0-0.3,0.1-0.6,0.1-0.8c0.3-0.6,0.5-1.2,0.8-1.8c0.1-0.4,0.3-0.8,0.4-1.2c-0.4,0.7-0.9,1.5-1.3,2.2
				C44,72,44,71.1,44,70.1c0-1.1,0-2.2,0.1-3.1c-0.2,0.3-0.3,0.6-0.5,0.9c0,1.6-0.1,3.2-0.2,4.9c0,0.3-0.1,0.6-0.1,0.9
				c-0.5-0.7-1-1.5-1.6-2.2C41.7,72.1,41.8,72.5,41.9,72.8z"/>
		</g>
		<path class="st11" d="M96.7,65.3c-0.2,0.2,0.3,1.1,0.9,1.1c0.2,0,0.5-0.2,0.5-0.4C97.9,65.5,96.8,65,96.7,65.3z"/>
		<path class="st11" d="M95.4,60.3c-0.2-0.1-0.7,0.4-0.6,0.9c0,0.2,0.2,0.5,0.4,0.6c0.3,0,0.6-0.6,0.5-1.1
			C95.7,60.6,95.6,60.3,95.4,60.3z"/>
		<path class="st11" d="M46.4,75c0.1,0.2,1.1,0.3,1.4-0.2c0.1-0.2,0.1-0.5-0.1-0.6C47.3,74,46.3,74.8,46.4,75z"/>
		<path class="st11" d="M163.9,76.3c0.1,0.2,1.1,0.3,1.4-0.2c0.1-0.2,0.1-0.5-0.1-0.6C164.8,75.3,163.8,76,163.9,76.3z"/>
		<path class="st11" d="M165.8,72c-0.2,0.1,0,1.2,0.5,1.3c0.2,0,0.5,0,0.6-0.2C167,72.7,166,71.9,165.8,72z"/>
		<path class="st11" d="M130.1,66c0.1-0.2-0.1-1.1-0.6-1.1c-0.1,0-0.4,0.2-0.4,0.3C129.1,65.7,129.9,66.2,130.1,66z"/>
		<path class="st11" d="M128.1,63.3c-0.1-0.2-1.1-0.3-1.4,0.2c-0.1,0.2-0.1,0.5,0.1,0.6C127.2,64.3,128.1,63.6,128.1,63.3z"/>
		<path class="st11" d="M159.9,68c-0.3,0.7,0,1.4,0.3,1.4c0.3,0.1,0.7-0.2,1-0.8c0,0,0.2,0.8-0.3,1.2c-0.3,0.3-0.9,0.4-1.2,0.2
			c-0.2-0.2-0.2-0.4-0.2-0.7c0-0.3,0-0.6,0.1-0.6C159.6,68.3,159.8,68.1,159.9,68z"/>
		<g>
			<g>
				<g>
					<path class="st10" d="M116.2,66.2c-0.2,0.6-0.7,0.6-1,1.2c0,0-0.3,0.6-0.4,1.4c-0.1,1.6,1.3,4,3.7,4.9c0.6,0.2,2.6,0.8,4.2-0.3
						c0.5-0.4,0.9-0.8,1.1-1.1c0.3,0,1.1,0.2,1.9-0.3c0.6-0.3,0.9-0.8,1.1-1.1c0.2-0.4,1-1.6,0.4-3c-0.4-1-1.4-1.7-2.5-1.8
						c-1.1-2.2-3-3.6-4.9-3.6c-0.2,0-2.2,0.1-3,1.3c-0.4,0.6-0.5,1.3-0.5,1.3C116.2,65.7,116.3,65.8,116.2,66.2z"/>
					<path class="st11" d="M116.3,72.2c0.1-0.1,1.1,0.7,2.8,0.7c1.5,0,2.5-0.6,2.7-0.7c0.8-0.5,1.3-1,1.6-1.4c0.1,0,1.2,0.6,2.3-0.1
						c0.8-0.5,1.2-1.4,1.2-2.3c-0.1-0.8-0.6-1.4-0.8-1.5c-0.5-0.5-0.8-0.3-1.5-0.7c-0.8-0.5-0.9-1.1-1.4-1.9
						c-0.4-0.6-1.2-1.3-2.7-1.8c0.5,0.1,1.8,0.4,2.8,1.5c0.7,0.7,1.1,1.6,1.3,2c0.3,0,0.9,0.1,1.6,0.6c0.2,0.1,0.7,0.6,1,1.4
						c0.5,1.6-0.6,3.7-2.2,4.2c-0.5,0.2-1,0.1-1.3,0.1c-0.2,0.3-0.5,0.6-1,1c-0.9,0.6-1.7,0.7-2.1,0.7
						C118.2,74.1,116.3,72.3,116.3,72.2z"/>
				</g>
				<path class="st12" d="M122,67.8c0.1-0.1-0.3-0.8-0.9-1.2c-0.4-0.3-0.7-0.4-0.9-0.4c0.1-0.1,0.2-0.3,0.3-0.6
					c0.1-0.7-0.4-1.2-0.5-1.2c0,0,0.3,0.5,0.1,1c0,0.2-0.1,0.3-0.2,0.4c-0.1,0-0.3-0.1-0.6-0.1c-0.3,0-0.3,0-0.3,0
					c0,0.1,0.1,0.2,0.8,0.8c-0.1,0-0.5,0-0.8,0.2c-0.4,0.2-0.5,0.6-0.5,0.7c0.2,0,0.3-0.1,0.5-0.1c0.3-0.1,0.7-0.2,1.2-0.1
					C121.1,67,121.8,67.9,122,67.8z"/>
				<path class="st13" d="M114.8,68.7c0.1-0.2,0.3-0.5,0.5-0.8c0.1-0.2,0.5-0.5,0.9-0.8c0.5-0.3,1-0.5,1.5-0.6
					c0.5-0.2,1.1-0.3,1.1-0.3c0-0.1-1,0.2-1.3-0.3c-0.1-0.2-0.1-0.5-0.1-0.9c0-0.1,0.1-0.5,0.2-0.9c0.4-1,1.6-1.4,1.7-1.4
					c-0.3,0-1.1,0.1-1.8,0.6c-0.6,0.4-0.9,1-1,1.2c-0.1,0.2-0.3,0.7-0.4,1.3c0,0.3,0,0.5,0,0.7c-0.2,0.2-0.6,0.5-1,1
					C115,67.9,114.8,68.4,114.8,68.7z"/>
				<path class="st12" d="M115.3,68c0.1-0.3,0.4-0.8,1-1.3c1.1-0.8,2.3-0.7,2.6-0.6c-0.2,0-0.4,0.1-0.7,0.2c-0.1,0-0.9,0.3-1.2,0.4
					C116.6,66.9,116,67.2,115.3,68z"/>
			</g>
			<path class="st14" d="M119.8,75c0.3,0.6,0.6,0.8,0.8,1.3c0.3,0.8,0.2,1.5,0.1,2c0.4,0,0.9,0,1.3,0c-0.1-0.5-0.1-1.3,0.1-2.3
				c0.2-1.2,0.7-2,1.1-2.5c0.1-0.5,0.3-1.1,0.4-1.6c-0.5,1-1,1.9-1.5,2.9c-0.1-0.4-0.2-0.8-0.3-1.2c-0.3-1.6-0.1-3,0-4.1
				c-0.2,0.5-0.3,1-0.5,1.5c0,1.2-0.1,2.4-0.2,3.7c0,0.4-0.1,0.8-0.1,1.3c-0.2-0.2-0.4-0.4-0.5-0.6c-0.7-0.8-1-1.7-1.3-2.4
				C119.3,74,119.6,74.6,119.8,75z"/>
		</g>
		<g>
			<g>
				<path class="st10" d="M86.6,68.9c0.1,0.3,0.9,1.8,2.5,2.5c1.5,0.6,3.5,0.3,4.6-0.8c2.1-2,0.9-6.2-0.3-10.1
					c-0.6-2.2-1.7-5.6-2.9-5.6c-0.5,0-0.8,0.6-2.8,6.9C86.3,66,85.8,67.4,86.6,68.9z"/>
				<path class="st11" d="M86.4,67.8c0.2,0.4,0.7,1.2,1.5,1.3c0.8,0.1,1.6-0.5,2.3-1c0.6-0.5,0.6-0.7,1.1-0.9
					c0.7-0.4,1.4-0.4,1.9-0.3c0.1-0.1,0.3-0.4,0.5-0.7c0.5-0.9,0.3-1.9-0.1-3.5c-0.8-3-1.2-4.6-2.3-6.4c-0.3-0.6-0.7-1-0.9-1.4
					c0.1,0,0.3,0.1,0.4,0.2c0.8,0.4,1.1,1.2,1.3,1.5c0.6,1.3,1,2.6,1.1,3.2c0.8,2.6,1.4,3.2,1.6,5.2c0,0.4,0.1,0.7,0.1,1.2
					c0,1.2,0,3.9-1.9,5.2c-1.5,1-3.8,0.8-5.3-0.4C86.8,69.7,86.6,68.2,86.4,67.8z"/>
			</g>
			<path class="st14" d="M90.3,64.3c0.1,1.7,0.1,3.1,0.1,4.1c0,0.6,0,0.6-0.1,1.4c-0.1,1.4-0.1,2.4-0.1,3.9c0,0.9,0,2.2,0,4.2
				c0.4,0,0.7,0,1.1,0C91,76.5,90.9,75,91,73.3c0-1.3,0.1-2.5,0.2-3.6c0.1-0.4,0.2-0.8,0.4-1.3c0.2-0.5,0.4-0.9,0.6-1.2
				c0-0.2,0-0.5,0-0.7c-0.3,0.5-0.5,1-0.8,1.5c-0.2,0.3-0.3,0.7-0.5,1c-0.1-0.8-0.2-1.6-0.2-2.5c0-1,0-2,0.1-2.9
				C90.6,64,90.4,64.1,90.3,64.3z"/>
			<path class="st11" d="M91.8,64.4c-0.3,0.7,0,1.4,0.3,1.4c0.3,0.1,0.7-0.2,1-0.8c0,0,0.2,0.8-0.3,1.2c-0.3,0.3-0.9,0.4-1.2,0.2
				c-0.2-0.2-0.2-0.4-0.2-0.7c0-0.3,0-0.6,0.1-0.6C91.4,64.7,91.7,64.5,91.8,64.4z"/>
		</g>
		<g>
			<g>
				<path class="st10" d="M154.8,71.6c0.1,0.3,0.9,1.8,2.5,2.5c1.5,0.6,3.5,0.3,4.6-0.8c2.1-2,0.9-6.2-0.3-10.1
					c-0.6-2.2-1.7-5.6-2.9-5.6c-0.5,0-0.8,0.6-2.8,6.9C154.4,68.8,154.1,70.1,154.8,71.6z"/>
				<path class="st11" d="M154.4,70.5c0.2,0.4,0.7,1.2,1.6,1.3c0.8,0.1,1.7-0.5,2.4-1c0.6-0.5,0.6-0.7,1.1-0.9
					c0.7-0.4,1.4-0.4,2-0.3c0.1-0.1,0.3-0.4,0.5-0.7c0.5-0.9,0.3-1.9-0.1-3.5c-0.8-3.1-1.2-4.6-2.4-6.4c-0.3-0.6-0.7-1-0.9-1.4
					c0.1,0,0.3,0.1,0.4,0.2c0.8,0.4,1.1,1.2,1.3,1.5c0.6,1.3,1,2.7,1.1,3.2c0.8,2.7,1.4,3.2,1.7,5.2c0,0.4,0.1,0.7,0.1,1.2
					c0,1.2,0,3.9-2,5.2c-1.6,1-3.9,0.8-5.5-0.4C154.8,72.5,154.4,71.1,154.4,70.5z"/>
			</g>
			<path class="st14" d="M158.4,67.1c0.1,1.7,0.1,3.1,0.1,4.1c0,0.6,0,0.6-0.1,1.4c-0.1,1.4-0.1,2.4-0.1,3.9c0,0.9,0,2.2,0,4.2
				c0.4,0,0.7,0,1.1,0c-0.2-1.4-0.3-2.9-0.2-4.6c0-1.3,0.1-2.5,0.2-3.6c0.1-0.4,0.2-0.8,0.4-1.3c0.2-0.5,0.4-0.9,0.6-1.2
				c0-0.2,0-0.5,0-0.7c-0.3,0.5-0.5,1-0.8,1.5c-0.2,0.3-0.3,0.7-0.5,1c-0.1-0.8-0.2-1.6-0.2-2.5c0-1,0-2,0.1-2.9
				C158.8,66.7,158.6,66.9,158.4,67.1z"/>
			<path class="st11" d="M160.1,67.1c-0.3,0.7,0,1.4,0.3,1.4c0.3,0.1,0.7-0.2,1-0.8c0,0,0.2,0.8-0.3,1.2c-0.3,0.3-0.9,0.4-1.2,0.2
				c-0.2-0.2-0.2-0.4-0.2-0.7c0-0.3,0-0.6,0.1-0.6C159.6,67.4,159.8,67.2,160.1,67.1z"/>
		</g>
	</g>
	<g>
		<path class="st15" d="M102,76.5h11.4c0.1-0.3,0.1-0.7-0.1-1.1c-0.5-0.8-2.1-0.6-5.5-0.6c-3.6,0-5.1-0.3-5.7,0.6
			C101.8,75.8,101.8,76.2,102,76.5z"/>
		<g>
			<path class="st16" d="M94.7,79.4c-0.2-0.5-0.3-1.1,0-1.7c0.8-1.6,4-1.6,12.8-1.6c8.5,0,11.6-0.1,12.5,1.6
				c0.4,0.6,0.3,1.3,0.1,1.8C111.7,79.4,103.2,79.4,94.7,79.4z"/>
			<path class="st17" d="M97.4,76.3c-0.2,0.1-0.9,0.7-1.2,1.6c-0.1,0.6,0,1.2,0.1,1.4c-0.6,0-1.1,0-1.7,0c-0.1-0.2-0.3-0.8-0.1-1.5
				c0-0.1,0.1-0.4,0.3-0.6c0.4-0.5,1-0.7,1.7-0.8C96.8,76.4,97.1,76.4,97.4,76.3z"/>
		</g>
		<g>
			<path class="st18" d="M109.1,73.3h-2.9c0.1-0.4,0.2-1,0.2-1.7c0-0.8-0.1-1.4-0.2-1.9c1,0,1.9,0,2.9,0c-0.1,0.5-0.2,1.1-0.2,1.8
				C108.8,72.2,108.8,72.9,109.1,73.3z"/>
			<path class="st19" d="M106.8,69.7c0,1.2,0,2.4,0.1,3.6c-0.3,0-0.5,0-0.8,0c0.1-0.4,0.2-1,0.2-1.6c0-0.8-0.1-1.5-0.2-2
				C106.3,69.7,106.6,69.7,106.8,69.7z"/>
		</g>
		<g>
			<path class="st16" d="M104.5,74.9c0-0.4,0-1.1,0.5-1.5c0.4-0.4,0.9-0.3,2.8-0.3c2,0,2.5-0.1,3,0.3c0.4,0.4,0.4,1.1,0.4,1.5
				C108.8,74.8,106.6,74.9,104.5,74.9z"/>
			<path class="st20" d="M105.7,73c-0.1,0.2-0.3,0.5-0.4,0.9s-0.1,0.7-0.1,1c-0.2,0-0.5,0-0.7,0c0-0.4,0-0.7,0.1-0.8
				c0-0.2,0.1-0.4,0.3-0.6c0.1-0.1,0.2-0.2,0.4-0.3C105.3,73,105.6,73,105.7,73z"/>
		</g>
		<g>
			<path class="st18" d="M109.3,67.8c-1.2,0-2.5,0-3.7,0c0.3-0.8,0.7-1.9,0.8-3.2c0.1-1.1,0.1-2.1,0-2.9c0.7,0,1.3,0,2,0
				c-0.1,0.7-0.3,1.8-0.1,3C108.7,66,109.1,67.1,109.3,67.8z"/>
			<path class="st19" d="M107,61.7c0,2-0.1,4-0.1,6.1c-0.4,0-0.8,0-1.1,0c0.3-0.7,0.6-1.7,0.8-2.8c0.2-1.3,0.2-2.4,0.1-3.3
				C106.7,61.7,106.8,61.7,107,61.7z"/>
		</g>
		<g>
			<path class="st16" d="M101.8,67.7h11.6c0,0.1,0.3,1.1-0.3,1.9c-0.4,0.5-0.9,0.6-1.1,0.7c-2.8,0-5.7,0-8.5,0
				c-0.2,0-0.8-0.1-1.3-0.6C101.8,69.2,101.7,68.4,101.8,67.7z"/>
			<path class="st17" d="M103,67.7c0,0.2-0.1,0.8,0.2,1.3c0.4,0.9,1.3,1.2,1.5,1.3c-0.4,0-0.7,0-1.1,0c-0.1,0-0.9-0.1-1.4-0.7
				c-0.4-0.5-0.5-1.3-0.2-1.9C102.3,67.7,102.6,67.7,103,67.7z"/>
		</g>
		<path class="st21" d="M105.3,58.9c0-0.2,0-0.4,0-0.6c0.6,0,1.2,0,1.9-0.1c0-0.1,0.3-1.2-0.4-2c-0.8-0.9-2-0.8-2.2-0.7
			c-0.8,0.1-1.5,0.6-1.9,1.3c-0.2,0.4-0.2,0.9-0.2,1.8c0,0.7,0.1,1.3,0.2,1.7c0,0.2-0.2,0.3-0.3,0.3c-0.2,0-0.3-0.1-0.3-0.3
			c-0.2-0.6-0.6-2.1,0-3.6c0.3-0.7,0.7-1.1,0.8-1.2c0.2-0.2,1-0.9,2.1-1c1.7-0.1,2.7,1.4,2.8,1.5c0-0.1,1.1-1.6,2.7-1.5
			c1.5,0.1,3,1.8,2.8,3.8c0,0.2-0.1,0.4-0.3,0.5c-0.2,0-0.4-0.2-0.4-0.5c0.1-1.6-0.8-2.9-1.8-3.1c-0.9-0.2-1.8,0.6-1.9,0.7
			c-0.2,0.1-0.6,0.6-0.7,1.3c-0.1,0.4,0,0.7,0.1,0.9c0.7,0,1.3,0.1,2,0.1v0.6L105.3,58.9L105.3,58.9z"/>
		<g>
			<path class="st16" d="M104.1,58.7c-0.1,0.2-0.5,0.8-0.3,1.7c0.2,1.1,1.2,1.5,1.3,1.6c1.6,0,3.2,0,4.8,0c0.2-0.1,0.7-0.5,1.1-1.1
				c0.5-1,0.1-1.9,0-2.1C108.6,58.8,106.3,58.7,104.1,58.7z"/>
			<path class="st17" d="M104.8,58.7c-0.1,0.3-0.3,0.8-0.2,1.4c0.1,1,0.7,1.7,0.9,1.9c-0.2,0-0.3,0-0.5,0c-0.1-0.1-1-0.5-1.3-1.5
				s0.2-1.7,0.2-1.9C104.3,58.7,104.6,58.7,104.8,58.7z"/>
		</g>
		<path class="st21" d="M102.2,61.1c-0.3,0-0.6,1-0.3,1.3c0.2,0.2,0.6,0.1,0.8-0.1C103,61.9,102.5,61.1,102.2,61.1z"/>
		<path class="st21" d="M112.8,59c-0.3,0-0.6,0.7-0.4,1c0.2,0.2,0.6,0.2,0.7,0C113.3,59.7,113.1,59,112.8,59z"/>
	</g>
	<g>
		<g>
			<path class="st22" d="M62.3,77.8v-1.9c0.2-0.2,0.6-0.4,1.2-0.5c0.2,0,0.6-0.1,1.2,0s1,0.3,1.2,0.5c0,0.6,0,1.3,0,1.9
				C64.7,77.8,63.5,77.8,62.3,77.8z"/>
			<path class="st23" d="M61,77.8v1.4h6.2v-1.4h-2.6c0-0.4,0-0.8,0-1.1c0,0-0.2-0.3-0.6-0.3c-0.4,0-0.6,0.3-0.6,0.3
				c0,0.4,0,0.7,0,1.1c-0.4,0-0.8,0-1.2,0S61.5,77.8,61,77.8z"/>
			<path class="st23" d="M63.5,74.2h1c0.1,0.1,0.3,0.2,0.4,0.5c0.2,0.4,0.1,0.7,0.1,0.8h-1.9c0-0.1-0.2-0.4,0-0.8
				C63.3,74.4,63.5,74.2,63.5,74.2z"/>
			<polygon class="st24" points="63.5,60.8 64.7,60.8 64.6,74.2 63.5,74.2 			"/>
			<rect x="62.8" y="66.7" class="st25" width="2.6" height="0.7"/>
			<rect x="62.8" y="68" class="st25" width="2.6" height="0.7"/>
			<path class="st26" d="M63.7,56c0.2-0.2,0.5-0.1,0.8,0c0.1,0.1,0.2,0.2,0.2,0.3l0.3,0.9c-0.4-0.1-0.5,0-0.6,0
				c-0.3,0.2-0.2,1,0.3,2c0,0.4,0,0.7,0,1.1c-0.4,0-0.8,0-1.3,0c0-0.4,0-0.7,0-1.1c0.5-1,0.6-1.7,0.3-2c-0.1,0-0.2-0.1-0.6,0
				c0.1-0.3,0.3-0.6,0.4-0.9C63.5,56.1,63.5,56,63.7,56z"/>
			<rect x="63" y="60.2" class="st25" width="1.9" height="0.7"/>
			<g>
				<path class="st26" d="M58.7,54h2.9v0.7c-0.4,0-0.8,0-1.2,0.1c-0.1,0.3-0.2,0.9,0,1.6c0.3,1.2,1.1,1.8,1.3,2.1
					c0.7,0.5,1.4,0.7,1.8,0.8c0,0.2,0,0.4,0,0.5c-0.4-0.1-1.4-0.2-2.3-1.1c-0.2-0.2-1-0.9-1.3-2.3c-0.1-0.7-0.1-1.3-0.1-1.6h-1.1V54
					z"/>
				<path class="st27" d="M59.2,50.4c0,0.1-1.1,1.8-1.1,1.8c0.2,0.6,0.4,1.2,0.6,1.9c1,0,1.9,0,2.9,0l0.6-1.8
					c-0.3-0.6-0.7-1.2-1-1.8C60.5,50.4,59.8,50.4,59.2,50.4z"/>
				<path class="st26" d="M61,49.9c0,0.2,0,0.3,0,0.5h-1.9v-0.5C59.8,49.9,60.5,49.9,61,49.9z"/>
			</g>
			<g>
				<path class="st26" d="M69.3,54h-2.9v0.7c0.4,0,0.8,0,1.2,0.1c0.1,0.3,0.2,0.9,0,1.6c-0.3,1.2-1.1,1.8-1.3,2.1
					c-0.7,0.5-1.4,0.7-1.8,0.8c0,0.2,0,0.4,0,0.5c0.4-0.1,1.4-0.2,2.3-1.1c0.2-0.2,1-0.9,1.3-2.3c0.1-0.7,0.1-1.3,0.1-1.6h1.1
					C69.3,54.8,69.3,54,69.3,54z"/>
				<path class="st27" d="M68.8,50.4c0,0.1,1.1,1.8,1.1,1.8c-0.2,0.6-0.4,1.2-0.6,1.9c-1,0-1.9,0-2.9,0l-0.6-1.8
					c0.3-0.6,0.7-1.2,1-1.8C67.7,50.4,68.3,50.4,68.8,50.4z"/>
				<path class="st26" d="M66.9,49.9c0,0.2,0,0.3,0,0.5h1.9v-0.5C68.3,49.9,67.7,49.9,66.9,49.9z"/>
			</g>
		</g>
		<g>
			<path class="st22" d="M150.8,77.8v-1.9c0.2-0.2,0.6-0.4,1.2-0.5c0.2,0,0.6-0.1,1.2,0c0.6,0.1,1,0.3,1.2,0.5c0,0.6,0,1.3,0,1.9
				C153.3,77.8,152.1,77.8,150.8,77.8z"/>
			<path class="st23" d="M149.6,77.7v1.5h6.2v-1.5h-2.6c0-0.4,0-0.9,0-1.2c0,0-0.2-0.3-0.6-0.3c-0.4,0-0.6,0.3-0.6,0.3
				c0,0.4,0,0.8,0,1.2c-0.4,0-0.8,0-1.2,0S149.9,77.7,149.6,77.7z"/>
			<path class="st23" d="M152.1,74.2h1c0.1,0.1,0.3,0.2,0.4,0.5c0.2,0.4,0.1,0.7,0.1,0.8h-1.9c0-0.1-0.2-0.4,0-0.8
				C151.8,74.4,152.1,74.2,152.1,74.2z"/>
			<polygon class="st24" points="152.1,60.8 153.1,60.8 153.1,74.2 152.1,74.2 			"/>
			<rect x="151.3" y="66.7" class="st25" width="2.6" height="0.7"/>
			<rect x="151.3" y="68" class="st25" width="2.6" height="0.7"/>
			<path class="st26" d="M152.1,56c0.2-0.2,0.5-0.1,0.8,0c0.1,0.1,0.2,0.2,0.2,0.3l0.3,0.9c-0.4-0.1-0.5,0-0.6,0
				c-0.3,0.2-0.2,1,0.3,2c0,0.4,0,0.7,0,1.1c-0.4,0-0.8,0-1.3,0c0-0.4,0-0.7,0-1.1c0.5-1,0.6-1.7,0.3-2c-0.1,0-0.2-0.1-0.6,0
				c0.1-0.3,0.3-0.6,0.4-0.9C152.1,56.1,152.1,56,152.1,56z"/>
			<rect x="151.6" y="60.2" class="st25" width="1.9" height="0.7"/>
			<g>
				<path class="st26" d="M147.1,54h2.9v0.7c-0.4,0-0.8,0-1.2,0.1c-0.1,0.3-0.2,0.9,0,1.6c0.3,1.2,1.1,1.8,1.3,2.1
					c0.7,0.5,1.4,0.7,1.8,0.8c0,0.2,0,0.4,0,0.5c-0.4-0.1-1.4-0.2-2.3-1.1c-0.2-0.2-1-0.9-1.3-2.3c-0.1-0.7-0.1-1.3-0.1-1.6h-1.1
					C147.1,54.8,147.1,54,147.1,54z"/>
				<path class="st27" d="M147.6,50.4c0,0.1-1.1,1.8-1.1,1.8c0.2,0.6,0.4,1.2,0.6,1.9c1,0,1.9,0,2.9,0l0.6-1.8
					c-0.3-0.6-0.7-1.2-1-1.8C148.9,50.4,148.3,50.4,147.6,50.4z"/>
				<path class="st26" d="M149.6,49.9c0,0.2,0,0.3,0,0.5h-1.9v-0.5C148.3,49.9,148.9,49.9,149.6,49.9z"/>
			</g>
			<g>
				<path class="st26" d="M157.9,54h-2.9v0.7c0.4,0,0.8,0,1.2,0.1c0.1,0.3,0.2,0.9,0,1.6c-0.3,1.2-1.1,1.8-1.3,2.1
					c-0.7,0.5-1.4,0.7-1.8,0.8c0,0.2,0,0.4,0,0.5c0.4-0.1,1.4-0.2,2.3-1.1c0.2-0.2,1-0.9,1.3-2.3c0.1-0.7,0.1-1.3,0.1-1.6h1.1
					C157.9,54.8,157.9,54,157.9,54z"/>
				<path class="st27" d="M157.4,50.4c0,0.1,1.1,1.8,1.1,1.8c-0.2,0.6-0.4,1.2-0.6,1.9c-1,0-1.9,0-2.9,0l-0.6-1.8
					c0.3-0.6,0.7-1.2,1-1.8C156.1,50.4,156.8,50.4,157.4,50.4z"/>
				<path class="st26" d="M155.6,49.9c0,0.2,0,0.3,0,0.5h1.9v-0.5C156.8,49.9,156.1,49.9,155.6,49.9z"/>
			</g>
		</g>
	</g>
	<g>
		<g>
			<rect x="68.3" y="76.5" class="st28" width="1.4" height="2.9"/>
			<rect x="71.4" y="76.5" class="st28" width="1.4" height="2.9"/>
			<rect x="82.3" y="76.5" class="st28" width="1.4" height="2.9"/>
			<rect x="86.3" y="76.5" class="st28" width="1.4" height="2.9"/>
			<rect x="68.3" y="75.5" class="st29" width="19.4" height="1.1"/>
			<rect x="70.8" y="69.1" class="st30" width="0.7" height="5.6"/>
			<rect x="72.8" y="68.8" class="st30" width="0.7" height="5.9"/>
			<rect x="74.8" y="68.2" class="st30" width="0.7" height="6.5"/>
			<rect x="76.7" y="68.2" class="st30" width="0.7" height="6.5"/>
			<rect x="78.4" y="68.3" class="st30" width="0.7" height="6.4"/>
			<rect x="80.4" y="68.8" class="st30" width="0.7" height="6.1"/>
			<rect x="82.3" y="69.3" class="st30" width="0.7" height="5.6"/>
			<path class="st31" d="M87.7,75.5H68.3v-0.9c3.3,0,6.5,0,9.8,0c0.4,0,3.2,0,8.8,0c0.2,0,0.6,0,0.7,0.3
				C87.7,75.1,87.7,75.4,87.7,75.5z"/>
			<path class="st31" d="M69.7,74.7h-1.4c0-2,0-3.9,0-5.9c0.1-0.3,0.4-0.6,0.7-0.6c0.3,0,0.6,0.2,0.7,0.5
				C69.7,70.8,69.7,72.8,69.7,74.7z"/>
			<path class="st31" d="M85.2,74.7h-1.5c0-1.9,0-3.9,0-5.8c0.1-0.3,0.4-0.5,0.7-0.5c0.4,0,0.7,0.2,0.9,0.5
				C85.2,70.9,85.2,72.8,85.2,74.7z"/>
			<rect x="68.9" y="72.2" class="st29" width="2.9" height="0.8"/>
			<rect x="84.8" y="72.2" class="st29" width="2.9" height="0.8"/>
			<path class="st32" d="M69.7,70.2c1.2-0.6,3.7-1.8,7-1.8c3.4,0,6,1.2,7.1,1.9c0-0.3,0-0.6,0-0.9c-1.2-0.6-3.7-1.8-7.2-1.8
				c-3.3,0-5.8,1.1-7,1.8v0.8H69.7z"/>
		</g>
		<g>
			<rect x="144.9" y="76.6" class="st28" width="1.4" height="2.9"/>
			<rect x="141.8" y="76.6" class="st28" width="1.4" height="2.9"/>
			<rect x="130.9" y="76.6" class="st28" width="1.4" height="2.9"/>
			<rect x="126.8" y="76.6" class="st28" width="1.4" height="2.9"/>
			<rect x="126.8" y="75.6" class="st29" width="19.4" height="1.1"/>
			<rect x="143.1" y="69.1" class="st30" width="0.7" height="5.6"/>
			<rect x="141.1" y="68.7" class="st30" width="0.7" height="5.9"/>
			<rect x="139.1" y="68.2" class="st30" width="0.7" height="6.5"/>
			<rect x="137.3" y="68.2" class="st30" width="0.7" height="6.5"/>
			<rect x="135.4" y="68.3" class="st30" width="0.7" height="6.4"/>
			<rect x="133.4" y="68.7" class="st30" width="0.7" height="6.1"/>
			<rect x="131.6" y="69.3" class="st30" width="0.7" height="5.6"/>
			<path class="st31" d="M127,75.6h19.4v-0.9c-3.3,0-6.5,0-9.8,0c-0.4,0-3.2,0-8.8,0c-0.2,0-0.6,0-0.7,0.3
				C126.8,75.1,126.8,75.4,127,75.6z"/>
			<path class="st31" d="M144.9,74.8h1.4c0-2,0-3.9,0-5.9c-0.1-0.3-0.4-0.6-0.7-0.6c-0.3,0-0.6,0.2-0.7,0.5
				C144.9,70.8,144.9,72.8,144.9,74.8z"/>
			<path class="st31" d="M129.3,74.8h1.5c0-1.9,0-3.9,0-5.8c-0.1-0.3-0.4-0.5-0.7-0.5c-0.4,0-0.7,0.2-0.9,0.5
				C129.3,70.9,129.3,72.8,129.3,74.8z"/>
			<rect x="142.6" y="72.2" class="st29" width="2.9" height="0.8"/>
			<rect x="126.8" y="72.2" class="st29" width="2.9" height="0.8"/>
			<path class="st32" d="M144.9,70.2c-1.2-0.6-3.7-1.8-7-1.8c-3.4,0-6,1.2-7.1,1.9c0-0.3,0-0.6,0-0.9c1.2-0.6,3.7-1.8,7.2-1.8
				c3.3,0,5.8,1.1,7,1.8L144.9,70.2L144.9,70.2z"/>
		</g>
	</g>
	<path class="st33" d="M40,81.5c-0.5,0.1-0.9,0.5-0.9,1.3c0,0.6,0.4,1.2,0.9,1.3c29.6,0,101.7,0,131.3,0c0.6,0,1.2-0.5,1.1-1.3
		c-0.1-0.4-0.3-0.7-0.4-0.9c-0.3-0.3-0.6-0.4-0.8-0.4c-4.4,0-29.7,0.1-34.1,0.1c-0.3-0.9-1-1.4-1.9-1.4c-0.9-0.1-1.7,0.4-2.1,1.3
		c-1.7-2-2.8-2.2-3.4-2c-1.1,0.3-2.2,2.2-2.2,2.2H91.8c-0.2-1.4-1.2-2.4-2.3-2.6c-1.3-0.1-2.6,1-2.9,2.3c-0.3-1.1-1.2-1.6-2.1-1.6
		c-0.8,0.1-1.5,0.6-1.9,1.6L40,81.5z"/>
	<g>
		<g>
			<path class="st0" d="M57.2,91.9H54c-0.4,0-0.7-0.3-0.7-0.7l0,0c0-0.4,0.3-0.7,0.7-0.7h3.1c0.4,0,0.7,0.3,0.7,0.7l0,0
				C57.9,91.6,57.5,91.9,57.2,91.9z"/>
			<path class="st0" d="M77.7,91.9H60.4c-0.4,0-0.7-0.3-0.7-0.7l0,0c0-0.4,0.3-0.7,0.7-0.7h17.3c0.4,0,0.7,0.3,0.7,0.7l0,0
				C78.3,91.6,78.1,91.9,77.7,91.9z"/>
			<path class="st0" d="M74.4,102.2h-3.1c-0.4,0-0.7-0.3-0.7-0.7l0,0c0-0.4,0.3-0.7,0.7-0.7h3.1c0.4,0,0.7,0.3,0.7,0.7l0,0
				C75.2,101.9,74.8,102.2,74.4,102.2z"/>
		</g>
		<g>
			<path class="st0" d="M161.3,91.9h1.5c0.4,0,0.7-0.3,0.7-0.7l0,0c0-0.4-0.3-0.7-0.7-0.7h-1.5c-0.4,0-0.7,0.3-0.7,0.7l0,0
				C160.6,91.6,160.9,91.9,161.3,91.9z"/>
			<path class="st0" d="M141.4,102.2h3.1c0.4,0,0.7-0.3,0.7-0.7l0,0c0-0.4-0.3-0.7-0.7-0.7h-3.1c-0.4,0-0.7,0.3-0.7,0.7l0,0
				C140.8,101.9,141.1,102.2,141.4,102.2z"/>
		</g>
	</g>
	<g>
		<path class="st0" d="M138.3,91.9h17.3c0.4,0,0.7-0.3,0.7-0.7l0,0c0-0.4-0.3-0.7-0.7-0.7h-17.3c-0.4,0-0.7,0.3-0.7,0.7l0,0
			C137.6,91.6,137.9,91.9,138.3,91.9z"/>
	</g>
</g>
<g>
	<g>
		<g>
			<path class="st10" d="M202.5,69.9c-0.2,0.6-0.7,0.6-1,1.2c0,0-0.3,0.6-0.4,1.4c-0.1,1.6,1.3,4,3.7,4.9c0.6,0.2,2.6,0.8,4.2-0.3
				c0.5-0.4,0.9-0.8,1.1-1.1c0.3,0,1.1,0.2,1.9-0.3c0.6-0.3,0.9-0.8,1.1-1.1c0.2-0.4,1-1.6,0.4-3c-0.4-1-1.4-1.7-2.5-1.8
				c-1.1-2.2-3-3.6-4.9-3.6c-0.2,0-2.2,0.1-3,1.3c-0.4,0.6-0.5,1.3-0.5,1.3C202.5,69.3,202.7,69.5,202.5,69.9z"/>
			<path class="st11" d="M202.7,75.9c0.1-0.1,1.1,0.7,2.8,0.7c1.5,0,2.5-0.6,2.7-0.7c0.8-0.5,1.3-1,1.6-1.4c0.1,0,1.2,0.6,2.3-0.1
				c0.8-0.5,1.2-1.4,1.2-2.3c-0.1-0.8-0.6-1.4-0.8-1.5c-0.5-0.5-0.8-0.3-1.5-0.7c-0.8-0.5-0.9-1.1-1.4-1.9c-0.4-0.6-1.2-1.3-2.7-1.8
				c0.5,0.1,1.8,0.4,2.8,1.5c0.7,0.7,1.1,1.6,1.3,2c0.3,0,0.9,0.1,1.6,0.6c0.2,0.1,0.7,0.6,1,1.4c0.5,1.6-0.6,3.7-2.2,4.2
				c-0.5,0.2-1,0.1-1.3,0.1c-0.2,0.3-0.5,0.6-1,1c-0.9,0.6-1.7,0.7-2.1,0.7C204.6,77.9,202.6,76.1,202.7,75.9z"/>
		</g>
		<path class="st12" d="M208.3,71.4c0.1-0.1-0.3-0.8-0.9-1.2c-0.4-0.3-0.7-0.4-0.9-0.4c0.1-0.1,0.2-0.3,0.3-0.6
			c0.1-0.7-0.4-1.2-0.5-1.2c0,0,0.3,0.5,0.1,1c0,0.2-0.1,0.3-0.2,0.4c-0.1,0-0.3-0.1-0.6-0.1s-0.3,0-0.3,0c0,0.1,0.1,0.2,0.8,0.8
			c-0.1,0-0.5,0-0.8,0.2c-0.4,0.2-0.5,0.6-0.5,0.7c0.2,0,0.3-0.1,0.5-0.1c0.3-0.1,0.7-0.2,1.2-0.1C207.5,70.6,208.2,71.5,208.3,71.4
			z"/>
		<path class="st13" d="M201.2,72.3c0.1-0.2,0.3-0.5,0.5-0.8c0.1-0.2,0.5-0.5,0.9-0.8c0.5-0.3,1-0.5,1.5-0.6
			c0.5-0.2,1.1-0.3,1.1-0.3c0-0.1-1,0.2-1.3-0.3c-0.1-0.2-0.1-0.5-0.1-0.9c0-0.1,0.1-0.5,0.2-0.9c0.4-1,1.6-1.4,1.7-1.4
			c-0.3,0-1.1,0.1-1.8,0.6c-0.6,0.4-0.9,1-1,1.2c-0.1,0.2-0.3,0.7-0.4,1.3c0,0.3,0,0.5,0,0.7c-0.2,0.2-0.6,0.5-1,1
			C201.3,71.5,201.2,72.1,201.2,72.3z"/>
		<path class="st12" d="M201.6,71.7c0.1-0.3,0.4-0.8,1-1.3c1.1-0.8,2.3-0.7,2.6-0.6c-0.2,0-0.4,0.1-0.7,0.2c-0.1,0-0.9,0.3-1.2,0.4
			C202.9,70.6,202.3,70.9,201.6,71.7z"/>
	</g>
	<path class="st14" d="M206.4,78.3c0.3,0.4,0.5,0.6,0.7,1s0.2,0.8,0.1,1.1c0.4,0,0.8,0,1.1,0c-0.1-0.3-0.1-0.8,0-1.4
		c0.2-1,0.7-1.6,0.9-1.9c0.1-0.4,0.3-0.8,0.4-1.2c-0.4,0.7-0.9,1.5-1.3,2.2c-0.1-0.3-0.2-0.6-0.2-0.9c-0.2-1.2-0.1-2.3,0-3.1
		c-0.1,0.4-0.3,0.7-0.4,1.1c0,0.9-0.1,1.8-0.2,2.8c0,0.3-0.1,0.6-0.1,0.9c-0.2-0.1-0.3-0.3-0.5-0.4c-0.6-0.6-0.9-1.3-1.1-1.8
		C206,77.5,206.2,78,206.4,78.3z"/>
</g>
<g>
	<g>
		<path class="st10" d="M2.8,70.3c0.1,0.3,0.9,1.8,2.5,2.5c1.5,0.6,3.5,0.3,4.6-0.8c2.1-2,0.9-6.2-0.3-10.1
			c-0.6-2.2-1.7-5.6-2.9-5.6c-0.5,0-0.8,0.6-2.8,6.9C2.5,67.4,2.1,68.8,2.8,70.3z"/>
		<path class="st11" d="M2.7,69.2c0.2,0.4,0.7,1.2,1.5,1.3c0.8,0.1,1.6-0.5,2.3-1c0.6-0.5,0.6-0.7,1.1-0.9c0.7-0.4,1.4-0.4,1.9-0.3
			c0.1-0.1,0.3-0.4,0.5-0.7c0.5-0.9,0.3-1.9-0.1-3.5c-0.8-3-1.2-4.6-2.3-6.4c-0.3-0.6-0.7-1-0.9-1.4c0.1,0,0.3,0.1,0.4,0.2
			c0.8,0.4,1.1,1.2,1.3,1.5c0.6,1.3,1,2.6,1.1,3.2c0.8,2.6,1.4,3.2,1.6,5.2c0,0.4,0.1,0.7,0.1,1.2c0,1.2,0,3.9-1.9,5.2
			c-1.5,1-3.8,0.8-5.3-0.4C3.1,71.1,2.8,69.6,2.7,69.2z"/>
	</g>
	<path class="st14" d="M6.5,65.7c0.1,1.7,0.1,3.1,0.1,4.1c0,0.6,0,0.6-0.1,1.4c-0.1,1.4-0.1,2.4-0.1,3.9c0,0.9,0,2.2,0,4.2
		c0.4,0,0.7,0,1.1,0c-0.2-1.4-0.3-2.9-0.2-4.6c0-1.3,0.1-2.5,0.2-3.6c0.1-0.4,0.2-0.8,0.4-1.3c0.2-0.5,0.4-0.9,0.6-1.2
		c0-0.2,0-0.5,0-0.7c-0.3,0.5-0.5,1-0.8,1.5c-0.2,0.3-0.3,0.7-0.5,1C7.1,69.6,7,68.8,7,67.9c0-1,0-2,0.1-2.9
		C6.8,65.4,6.7,65.5,6.5,65.7z"/>
	<path class="st11" d="M8,65.8c-0.3,0.7,0,1.4,0.3,1.4c0.3,0.1,0.7-0.2,1-0.8c0,0,0.2,0.8-0.3,1.2c-0.3,0.3-0.9,0.4-1.2,0.2
		c-0.2-0.2-0.2-0.4-0.2-0.7c0-0.3,0-0.6,0.1-0.6C7.7,66.1,7.9,65.9,8,65.8z"/>
</g>
<g>
	<g>
		<g>
			<path class="st10" d="M183.7,64.2c-0.3,0.6-0.7,0.6-1,1.3c0,0-0.3,0.6-0.4,1.5c-0.1,1.6,1.4,4.3,3.8,5.1c0.7,0.3,2.7,0.9,4.4-0.3
				c0.6-0.3,0.9-0.9,1.1-1.1c0.3,0.1,1.2,0.2,2.1-0.3c0.6-0.3,0.9-0.9,1.1-1.2c0.3-0.4,1-1.7,0.4-3.2c-0.4-1-1.5-1.7-2.7-1.9
				c-1.1-2.3-3.2-3.8-5.2-3.8c-0.2,0-2.3,0.1-3.1,1.4c-0.4,0.7-0.5,1.4-0.5,1.4C183.7,63.7,183.7,63.8,183.7,64.2z"/>
			<path class="st11" d="M183.7,70.5c0.1-0.1,1.2,0.7,3,0.7c1.5,0,2.7-0.6,2.9-0.8c0.9-0.5,1.4-1.1,1.6-1.5c0.1,0.1,1.3,0.6,2.4-0.1
				c0.9-0.5,1.3-1.5,1.2-2.4c-0.1-0.9-0.7-1.5-0.8-1.5c-0.5-0.5-0.9-0.3-1.5-0.8c-0.9-0.5-0.9-1.2-1.5-2c-0.4-0.6-1.2-1.4-2.8-1.9
				c0.5,0.1,1.9,0.4,3,1.5c0.8,0.8,1.1,1.6,1.3,2.1c0.3,0,1,0.2,1.7,0.7c0.2,0.2,0.8,0.6,1,1.5c0.6,1.7-0.6,3.8-2.3,4.4
				c-0.5,0.2-1,0.2-1.4,0.1c-0.1,0.2-0.2,0.3-0.4,0.5c-0.3,0.3-0.5,0.4-0.6,0.5c-1.1,0.6-2.2,0.8-2.2,0.8
				C185.8,72.6,183.7,70.6,183.7,70.5z"/>
		</g>
		<path class="st12" d="M189.7,65.8c0.1-0.1-0.3-0.9-0.9-1.3c-0.3-0.3-0.8-0.3-1-0.4c0.1-0.2,0.3-0.3,0.3-0.7
			c0.1-0.7-0.4-1.3-0.5-1.3s0.3,0.5,0.1,1c-0.1,0.2-0.2,0.3-0.3,0.4c-0.2,0-0.3-0.1-0.6-0.2c-0.3-0.1-0.3,0-0.3,0
			c0,0.1,0.1,0.3,0.8,0.8c-0.1,0-0.5,0-0.9,0.3c-0.3,0.3-0.5,0.6-0.6,0.7c0.2-0.1,0.3-0.1,0.5-0.2c0.4,0,0.9-0.1,1.4-0.1
			C188.8,65,189.6,66,189.7,65.8z"/>
		<path class="st13" d="M182.2,66.8c0.1-0.3,0.3-0.5,0.5-0.9c0.2-0.2,0.5-0.5,0.9-0.9c0.5-0.3,1-0.5,1.5-0.7
			c0.6-0.2,1.1-0.3,1.1-0.3c0-0.1-1,0.2-1.4-0.3c-0.2-0.2-0.1-0.4-0.1-0.9c0-0.1,0.1-0.6,0.3-0.9c0.4-1,1.6-1.5,1.8-1.5
			c-0.3,0-1.2,0.1-2,0.6c-0.6,0.4-0.9,1-1,1.3c-0.1,0.3-0.3,0.7-0.3,1.4c0,0.3,0,0.5,0,0.8c-0.3,0.2-0.7,0.5-1,1.1
			C182.3,66,182.2,66.5,182.2,66.8z"/>
		<path class="st12" d="M182.6,66.1c0.2-0.3,0.4-0.9,1-1.4c1.1-0.9,2.4-0.7,2.7-0.7c-0.2,0.1-0.4,0.2-0.7,0.3
			c-0.1,0-0.9,0.3-1.3,0.4C184,64.9,183.3,65.3,182.6,66.1z"/>
	</g>
	<path class="st14" d="M187.6,72.8c0.3,0.5,0.5,0.8,0.8,1.5c0.1,0.3,0.2,0.4,0.2,0.6c0,1.1,0.1,2.3,0.1,3.4c0.3,0,0.5,0,0.8,0
		c-0.2-1.2-0.2-2.5,0.1-3.9c0-0.3,0.1-0.5,0.1-0.7c0.3-0.5,0.4-1,0.7-1.5c0.1-0.3,0.3-0.7,0.3-1c-0.3,0.6-0.8,1.3-1.1,1.9
		c-0.1-0.8-0.1-1.5-0.1-2.4c0-0.9,0-1.9,0.1-2.7c-0.2,0.3-0.3,0.5-0.4,0.8c0,1.4-0.1,2.7-0.2,4.2c0,0.3-0.1,0.5-0.1,0.8
		c-0.4-0.6-0.9-1.3-1.4-1.9C187.4,72.2,187.5,72.6,187.6,72.8z"/>
</g>
<g>
	<g>
		<g>
			<path class="st10" d="M15.8,69.2c-0.2,0.6-0.7,0.6-1,1.2c0,0-0.3,0.6-0.4,1.4c-0.1,1.6,1.3,4,3.7,4.9c0.6,0.2,2.6,0.8,4.2-0.3
				c0.5-0.4,0.9-0.8,1.1-1.1c0.3,0,1.1,0.2,1.9-0.3c0.6-0.3,0.9-0.8,1.1-1.1c0.2-0.4,1-1.6,0.4-3c-0.4-1-1.4-1.7-2.5-1.8
				c-1.1-2.2-3-3.6-4.9-3.6c-0.2,0-2.2,0.1-3,1.3c-0.4,0.6-0.5,1.3-0.5,1.3C15.8,68.7,16,68.8,15.8,69.2z"/>
			<path class="st11" d="M15.9,75.2c0.1-0.1,1.1,0.7,2.8,0.7c1.5,0,2.5-0.6,2.7-0.7c0.8-0.5,1.3-1,1.6-1.4c0.1,0,1.2,0.6,2.3-0.1
				c0.8-0.5,1.2-1.4,1.2-2.3c-0.1-0.8-0.6-1.4-0.8-1.5c-0.5-0.5-0.8-0.3-1.5-0.7c-0.8-0.5-0.9-1.1-1.4-1.9c-0.4-0.6-1.2-1.3-2.7-1.8
				c0.5,0.1,1.8,0.4,2.8,1.5c0.7,0.7,1.1,1.6,1.3,2c0.3,0,0.9,0.1,1.6,0.6c0.2,0.1,0.7,0.6,1,1.4c0.5,1.6-0.6,3.7-2.2,4.2
				c-0.5,0.2-1,0.1-1.3,0.1c-0.2,0.3-0.5,0.6-1,1c-0.9,0.6-1.7,0.7-2.1,0.7C17.8,77.1,15.9,75.3,15.9,75.2z"/>
		</g>
		<path class="st12" d="M21.6,70.8c0.1-0.1-0.3-0.8-0.9-1.2c-0.4-0.3-0.7-0.4-0.9-0.4c0.1-0.1,0.2-0.3,0.3-0.6
			c0.1-0.7-0.4-1.2-0.5-1.2c0,0,0.3,0.5,0.1,1c0,0.2-0.1,0.3-0.2,0.4c-0.1,0-0.3-0.1-0.6-0.1c-0.3,0-0.3,0-0.3,0
			c0,0.1,0.1,0.2,0.8,0.8c-0.1,0-0.5,0-0.8,0.2c-0.4,0.2-0.5,0.6-0.5,0.7c0.2,0,0.3-0.1,0.5-0.1c0.3-0.1,0.7-0.2,1.2-0.1
			C20.7,70,21.4,70.9,21.6,70.8z"/>
		<path class="st13" d="M14.5,71.7c0.1-0.2,0.3-0.5,0.5-0.8c0.1-0.2,0.5-0.5,0.9-0.8c0.5-0.3,1-0.5,1.5-0.6c0.5-0.2,1.1-0.3,1.1-0.3
			c0-0.1-1,0.2-1.3-0.3c-0.1-0.2-0.1-0.5-0.1-0.9c0-0.1,0.1-0.5,0.2-0.9c0.4-1,1.6-1.4,1.7-1.4c-0.3,0-1.1,0.1-1.8,0.6
			c-0.6,0.4-0.9,1-1,1.2c-0.1,0.2-0.3,0.7-0.4,1.3c0,0.3,0,0.5,0,0.7c-0.2,0.2-0.6,0.5-1,1C14.6,70.9,14.5,71.4,14.5,71.7z"/>
		<path class="st12" d="M14.9,71c0.1-0.3,0.4-0.8,1-1.3c1.1-0.8,2.3-0.7,2.6-0.6c-0.2,0-0.4,0.1-0.7,0.2c-0.1,0-0.9,0.3-1.2,0.4
			C16.2,69.9,15.6,70.2,14.9,71z"/>
	</g>
	<path class="st14" d="M19.5,78c0.3,0.6,0.6,0.8,0.8,1.3c0.3,0.8,0.2,1.5,0.1,2c0.4,0,0.9,0,1.3,0c-0.1-0.5-0.1-1.3,0.1-2.3
		c0.2-1.2,0.7-2,1.1-2.5c0.1-0.5,0.3-1.1,0.4-1.6c-0.5,1-1,1.9-1.5,2.9c-0.1-0.4-0.2-0.8-0.3-1.2c-0.3-1.6-0.1-3,0-4.1
		c-0.2,0.5-0.3,1-0.5,1.5c0,1.2-0.1,2.4-0.2,3.7c0,0.4-0.1,0.8-0.1,1.3c-0.2-0.2-0.4-0.4-0.5-0.6c-0.7-0.8-1-1.7-1.3-2.4
		C19,77,19.2,77.6,19.5,78z"/>
</g>
<path class="st11" d="M15.9,64.5c0.1-0.2-0.1-1.1-0.6-1.1c-0.1,0-0.4,0.2-0.4,0.3C14.9,64.2,15.7,64.7,15.9,64.5z"/>
<path class="st11" d="M13.8,61.8c-0.1-0.2-1.1-0.3-1.4,0.2c-0.1,0.2-0.1,0.5,0.1,0.6C12.9,62.8,13.9,62.1,13.8,61.8z"/>
<path class="st11" d="M199.7,70.3c0.1-0.2-0.1-1.1-0.6-1.1c-0.1,0-0.4,0.2-0.4,0.3C198.8,70,199.6,70.5,199.7,70.3z"/>
<path class="st11" d="M197.7,67.6c-0.1-0.2-1.1-0.3-1.4,0.2c-0.1,0.2-0.1,0.5,0.1,0.6C196.8,68.6,197.8,67.9,197.7,67.6z"/>
<path class="st11" d="M198,63.9c0.1-0.2-0.1-1.1-0.6-1.1c-0.1,0-0.4,0.2-0.4,0.3C197,63.6,197.8,64.1,198,63.9z"/>
<path class="st11" d="M195.9,61.2c-0.1-0.2-1.1-0.3-1.4,0.2c-0.1,0.2-0.1,0.5,0.1,0.6C195,62.2,196,61.5,195.9,61.2z"/>
<path class="st11" d="M215.7,71.8c0.1-0.2-0.1-1.1-0.6-1.1c-0.1,0-0.4,0.2-0.4,0.3C214.8,71.5,215.6,72,215.7,71.8z"/>
<path class="st11" d="M213.7,69.1c-0.1-0.2-1.1-0.3-1.4,0.2c-0.1,0.2-0.1,0.5,0.1,0.6C212.8,70.1,213.8,69.4,213.7,69.1z"/>
</svg>
