<?xml version="1.0" encoding="UTF-8" standalone="no"?>
<svg
   xmlns:dc="http://purl.org/dc/elements/1.1/"
   xmlns:cc="http://creativecommons.org/ns#"
   xmlns:rdf="http://www.w3.org/1999/02/22-rdf-syntax-ns#"
   xmlns:svg="http://www.w3.org/2000/svg"
   xmlns="http://www.w3.org/2000/svg"
   viewBox="0 0 351.37201 256.62799"
   height="256.62799"
   width="351.37201"
   xml:space="preserve"
   id="svg2"
   version="1.1"><metadata
     id="metadata8"><rdf:RDF><cc:Work
         rdf:about=""><dc:format>image/svg+xml</dc:format><dc:type
           rdf:resource="http://purl.org/dc/dcmitype/StillImage" /></cc:Work></rdf:RDF></metadata><defs
     id="defs6"><clipPath
       id="clipPath18"
       clipPathUnits="userSpaceOnUse"><path
         id="path16"
         d="M 0,192.471 H 263.529 V 0 H 0 Z" /></clipPath></defs><g
     transform="matrix(1.3333333,0,0,-1.3333333,0,256.628)"
     id="g10"><g
       id="g12"><g
         clip-path="url(#clipPath18)"
         id="g14"><g
           transform="translate(143.5999,144.3241)"
           id="g20"><path
             id="path22"
             style="fill:#dff9ff;fill-opacity:1;fill-rule:evenodd;stroke:none"
             d="m 0,0 c 11.333,-5.372 27.826,10.848 36.266,3.067 7.323,-6.751 3.415,-38.754 10.088,-45.801 9.061,-9.567 25.439,-12.498 22.262,-22.23 -3.207,-9.824 -28.328,-11.518 -35.878,-19.476 -10.322,-10.88 6.706,-38.763 -12.848,-39.629 -20.303,-0.901 -25.191,29.074 -44.99,37.063 -15.253,6.155 -31.279,-5.727 -46.768,-0.04 -15.841,5.817 -28.883,17.887 -34.37,29.834 -5.495,11.964 -4.073,25.41 5.101,33.897 8.908,8.242 29.622,4.116 41.974,9.657 9.693,4.348 10.057,16.115 21.222,18.693 C -26.583,7.657 -11.703,5.547 0,0" /></g><g
           transform="translate(180.4451,168.9628)"
           id="g24"><path
             id="path26"
             style="fill:#dff9ff;fill-opacity:1;fill-rule:evenodd;stroke:none"
             d="m 0,0 c 12.198,-3.865 1.876,-24.917 10.467,-34.077 9.748,-10.395 32.986,-5.215 38.403,-18.031 4.871,-11.524 -8.215,-23.02 -17.62,-31.136 -8.119,-7.004 -19.961,-7.094 -30.483,-10.37 -10.381,-3.231 -20.941,-13.962 -30.672,-8.664 -10.376,5.649 -5.131,21.342 -10.847,31.268 -4.185,7.264 -15.61,9.826 -17.439,17.842 -1.887,8.274 -8.607,20.535 1.79,19.091 4.254,5.698 21.901,7.911 28.808,12.06 C -17.162,-15.75 -12.056,3.82 0,0" /></g><g
           transform="translate(210.2972,154.6835)"
           id="g28"><path
             id="path30"
             style="fill:#dff9ff;fill-opacity:1;fill-rule:nonzero;stroke:none"
             d="m 0,0 h -16.148 c -0.209,0 -0.866,0.439 -0.866,1.024 0,0.585 0.657,1.024 0.866,1.024 H 0 C 0.209,2.048 0.945,1.609 0.945,1.024 0.945,0.439 0.209,0 0,0" /></g><g
           transform="translate(97.4988,169.5404)"
           id="g32"><path
             id="path34"
             style="fill:#dff9ff;fill-opacity:1;fill-rule:nonzero;stroke:none"
             d="m 0,0 h -16.147 c -0.209,0 -0.867,0.438 -0.867,1.024 0,0.585 0.658,1.024 0.867,1.024 H 0 C 0.209,2.048 0.945,1.609 0.945,1.024 0.945,0.438 0.209,0 0,0" /></g><g
           transform="translate(68.4651,48.5018)"
           id="g36"><path
             id="path38"
             style="fill:#dff9ff;fill-opacity:1;fill-rule:nonzero;stroke:none"
             d="m 0,0 h -41.78 c -0.209,0 -0.866,0.439 -0.866,1.024 0,0.585 0.657,1.024 0.866,1.024 H 0 C 0.209,2.048 0.945,1.609 0.945,1.024 0.945,0.439 0.209,0 0,0" /></g><g
           transform="translate(151.6458,158.1493)"
           id="g40"><path
             id="path42"
             style="fill:#dff9ff;fill-opacity:1;fill-rule:nonzero;stroke:none"
             d="m 0,0 h -41.78 c -0.209,0 -0.866,0.439 -0.866,1.024 0,0.585 0.657,1.024 0.866,1.024 H 0 C 0.209,2.048 0.945,1.609 0.945,1.024 0.945,0.439 0.209,0 0,0" /></g><g
           transform="translate(126.0135,39.2074)"
           id="g44"><path
             id="path46"
             style="fill:#dff9ff;fill-opacity:1;fill-rule:nonzero;stroke:none"
             d="m 0,0 h -16.147 c -0.209,0 -0.867,0.438 -0.867,1.024 0,0.585 0.658,1.024 0.867,1.024 H 0 C 0.209,2.048 0.945,1.609 0.945,1.024 0.945,0.438 0.209,0 0,0" /></g><g
           transform="translate(229.9895,66.1463)"
           id="g48"><path
             id="path50"
             style="fill:#dff9ff;fill-opacity:1;fill-rule:nonzero;stroke:none"
             d="m 0,0 h -16.148 c -0.209,0 -0.866,0.439 -0.866,1.024 0,0.585 0.657,1.024 0.866,1.024 H 0 C 0.209,2.048 0.945,1.609 0.945,1.024 0.945,0.439 0.209,0 0,0" /></g><g
           transform="translate(54.1756,146.1766)"
           id="g52"><path
             id="path54"
             style="fill:#dff9ff;fill-opacity:1;fill-rule:nonzero;stroke:none"
             d="m 0,0 h -16.147 c -0.209,0 -0.867,0.438 -0.867,1.024 0,0.585 0.658,1.024 0.867,1.024 H 0 C 0.209,2.048 0.945,1.609 0.945,1.024 0.945,0.438 0.209,0 0,0" /></g><g
           transform="translate(203.0506,45.3514)"
           id="g56"><path
             id="path58"
             style="fill:#dff9ff;fill-opacity:1;fill-rule:nonzero;stroke:none"
             d="m 0,0 h -16.148 c -0.209,0 -0.867,0.438 -0.867,1.024 0,0.585 0.658,1.024 0.867,1.024 H 0 C 0.209,2.048 0.945,1.609 0.945,1.024 0.945,0.438 0.209,0 0,0" /></g><g
           transform="translate(31.3323,131.9979)"
           id="g60"><path
             id="path62"
             style="fill:#dff9ff;fill-opacity:1;fill-rule:nonzero;stroke:none"
             d="m 0,0 h -16.147 c -0.209,0 -0.867,0.439 -0.867,1.024 0,0.585 0.658,1.024 0.867,1.024 H 0 C 0.209,2.048 0.945,1.609 0.945,1.024 0.945,0.439 0.209,0 0,0" /></g><g
           transform="translate(27.3152,71.5028)"
           id="g64"><path
             id="path66"
             style="fill:#dff9ff;fill-opacity:1;fill-rule:nonzero;stroke:none"
             d="m 0,0 h -8.035 c -0.209,0 -0.866,0.439 -0.866,1.024 0,0.585 0.657,1.024 0.866,1.024 H 0 C 0.209,2.048 0.945,1.609 0.945,1.024 0.945,0.439 0.209,0 0,0" /></g><g
           transform="translate(90.3309,150.5873)"
           id="g68"><path
             id="path70"
             style="fill:#dff9ff;fill-opacity:1;fill-rule:nonzero;stroke:none"
             d="m 0,0 h -8.034 c -0.209,0 -0.867,0.439 -0.867,1.024 0,0.585 0.658,1.024 0.867,1.024 H 0 C 0.209,2.048 0.945,1.609 0.945,1.024 0.945,0.439 0.209,0 0,0" /></g><g
           transform="translate(89.3855,41.2552)"
           id="g72"><path
             id="path74"
             style="fill:#dff9ff;fill-opacity:1;fill-rule:nonzero;stroke:none"
             d="m 0,0 h -8.034 c -0.209,0 -0.867,0.439 -0.867,1.024 0,0.585 0.658,1.024 0.867,1.024 H 0 C 0.209,2.048 0.945,1.609 0.945,1.024 0.945,0.439 0.209,0 0,0" /></g><g
           transform="translate(228.6507,134.0458)"
           id="g76"><path
             id="path78"
             style="fill:#dff9ff;fill-opacity:1;fill-rule:nonzero;stroke:none"
             d="m 0,0 h -8.035 c -0.209,0 -0.866,0.439 -0.866,1.024 0,0.585 0.657,1.024 0.866,1.024 H 0 C 0.209,2.048 0.945,1.609 0.945,1.024 0.945,0.439 0.209,0 0,0" /></g></g></g></g></svg>