<svg  viewBox="0 0 1448 1699" fill="none" xmlns="http://www.w3.org/2000/svg">
<path d="M1546.49 171L1258.96 171C1257.53 171 1253 168.214 1253 164.5C1253 160.786 1257.53 158 1258.96 158L1546.49 158C1547.93 158 1553 160.786 1553 164.5C1553 168.214 1547.93 171 1546.49 171Z" fill="#DFF9FF"/>
<path d="M271.495 388L-16.0369 388C-17.4748 388 -22 385.214 -22 381.5C-22 377.786 -17.4748 375 -16.0369 375L271.495 375C272.933 375 278 377.786 278 381.5C278 385.214 272.933 388 271.495 388Z" fill="#DFF9FF"/>
<path d="M404.495 13L116.963 12.9999C115.525 12.9999 111 10.2142 111 6.49994C111 2.78567 115.525 0 116.963 0L404.495 4.67299e-05C405.933 4.67299e-05 411 2.78572 411 6.49999C411 10.2143 405.933 13 404.495 13Z" fill="#DFF9FF"/>
<path d="M117.474 117H5.98246C4.53992 117 0 114.214 0 110.5C0 106.786 4.53992 104 5.98246 104H117.474C118.916 104 124 106.786 124 110.5C124 114.214 118.916 117 117.474 117Z" fill="#DFF9FF"/>
<path d="M165.526 269H54.9342C53.5033 269 49 266.214 49 262.5C49 258.786 53.5033 256 54.9342 256H165.526C166.957 256 172 258.786 172 262.5C172 266.214 166.957 269 165.526 269Z" fill="#DFF9FF"/>
<path d="M1357.53 276H1246.93C1245.5 276 1241 273.214 1241 269.5C1241 265.786 1245.5 263 1246.93 263H1357.53C1358.96 263 1364 265.786 1364 269.5C1364 273.214 1358.96 276 1357.53 276Z" fill="#DFF9FF"/>
<path d="M1317.47 49H1205.98C1204.54 49 1200 46.2142 1200 42.5C1200 38.7857 1204.54 36 1205.98 36H1317.47C1318.92 36 1324 38.7857 1324 42.5C1324 46.2142 1318.92 49 1317.47 49Z" fill="#DFF9FF"/>
<path d="M-94.4948 587L193.037 587C194.475 587 199 584.214 199 580.5C199 576.786 194.475 574 193.037 574L-94.4948 574C-95.9327 574 -101 576.786 -101 580.5C-101 584.214 -95.9327 587 -94.4948 587Z" fill="#DFF9FF"/>
<path d="M-15.4948 823L272.037 823C273.475 823 278 820.214 278 816.5C278 812.786 273.475 810 272.037 810L-15.4948 810C-16.9327 810 -22 812.786 -22 816.5C-22 820.214 -16.9327 823 -15.4948 823Z" fill="#DFF9FF"/>
<path d="M1229.51 564L1517.04 564C1518.47 564 1523 561.214 1523 557.5C1523 553.786 1518.47 551 1517.04 551L1229.51 551C1228.07 551 1223 553.786 1223 557.5C1223 561.214 1228.07 564 1229.51 564Z" fill="#DFF9FF"/>
<path d="M1197.53 441H1309.02C1310.46 441 1315 438.214 1315 434.5C1315 430.786 1310.46 428 1309.02 428H1197.53C1196.08 428 1191 430.786 1191 434.5C1191 438.214 1196.08 441 1197.53 441Z" fill="#DFF9FF"/>
<path d="M1264.47 711H1375.07C1376.5 711 1381 708.214 1381 704.5C1381 700.786 1376.5 698 1375.07 698H1264.47C1263.04 698 1258 700.786 1258 704.5C1258 708.214 1263.04 711 1264.47 711Z" fill="#DFF9FF"/>
<path d="M72.4737 718H183.066C184.497 718 189 715.214 189 711.5C189 707.786 184.497 705 183.066 705H72.4737C71.0428 705 66 707.786 66 711.5C66 715.214 71.0428 718 72.4737 718Z" fill="#DFF9FF"/>
<path d="M33.5263 470H145.018C146.46 470 151 467.214 151 463.5C151 459.786 146.46 457 145.018 457H33.5263C32.0838 457 27 459.786 27 463.5C27 467.214 32.0838 470 33.5263 470Z" fill="#DFF9FF"/>
<path d="M1608.49 1528L1320.96 1528C1319.53 1528 1315 1530.79 1315 1534.5C1315 1538.21 1319.53 1541 1320.96 1541L1608.49 1541C1609.93 1541 1615 1538.21 1615 1534.5C1615 1530.79 1609.93 1528 1608.49 1528Z" fill="#DFF9FF"/>
<path d="M333.495 1311L45.9631 1311C44.5252 1311 40 1313.79 40 1317.5C40 1321.21 44.5252 1324 45.9631 1324L333.495 1324C334.933 1324 340 1321.21 340 1317.5C340 1313.79 334.933 1311 333.495 1311Z" fill="#DFF9FF"/>
<path d="M466.495 1686L178.963 1686C177.525 1686 173 1688.79 173 1692.5C173 1696.21 177.525 1699 178.963 1699L466.495 1699C467.933 1699 473 1696.21 473 1692.5C473 1688.79 467.933 1686 466.495 1686Z" fill="#DFF9FF"/>
<path d="M179.474 1582H67.9825C66.5399 1582 62 1584.79 62 1588.5C62 1592.21 66.5399 1595 67.9825 1595H179.474C180.916 1595 186 1592.21 186 1588.5C186 1584.79 180.916 1582 179.474 1582Z" fill="#DFF9FF"/>
<path d="M227.526 1430H116.934C115.503 1430 111 1432.79 111 1436.5C111 1440.21 115.503 1443 116.934 1443H227.526C228.957 1443 234 1440.21 234 1436.5C234 1432.79 228.957 1430 227.526 1430Z" fill="#DFF9FF"/>
<path d="M1419.53 1423H1308.93C1307.5 1423 1303 1425.79 1303 1429.5C1303 1433.21 1307.5 1436 1308.93 1436H1419.53C1420.96 1436 1426 1433.21 1426 1429.5C1426 1425.79 1420.96 1423 1419.53 1423Z" fill="#DFF9FF"/>
<path d="M1379.47 1650H1267.98C1266.54 1650 1262 1652.79 1262 1656.5C1262 1660.21 1266.54 1663 1267.98 1663H1379.47C1380.92 1663 1386 1660.21 1386 1656.5C1386 1652.79 1380.92 1650 1379.47 1650Z" fill="#DFF9FF"/>
<path d="M-32.4948 1112L255.037 1112C256.475 1112 261 1114.79 261 1118.5C261 1122.21 256.475 1125 255.037 1125L-32.4948 1125C-33.9327 1125 -39 1122.21 -39 1118.5C-39 1114.79 -33.9327 1112 -32.4948 1112Z" fill="#DFF9FF"/>
<path d="M46.5052 876L334.037 876C335.475 876 340 878.786 340 882.5C340 886.214 335.475 889 334.037 889L46.5052 889C45.0673 889 40 886.214 40 882.5C40 878.786 45.0673 876 46.5052 876Z" fill="#DFF9FF"/>
<path d="M1291.51 1135L1579.04 1135C1580.47 1135 1585 1137.79 1585 1141.5C1585 1145.21 1580.47 1148 1579.04 1148L1291.51 1148C1290.07 1148 1285 1145.21 1285 1141.5C1285 1137.79 1290.07 1135 1291.51 1135Z" fill="#DFF9FF"/>
<path d="M1259.53 1258H1371.02C1372.46 1258 1377 1260.79 1377 1264.5C1377 1268.21 1372.46 1271 1371.02 1271H1259.53C1258.08 1271 1253 1268.21 1253 1264.5C1253 1260.79 1258.08 1258 1259.53 1258Z" fill="#DFF9FF"/>
<path d="M1326.47 988H1437.07C1438.5 988 1443 990.786 1443 994.5C1443 998.214 1438.5 1001 1437.07 1001H1326.47C1325.04 1001 1320 998.214 1320 994.5C1320 990.786 1325.04 988 1326.47 988Z" fill="#DFF9FF"/>
<path d="M134.474 981H245.066C246.497 981 251 983.786 251 987.5C251 991.214 246.497 994 245.066 994H134.474C133.043 994 128 991.214 128 987.5C128 983.786 133.043 981 134.474 981Z" fill="#DFF9FF"/>
<path d="M95.5263 1229H207.018C208.46 1229 213 1231.79 213 1235.5C213 1239.21 208.46 1242 207.018 1242H95.5263C94.0838 1242 89 1239.21 89 1235.5C89 1231.79 94.0838 1229 95.5263 1229Z" fill="#DFF9FF"/>
</svg>
