<svg viewBox="0 0 310 430" fill="none" xmlns="http://www.w3.org/2000/svg">
<path fill-rule="evenodd" clip-rule="evenodd" d="M139.065 28.0101C169.973 32.7964 205.059 14.0103 229.69 39.8003C254.225 65.4889 248.437 116.849 260.765 155.435C275.071 200.212 321.12 238.221 307.516 283.399C293.566 329.727 238.917 311.179 206.607 335.291C180.642 354.668 167.271 396.79 139.065 409.11C103.68 424.566 58.2616 445.55 30.3034 412.299C1.84955 378.459 22.151 313.962 16.3895 263.211C11.89 223.577 -2.17745 187.865 0.287549 147.903C3.33846 98.4427 1.20982 35.8458 32.0581 9.19521C63.1617 -17.6758 102.434 22.3373 139.065 28.0101Z" fill="#DFF9FF"/>
</svg>

