<svg viewBox="0 0 750 300" fill="none" xmlns="http://www.w3.org/2000/svg">
<path fill-rule="evenodd" clip-rule="evenodd" d="M336.448 19.5419C411.224 22.8812 496.111 9.77461 555.702 27.7676C615.06 45.6899 601.058 81.5223 630.883 108.443C665.493 139.683 776.903 166.201 743.99 197.72C710.24 230.042 578.026 217.101 499.856 233.924C437.038 247.443 404.688 276.83 336.448 285.425C250.839 296.209 140.955 310.849 73.3147 287.65C4.47472 264.041 53.5912 219.043 39.652 183.636C28.7661 155.984 -5.26802 131.069 0.695683 103.188C8.07692 68.681 2.92698 25.0087 77.56 6.41526C152.811 -12.332 247.823 15.5842 336.448 19.5419Z" fill="#DFF9FF"/>
</svg>
