<?xml version="1.0" encoding="utf-8"?>
<!-- Generator: Adobe Illustrator 24.1.2, SVG Export Plug-In . SVG Version: 6.00 Build 0)  -->
<svg version="1.1" id="Слой_1" xmlns="http://www.w3.org/2000/svg" xmlns:xlink="http://www.w3.org/1999/xlink"
	 viewBox="0 0 353.6 241.4" style="enable-background:new 0 0 353.6 241.4;" preserveAspectRatio="none" xml:space="preserve">
<style type="text/css">
	.st0{fill-rule:evenodd;clip-rule:evenodd;fill:#DFF9FF;}
	.st1{fill:#DFF9FF;}
</style>
<path class="st0" d="M269.4,2.1c10.8,4.5,5.2,25.5,14.9,32c18.7,12.5,57.3-3,62.4,19.8c4.6,20.7-37.2,18.6-50,35.6
	c-10.8,14.2-0.2,41.5-15.2,50.5c-14.4,8.7-30.4-8.1-45.6-14c-13.4-5.2-27.6-7.9-37.8-18.3c-11.1-11.4-13.7-22.9-9.3-38.9
	c4.7-17.2,15.5-21.8,28.9-33c7.6-6.3,11.8-15.8,20.1-21.1C247.6,8.3,258.8-2.3,269.4,2.1z"/>
<path class="st0" d="M177.9,54.8c19.5,3.2,37.4-28.6,53.5-20.5c14,7,22.1,57.2,35.3,64.9c17.9,10.5,47.7,18.9,47.1,35
	c-0.6,16.3-41.6,18.7-49.5,34.1c-10.9,21,27.1,55.7-2.1,65.6c-30.3,10.2-50.8-33-84.3-36.4c-25.8-2.7-44.8,22.3-70.8,20.5
	c-26.5-1.9-51.5-14.5-65-30.1C28.6,172,24.8,151.1,35,134.2c9.9-16.4,43-19.2,59.3-32.9c12.8-10.8,8.2-28.8,24-37.5
	C134.3,54.8,157.8,51.5,177.9,54.8z"/>
<path class="st1" d="M230.2,7.5h-25.4c-0.3,0-1.4-0.7-1.4-1.6c0-0.9,1-1.6,1.4-1.6h25.4c0.3,0,1.5,0.7,1.5,1.6
	C231.7,6.8,230.5,7.5,230.2,7.5z"/>
<path class="st1" d="M68.3,99.4H2.5c-0.3,0-1.4-0.7-1.4-1.6s1-1.6,1.4-1.6h65.8c0.3,0,1.5,0.7,1.5,1.6S68.7,99.4,68.3,99.4z"/>
<path class="st1" d="M203.8,222.5H138c-0.3,0-1.4-0.7-1.4-1.6s1-1.6,1.4-1.6h65.8c0.3,0,1.5,0.7,1.5,1.6S204.1,222.5,203.8,222.5z"
	/>
<path class="st1" d="M178.7,20.8h-65.8c-0.3,0-1.4-0.7-1.4-1.6s1-1.6,1.4-1.6h65.8c0.3,0,1.5,0.7,1.5,1.6S179.1,20.8,178.7,20.8z"/>
<path class="st1" d="M64.9,36.4H39.5c-0.3,0-1.4-0.7-1.4-1.6c0-0.9,1-1.6,1.4-1.6h25.4c0.3,0,1.5,0.7,1.5,1.6
	C66.4,35.7,65.3,36.4,64.9,36.4z"/>
<path class="st1" d="M323,213.6h-25.4c-0.3,0-1.4-0.7-1.4-1.6s1-1.6,1.4-1.6H323c0.3,0,1.5,0.7,1.5,1.6S323.3,213.6,323,213.6z"/>
<path class="st1" d="M29.7,191H4.3c-0.3,0-1.4-0.7-1.4-1.6s1-1.6,1.4-1.6h25.4c0.3,0,1.5,0.7,1.5,1.6S30,191,29.7,191z"/>
<path class="st1" d="M14.7,59.8H2c-0.3,0-1.4-0.7-1.4-1.6c0-0.9,1-1.6,1.4-1.6h12.7c0.3,0,1.5,0.7,1.5,1.6
	C16.2,59.1,15,59.8,14.7,59.8z"/>
<path class="st1" d="M320.1,26.3h-12.7c-0.3,0-1.4-0.7-1.4-1.6s1-1.6,1.4-1.6h12.7c0.3,0,1.5,0.7,1.5,1.6S320.4,26.3,320.1,26.3z"/>
<path class="st1" d="M324.3,110.1h-12.7c-0.3,0-1.4-0.7-1.4-1.6s1-1.6,1.4-1.6h12.7c0.3,0,1.5,0.7,1.5,1.6S324.7,110.1,324.3,110.1z
	"/>
<path class="st1" d="M74.2,231.2H61.6c-0.3,0-1.4-0.7-1.4-1.6c0-0.9,1-1.6,1.4-1.6h12.7c0.3,0,1.5,0.7,1.5,1.6
	C75.7,230.5,74.6,231.2,74.2,231.2z"/>
</svg>
