<?xml version="1.0" encoding="UTF-8" standalone="no"?>
<svg
   xmlns:dc="http://purl.org/dc/elements/1.1/"
   xmlns:cc="http://creativecommons.org/ns#"
   xmlns:rdf="http://www.w3.org/1999/02/22-rdf-syntax-ns#"
   xmlns:svg="http://www.w3.org/2000/svg"
   xmlns="http://www.w3.org/2000/svg"
   viewBox="0 0 500.56799 403.45068"
   xml:space="preserve"
   preserveAspectRatio="none"
   id="svg2"
   version="1.1"><metadata
     id="metadata8"><rdf:RDF><cc:Work
         rdf:about=""><dc:format>image/svg+xml</dc:format><dc:type
           rdf:resource="http://purl.org/dc/dcmitype/StillImage" /></cc:Work></rdf:RDF></metadata><defs
     id="defs6"><clipPath
       id="clipPath18"
       clipPathUnits="userSpaceOnUse"><path
         id="path16"
         d="M 0,302.588 H 421.176 V 0 H 0 Z" /></clipPath></defs><g
     transform="matrix(1.3333333,0,0,-1.3333333,0,403.45067)"
     id="g10"><g
       id="g12"><g
         clip-path="url(#clipPath18)"
         id="g14"><g
           transform="translate(282.9768,262.3671)"
           id="g20"><path
             id="path22"
             style="fill:#dff9ff;fill-opacity:1;fill-rule:evenodd;stroke:none"
             d="m 0,0 c 10.097,-4.207 4.861,-23.84 13.93,-29.917 17.482,-11.686 53.57,2.805 58.338,-18.511 4.3,-19.353 -34.779,-17.389 -46.746,-33.282 -10.096,-13.276 -0.186,-38.8 -14.21,-47.214 -13.462,-8.133 -28.421,7.573 -42.632,13.089 -12.528,4.861 -25.803,7.386 -35.339,17.109 -10.378,10.658 -12.809,21.41 -8.695,36.368 4.394,16.08 14.491,20.381 27.019,30.852 7.106,5.89 11.031,14.771 18.791,19.726 C -20.382,-5.796 -9.91,4.114 0,0" /></g><g
           transform="translate(197.4329,213.0975)"
           id="g24"><path
             id="path26"
             style="fill:#dff9ff;fill-opacity:1;fill-rule:evenodd;stroke:none"
             d="m 0,0 c 18.23,-2.992 34.965,26.738 50.017,19.166 13.088,-6.544 20.662,-53.477 33.003,-60.676 16.734,-9.816 44.594,-17.67 44.034,-32.721 -0.562,-15.24 -38.893,-17.483 -46.279,-31.88 -10.19,-19.634 25.336,-52.076 -1.963,-61.33 -28.328,-9.537 -47.493,30.851 -78.812,34.03 -24.121,2.524 -41.884,-20.849 -66.192,-19.165 -24.775,1.775 -48.147,13.556 -60.769,28.14 -12.621,14.865 -16.174,34.405 -6.638,50.205 9.256,15.332 40.202,17.95 55.44,30.758 11.967,10.097 7.667,26.925 22.438,35.059 C -40.762,0 -18.792,3.085 0,0" /></g><g
           transform="translate(246.3284,257.3187)"
           id="g28"><path
             id="path30"
             style="fill:#dff9ff;fill-opacity:1;fill-rule:nonzero;stroke:none"
             d="m 0,0 h -23.747 c -0.28,0 -1.309,0.654 -1.309,1.496 0,0.841 0.935,1.496 1.309,1.496 H 0 C 0.28,2.992 1.402,2.337 1.402,1.496 1.402,0.654 0.28,0 0,0" /></g><g
           transform="translate(94.9666,171.4008)"
           id="g32"><path
             id="path34"
             style="fill:#dff9ff;fill-opacity:1;fill-rule:nonzero;stroke:none"
             d="m 0,0 h -61.517 c -0.28,0 -1.309,0.654 -1.309,1.496 0,0.841 0.935,1.496 1.309,1.496 H 0 C 0.281,2.992 1.402,2.337 1.402,1.496 1.402,0.654 0.374,0 0,0" /></g><g
           transform="translate(221.6468,56.3143)"
           id="g36"><path
             id="path38"
             style="fill:#dff9ff;fill-opacity:1;fill-rule:nonzero;stroke:none"
             d="m 0,0 h -61.517 c -0.28,0 -1.309,0.654 -1.309,1.495 0,0.842 0.935,1.496 1.309,1.496 H 0 C 0.28,2.991 1.402,2.337 1.402,1.495 1.402,0.654 0.28,0 0,0" /></g><g
           transform="translate(198.18,244.8846)"
           id="g40"><path
             id="path42"
             style="fill:#dff9ff;fill-opacity:1;fill-rule:nonzero;stroke:none"
             d="m 0,0 h -61.517 c -0.28,0 -1.308,0.654 -1.308,1.496 0,0.841 0.934,1.496 1.308,1.496 H 0 C 0.281,2.992 1.402,2.337 1.402,1.496 1.402,0.654 0.374,0 0,0" /></g><g
           transform="translate(91.7879,230.2997)"
           id="g44"><path
             id="path46"
             style="fill:#dff9ff;fill-opacity:1;fill-rule:nonzero;stroke:none"
             d="m 0,0 h -23.747 c -0.28,0 -1.308,0.655 -1.308,1.496 0,0.841 0.934,1.496 1.308,1.496 H 0 C 0.281,2.992 1.402,2.337 1.402,1.496 1.402,0.655 0.374,0 0,0" /></g><g
           transform="translate(333.0872,64.6347)"
           id="g48"><path
             id="path50"
             style="fill:#dff9ff;fill-opacity:1;fill-rule:nonzero;stroke:none"
             d="m 0,0 h -23.746 c -0.281,0 -1.31,0.654 -1.31,1.496 0,0.841 0.936,1.495 1.31,1.495 H 0 C 0.28,2.991 1.402,2.337 1.402,1.496 1.402,0.654 0.28,0 0,0" /></g><g
           transform="translate(58.8792,85.7636)"
           id="g52"><path
             id="path54"
             style="fill:#dff9ff;fill-opacity:1;fill-rule:nonzero;stroke:none"
             d="m 0,0 h -23.747 c -0.28,0 -1.308,0.654 -1.308,1.496 0,0.841 0.934,1.495 1.308,1.495 H 0 C 0.281,2.991 1.402,2.337 1.402,1.496 1.402,0.654 0.281,0 0,0" /></g><g
           transform="translate(44.8558,208.4232)"
           id="g56"><path
             id="path58"
             style="fill:#dff9ff;fill-opacity:1;fill-rule:nonzero;stroke:none"
             d="m 0,0 h -11.874 c -0.28,0 -1.308,0.654 -1.308,1.496 0,0.841 0.934,1.496 1.308,1.496 H 0 C 0.28,2.992 1.402,2.337 1.402,1.496 1.402,0.654 0.28,0 0,0" /></g><g
           transform="translate(330.3763,239.7426)"
           id="g60"><path
             id="path62"
             style="fill:#dff9ff;fill-opacity:1;fill-rule:nonzero;stroke:none"
             d="m 0,0 h -11.873 c -0.281,0 -1.31,0.654 -1.31,1.496 0,0.841 0.936,1.496 1.31,1.496 H 0 C 0.28,2.992 1.402,2.337 1.402,1.496 1.402,0.654 0.28,0 0,0" /></g><g
           transform="translate(334.303,161.3973)"
           id="g64"><path
             id="path66"
             style="fill:#dff9ff;fill-opacity:1;fill-rule:nonzero;stroke:none"
             d="m 0,0 h -11.874 c -0.28,0 -1.309,0.654 -1.309,1.496 0,0.841 0.935,1.496 1.309,1.496 H 0 C 0.28,2.992 1.402,2.337 1.402,1.496 1.402,0.654 0.374,0 0,0" /></g><g
           transform="translate(100.4827,48.1806)"
           id="g68"><path
             id="path70"
             style="fill:#dff9ff;fill-opacity:1;fill-rule:nonzero;stroke:none"
             d="m 0,0 h -11.78 c -0.281,0 -1.309,0.654 -1.309,1.495 0,0.842 0.935,1.496 1.309,1.496 H 0.093 C 0.374,2.991 1.496,2.337 1.496,1.495 1.402,0.654 0.374,0 0,0" /></g></g></g></g></svg>