<svg viewBox="0 0 237 71" fill="none" xmlns="http://www.w3.org/2000/svg">
<path fill-rule="evenodd" clip-rule="evenodd" d="M112.929 42.0751C139.536 42.73 138.99 48.0464 160.866 50.0712C182.606 52.0834 224.803 50.2486 235.199 53.3923C245.292 56.444 210.103 58.9423 200.357 62.012C191.633 64.7597 200.832 68.6899 181.392 70.3393C161.857 71.9968 135.859 70.0934 112.929 69.4298C95.3577 68.9213 80.2495 67.9233 63.9809 66.9413C43.109 65.6815 13.5604 65.5657 4.40286 62.8792C-4.68204 60.2141 14.363 57.4165 22.2173 54.6895C29.7252 52.0827 34.4501 49.375 49.208 47.3228C66.691 44.8916 87.4272 41.4474 112.929 42.0751Z" fill="#DFF9FF"/>
<path d="M47.4829 59V24.92H69.8509V27.896H50.8429V40.424H66.8749V43.208H50.8429V59H47.4829ZM75.2206 23.96H78.4846V53.336C78.4846 54.584 78.6926 55.4 79.1086 55.784C79.5566 56.168 80.1166 56.36 80.7886 56.36C81.3646 56.36 81.9406 56.296 82.5166 56.168C83.1246 56.04 83.6206 55.912 84.0046 55.784L84.5806 58.424C83.9726 58.68 83.2206 58.888 82.3246 59.048C81.4606 59.208 80.7086 59.288 80.0686 59.288C78.5966 59.288 77.4126 58.856 76.5166 57.992C75.6526 57.128 75.2206 55.944 75.2206 54.44V23.96ZM98.8107 59.48C96.4107 59.48 94.2667 58.888 92.3787 57.704C90.5227 56.52 89.0667 54.952 88.0107 53C86.9547 51.016 86.4267 48.872 86.4267 46.568C86.4267 44.232 86.9547 42.088 88.0107 40.136C89.0987 38.152 90.5707 36.568 92.4267 35.384C94.3147 34.168 96.4427 33.56 98.8107 33.56C101.211 33.56 103.339 34.168 105.195 35.384C107.083 36.568 108.555 38.152 109.611 40.136C110.699 42.088 111.243 44.232 111.243 46.568C111.243 48.872 110.715 51.016 109.659 53C108.603 54.952 107.131 56.52 105.243 57.704C103.387 58.888 101.243 59.48 98.8107 59.48ZM89.7387 46.616C89.7387 48.472 90.1387 50.168 90.9387 51.704C91.7707 53.208 92.8747 54.408 94.2507 55.304C95.6267 56.168 97.1467 56.6 98.8107 56.6C100.475 56.6 101.995 56.152 103.371 55.256C104.747 54.36 105.851 53.144 106.683 51.608C107.515 50.072 107.931 48.376 107.931 46.52C107.931 44.664 107.515 42.968 106.683 41.432C105.851 39.896 104.747 38.68 103.371 37.784C101.995 36.888 100.475 36.44 98.8107 36.44C97.1787 36.44 95.6747 36.904 94.2987 37.832C92.9227 38.728 91.8187 39.944 90.9867 41.48C90.1547 43.016 89.7387 44.728 89.7387 46.616ZM129.182 36.872C127.006 36.936 125.086 37.544 123.422 38.696C121.79 39.848 120.638 41.432 119.966 43.448V59H116.702V33.992H119.774V39.992C120.638 38.232 121.774 36.808 123.182 35.72C124.622 34.632 126.142 34.024 127.742 33.896C128.062 33.864 128.334 33.848 128.558 33.848C128.782 33.848 128.99 33.864 129.182 33.896V36.872ZM143.58 59.48C141.18 59.48 139.036 58.888 137.148 57.704C135.26 56.52 133.772 54.936 132.684 52.952C131.596 50.968 131.052 48.792 131.052 46.424C131.052 44.088 131.58 41.944 132.636 39.992C133.724 38.04 135.212 36.488 137.1 35.336C138.988 34.152 141.132 33.56 143.532 33.56C145.996 33.56 148.156 34.152 150.012 35.336C151.868 36.52 153.308 38.088 154.332 40.04C155.388 41.96 155.916 44.072 155.916 46.376C155.916 46.888 155.9 47.32 155.868 47.672H134.46C134.62 49.464 135.132 51.064 135.996 52.472C136.86 53.848 137.964 54.952 139.308 55.784C140.652 56.584 142.124 56.984 143.724 56.984C145.356 56.984 146.892 56.568 148.332 55.736C149.772 54.904 150.796 53.816 151.404 52.472L154.236 53.24C153.724 54.456 152.924 55.544 151.836 56.504C150.78 57.432 149.548 58.168 148.14 58.712C146.732 59.224 145.212 59.48 143.58 59.48ZM134.364 45.32H152.844C152.716 43.528 152.22 41.944 151.356 40.568C150.492 39.16 149.388 38.072 148.044 37.304C146.7 36.504 145.212 36.104 143.58 36.104C141.948 36.104 140.46 36.504 139.116 37.304C137.772 38.072 136.668 39.16 135.804 40.568C134.972 41.944 134.492 43.528 134.364 45.32ZM169.16 59.48C167.112 59.48 165.208 59.144 163.448 58.472C161.72 57.768 160.2 56.744 158.888 55.4L160.232 53.096C161.64 54.408 163.048 55.368 164.456 55.976C165.896 56.552 167.416 56.84 169.016 56.84C170.936 56.84 172.504 56.456 173.72 55.688C174.968 54.888 175.592 53.752 175.592 52.28C175.592 51.288 175.288 50.536 174.68 50.024C174.104 49.48 173.256 49.048 172.136 48.728C171.048 48.408 169.736 48.04 168.2 47.624C166.472 47.144 165.016 46.648 163.832 46.136C162.68 45.592 161.8 44.92 161.192 44.12C160.616 43.288 160.328 42.216 160.328 40.904C160.328 39.304 160.728 37.96 161.528 36.872C162.36 35.784 163.48 34.968 164.888 34.424C166.328 33.848 167.928 33.56 169.688 33.56C171.608 33.56 173.304 33.864 174.776 34.472C176.248 35.08 177.448 35.928 178.376 37.016L176.792 39.224C175.928 38.2 174.856 37.448 173.576 36.968C172.328 36.456 170.968 36.2 169.496 36.2C168.472 36.2 167.496 36.344 166.568 36.632C165.64 36.888 164.872 37.336 164.264 37.976C163.688 38.584 163.4 39.432 163.4 40.52C163.4 41.864 163.896 42.792 164.888 43.304C165.88 43.816 167.384 44.36 169.4 44.936C171.288 45.448 172.936 45.96 174.344 46.472C175.752 46.984 176.84 47.672 177.608 48.536C178.376 49.368 178.76 50.536 178.76 52.04C178.76 54.376 177.88 56.2 176.12 57.512C174.36 58.824 172.04 59.48 169.16 59.48ZM196.155 57.8C195.771 57.96 195.067 58.248 194.043 58.664C193.019 59.08 191.835 59.288 190.491 59.288C189.083 59.288 187.851 58.888 186.795 58.088C185.739 57.288 185.211 56.088 185.211 54.488V36.584H181.755V33.992H185.211V25.544H188.475V33.992H194.235V36.584H188.475V53.576C188.539 54.504 188.859 55.192 189.435 55.64C190.043 56.056 190.731 56.264 191.499 56.264C192.395 56.264 193.195 56.12 193.899 55.832C194.635 55.512 195.099 55.288 195.291 55.16L196.155 57.8ZM198.217 51.8C198.217 50.264 198.665 48.936 199.561 47.816C200.457 46.664 201.689 45.768 203.257 45.128C204.857 44.488 206.697 44.168 208.777 44.168C209.993 44.168 211.257 44.28 212.569 44.504C213.881 44.696 215.049 44.968 216.073 45.32V43.208C216.073 41.096 215.449 39.416 214.201 38.168C212.953 36.92 211.225 36.296 209.017 36.296C207.705 36.296 206.393 36.552 205.081 37.064C203.769 37.544 202.409 38.264 201.001 39.224L199.753 36.92C201.385 35.8 202.985 34.968 204.553 34.424C206.121 33.848 207.721 33.56 209.353 33.56C212.425 33.56 214.857 34.44 216.649 36.2C218.441 37.96 219.337 40.392 219.337 43.496V55.064C219.337 55.928 219.737 56.376 220.537 56.408V59C219.833 59.096 219.337 59.128 219.049 59.096C218.249 59.064 217.641 58.808 217.225 58.328C216.809 57.848 216.585 57.336 216.553 56.792L216.505 54.968C215.385 56.408 213.929 57.528 212.137 58.328C210.345 59.096 208.521 59.48 206.665 59.48C205.033 59.48 203.577 59.144 202.297 58.472C201.017 57.768 200.009 56.84 199.273 55.688C198.569 54.504 198.217 53.208 198.217 51.8ZM214.969 53.72C215.705 52.856 216.073 52.056 216.073 51.32V47.672C213.865 46.808 211.561 46.376 209.161 46.376C206.825 46.376 204.937 46.84 203.497 47.768C202.057 48.696 201.337 49.96 201.337 51.56C201.337 52.936 201.865 54.184 202.921 55.304C204.009 56.424 205.513 56.984 207.433 56.984C209.001 56.984 210.457 56.68 211.801 56.072C213.177 55.464 214.233 54.68 214.969 53.72Z" fill="#ABCD2D"/>
<path d="M5.03805 13.221C4.15117 15.1901 2.673 15.1901 1.49049 17.4405C1.49049 17.4405 0.307983 19.4096 0.0123561 22.2225C-0.283271 27.5672 4.74239 36.2874 13.3156 39.1004C15.6806 39.9443 22.7757 41.9134 28.6882 37.9752C30.7576 36.85 31.9401 35.1622 32.5313 34.3183C33.4182 34.5996 36.6701 34.8809 39.6264 33.1931C41.6958 32.0679 42.8783 30.3802 43.4695 29.255C44.3564 27.8485 47.0171 23.629 44.9477 18.847C43.4695 15.4714 39.922 12.9397 35.7832 12.3771C31.9401 4.78206 24.845 0 17.75 0C17.1587 0 9.76807 0.281294 7.10743 4.50076C5.62929 6.75115 5.33365 9.00152 5.33365 9.00152C5.03802 11.2519 5.33368 11.8145 5.03805 13.221Z" fill="#ADCE52"/>
<path d="M5.33358 33.7547C5.62921 33.4734 9.47238 36.0051 15.6806 36.0051C21.0019 36.0051 24.8451 34.036 25.7319 33.4734C28.6882 31.7857 30.462 29.8166 31.3489 28.6914C31.6445 28.9727 35.7833 30.6605 39.6264 28.4101C42.5827 26.7223 44.0608 23.628 43.7652 20.5337C43.4696 17.7207 41.4002 15.7517 41.1046 15.4704C39.3308 13.7826 38.1483 14.3452 35.7833 12.9387C32.827 11.2509 32.5314 9.00051 30.7576 6.46883C29.2795 4.49975 26.6188 1.96806 21.0019 0.280273C22.7756 0.561571 27.5057 1.68676 31.3489 5.34364C34.0095 7.87532 35.192 10.6883 35.7833 12.3761C36.6702 12.3761 39.3308 12.9387 41.6958 14.6265C42.2871 15.1891 44.3565 16.5956 45.2434 19.4085C47.3128 25.0345 43.174 32.0669 37.2614 34.036C35.4876 34.5986 33.7139 34.5986 32.5313 34.3173C31.9401 35.1612 30.7576 36.5677 28.9838 37.6929C25.7319 39.662 22.7757 39.9433 21.2975 40.2246C12.4287 40.5059 5.03796 34.3173 5.33358 33.7547Z" fill="#9AB130"/>
<path d="M25.7318 18.5657C26.0274 18.2844 24.8449 15.7527 22.4799 14.3462C21.2974 13.5023 19.8193 13.221 18.9324 12.9397C19.228 12.3771 19.8193 11.8145 19.8193 10.6893C20.1149 8.43894 18.3412 6.46985 18.0455 6.46985C17.7499 6.46985 18.9324 8.15764 18.3412 9.84543C18.0456 10.408 17.7499 10.6893 17.4543 11.2519C16.863 11.2519 16.2718 10.9706 15.3849 10.6893C14.4981 10.408 14.2024 10.6893 14.2024 10.6893C14.2024 10.9706 14.4981 11.5332 16.8631 13.221C16.5674 13.221 15.0893 13.221 13.9068 14.0649C12.7243 14.9088 12.133 16.034 11.8374 16.3153C12.4287 16.034 13.0199 16.034 13.6112 15.7527C14.7937 15.4714 16.2718 15.1901 17.7499 15.1901C22.7755 15.7527 25.4362 18.847 25.7318 18.5657Z" fill="#C2DC5B"/>
<path d="M18.6368 41.6321C19.5237 43.3199 20.4106 44.1638 21.2974 46.4141C21.5931 47.258 21.8887 47.8206 21.8887 48.3832C21.8887 52.0401 22.1843 55.9783 22.1843 59.6351C23.0711 59.6351 23.9581 59.6351 24.8449 59.6351C24.2537 55.697 24.2537 51.4775 25.1405 46.6954C25.1405 45.8515 25.4362 45.0076 25.4362 44.445C26.323 42.7573 26.9143 41.0695 27.8012 39.3817C28.0968 38.2565 28.688 37.1313 28.9837 36.0061C27.8012 37.9752 26.323 40.2256 25.1405 42.1947C24.8449 39.663 24.8449 37.1313 24.8449 34.3183C24.8449 31.224 24.8449 28.1298 25.1405 25.5981C24.5493 26.442 24.2537 27.2859 23.6624 28.1298C23.6624 32.6305 23.3668 37.1313 23.0712 41.9134C23.0712 42.7573 22.7756 43.6012 22.7756 44.445C21.2974 42.476 19.8193 40.2256 18.0455 38.2565C18.0455 39.663 18.3411 40.7882 18.6368 41.6321Z" fill="#A57B66"/>
<path d="M0.0119019 21.6586C0.307529 20.8147 0.898802 19.9708 1.78568 18.8456C2.37694 18.283 3.55947 17.1578 5.0376 16.0326C6.81137 14.9074 8.5851 14.3448 10.3589 13.7822C12.4283 13.2196 14.202 12.9383 14.202 12.657C14.202 12.3757 10.6545 13.2196 9.47202 11.5318C8.88076 10.9692 9.17637 9.84405 9.17637 8.43756C9.17637 8.15626 9.47201 6.46847 10.0633 5.34327C11.5414 1.96769 15.6802 0.561205 16.2714 0.279907C15.0889 0.279907 12.1327 0.561207 9.47202 2.249C7.40262 3.65549 6.22008 5.62457 5.92445 6.46847C5.62882 7.31236 4.74196 8.71885 4.74196 10.9692C4.74196 11.8131 4.74196 12.657 4.74196 13.5009C3.85508 14.0635 2.37695 15.1887 1.19444 17.1578C0.307556 18.8456 0.0119019 20.8147 0.0119019 21.6586Z" fill="#C2DD4C"/>
<path d="M1.49042 19.4096C2.08167 18.2844 2.96859 16.5966 5.03798 14.9088C8.88114 12.0958 13.3155 12.6584 14.2024 12.6584C13.6112 12.9397 12.7243 13.221 11.8374 13.5023C11.5417 13.5023 8.58548 14.6275 7.40297 14.9088C6.22046 15.4714 3.85544 16.5966 1.49042 19.4096Z" fill="#C2DC5B"/>
</svg>
