<svg viewBox="0 0 77 100" fill="none" xmlns="http://www.w3.org/2000/svg">
<path d="M8.47312 21.7624C6.98153 25.0741 4.49555 25.0741 2.50676 28.8589C2.50676 28.8589 0.517978 32.1706 0.0207809 36.9015C-0.476416 45.8903 7.97593 60.5563 22.3946 65.2873C26.3722 66.7066 38.3049 70.0182 48.2489 63.3949C51.7292 61.5025 53.718 58.6639 54.7124 57.2446C56.204 57.7177 61.6732 58.1909 66.6451 55.3523C70.1255 53.4599 72.1143 50.6213 73.1087 48.7289C74.6003 46.3634 79.075 39.267 75.5947 31.2243C73.1087 25.5472 67.1423 21.7624 60.1816 20.8162C53.718 8.04264 41.7853 0 29.8526 0C28.8582 0 16.4283 0.473107 11.9535 7.56955C9.46752 11.3543 8.97032 15.1391 8.97032 15.1391C8.47312 18.9239 8.97032 19.397 8.47312 21.7624Z" fill="#ADCE52"/>
<path d="M8.97047 56.7698C9.46767 56.2967 15.9312 60.5545 26.3723 60.5545C35.3219 60.5545 41.7854 57.2429 43.277 56.2967C48.249 53.4581 51.2322 50.1464 52.7238 48.254C53.221 48.7271 60.1817 51.5657 66.6453 47.7809C71.6172 44.9423 74.1032 39.7383 73.606 34.5342C73.1088 29.8033 69.6284 26.4916 69.1312 26.0185C66.1481 23.1799 64.1593 24.1261 60.1817 21.7606C55.2097 18.9221 54.7125 15.1373 51.7294 10.8794C49.2434 7.56776 44.7686 3.30989 35.3219 0.471313C38.3051 0.94441 46.2602 2.83679 52.7238 8.98704C57.1985 13.2449 59.1873 17.9759 60.1817 20.8144C61.6733 20.8144 66.1481 21.7606 70.1256 24.5992C71.12 25.5454 74.6004 27.9109 76.092 32.6419C79.5724 42.1038 72.6116 53.9312 62.6677 57.2428C59.6845 58.189 56.7013 58.1891 54.7125 57.716C54.2153 58.6622 53.7181 59.6084 52.2266 60.5545C50.735 61.9738 49.2434 62.92 48.7462 63.3931C42.2826 66.7048 35.8191 67.651 35.8191 67.651C20.9032 68.1241 8.47328 57.2429 8.97047 56.7698Z" fill="#9AB130"/>
<path d="M65.6507 8.98891C65.1536 8.51581 62.6676 9.46201 61.176 10.8813C59.6844 12.3006 58.69 14.6661 59.1872 15.1391C59.6844 15.6122 62.1704 14.6661 63.1648 13.2468C65.1536 11.8275 66.1479 9.46201 65.6507 8.98891Z" fill="#9AB130"/>
<path d="M66.1479 16.0852C68.6338 15.6122 71.617 16.0852 71.617 16.5583C71.617 17.0314 69.131 18.4507 66.6451 18.4507C64.6563 18.9238 61.6731 18.4507 61.6731 17.9776C61.6731 17.9776 64.1591 16.5583 66.1479 16.0852Z" fill="#9AB130"/>
<path d="M43.2769 30.7512C43.7741 30.2781 41.7853 26.0203 37.8078 23.6548C35.819 22.2355 33.333 21.7624 31.8414 21.2893C32.3386 20.3431 33.333 19.3969 33.333 17.5045C33.8302 13.7198 30.847 10.4081 30.3498 10.4081C29.8526 10.4081 31.8414 13.2467 30.847 16.0852C30.3498 17.0314 29.8526 17.5045 29.3554 18.4507C28.361 18.4507 27.3666 17.9776 25.875 17.5045C24.3835 17.0314 23.8863 17.5045 23.8863 17.5045C23.8863 17.9776 24.3835 18.9238 28.361 21.7624C27.8638 21.7624 25.3779 21.7624 23.3891 23.1817C21.4003 24.601 20.4059 26.4934 19.9087 26.9665C20.9031 26.4934 21.8975 26.4934 22.8919 26.0203C25.3779 26.0203 27.8638 25.5472 30.847 25.5472C38.305 26.4934 42.7797 31.6974 43.2769 30.7512Z" fill="#C2DC5B"/>
<path d="M0.0205078 35.953C0.517704 34.5337 1.5121 33.1144 3.00369 31.222C3.99808 30.2758 5.98686 28.3834 8.47285 26.4911C11.456 24.5987 14.4392 23.6525 17.4224 22.7063C20.9028 21.7601 23.8859 21.287 23.8859 20.8139C23.8859 20.3408 17.9196 21.7601 15.9308 18.9215C14.9364 17.9753 15.4336 16.556 15.4336 14.1905C15.4336 13.7174 15.9308 10.8788 16.9252 8.98645C19.4112 3.30928 26.3719 0.9438 27.3663 0.470703C25.3775 0.470703 20.4056 0.943804 15.9308 3.78239C12.4504 6.14787 10.4616 9.45956 9.96444 10.8788C9.46724 12.2981 7.97565 14.6636 7.97565 18.4484C7.97565 19.8677 7.97565 21.287 7.97565 22.7063C6.48406 23.6525 3.99808 25.5449 2.00929 28.8565C0.517704 31.6951 0.0205078 34.5337 0.0205078 35.953Z" fill="#C2DD4C"/>
<path d="M2.50684 32.1706C3.50123 30.2782 4.99282 27.4396 8.4732 24.601C14.9368 19.8701 22.3947 20.8163 23.8863 20.8163C22.8919 21.2894 21.4003 21.7624 19.9087 22.2355C19.4115 22.2355 14.4396 24.1279 12.4508 24.601C10.462 25.5472 6.48441 27.9127 2.50684 32.1706Z" fill="#C2DC5B"/>
<path d="M31.3442 69.5451C32.8358 72.3837 34.3274 73.803 35.819 77.5877C36.3162 79.007 36.8134 79.9532 36.8134 80.8994C36.8134 87.0497 37.3106 93.673 37.3106 99.8233C38.8022 99.8233 40.2938 99.8233 41.7854 99.8233C40.791 93.1999 40.791 86.1035 42.2826 78.0608C42.2826 76.6415 42.7798 75.2223 42.7798 74.2761C44.2714 71.4375 45.2657 68.5989 46.7573 65.7603C47.2545 63.868 48.2489 61.9756 48.7461 60.0832C46.7573 63.3949 44.2714 67.1796 42.2826 70.4913C41.7854 66.2334 41.7854 61.9756 41.7854 57.2446C41.7854 52.0405 41.7854 46.8365 42.2826 42.5786C41.2882 43.9979 40.791 45.4172 39.7966 46.8365C39.7966 54.406 39.2994 61.9756 38.8022 70.0182C38.8022 71.4375 38.305 72.8568 38.305 74.2761C35.819 70.9644 33.333 67.1796 30.3499 63.8679C30.3499 66.2334 30.847 68.1258 31.3442 69.5451Z" fill="#A57B66"/>
</svg>
