<svg  viewBox="0 0 528 512" fill="none" xmlns="http://www.w3.org/2000/svg">
<path fill-rule="evenodd" clip-rule="evenodd" d="M250.892 14.1741C299.054 21.6773 341.045 45.2545 383.445 71.6693C432.089 101.973 492.735 122.095 515.102 178.771C537.993 236.776 529.167 309.754 498.476 363.146C470.118 412.479 410.504 420.003 362.491 444.26C325.665 462.865 290.573 479.419 250.892 488.227C200.593 499.393 148.142 525.42 101.299 502.24C51.2828 477.49 5.72054 424.657 0.307076 364.227C-5.01047 304.868 60.2962 267.976 75.1777 210.652C90.994 149.727 47.9354 70.6918 88.1968 25.6727C127.419 -18.1844 195.729 5.58029 250.892 14.1741Z" fill="#DFF9FF"/>
</svg>
